<svg xmlns="http://www.w3.org/2000/svg" width="18" height="11" viewBox="0 0 18 11">
  <g id="Grupo_314" data-name="Grupo 314" transform="translate(-3 -7)">
    <path id="Trazado_501" data-name="Trazado 501" d="M3.5,18a.49.49,0,0,1-.5-.5V13a2.093,2.093,0,0,1,.256-.946A1.687,1.687,0,0,1,4,11.3V9A1.971,1.971,0,0,1,6,7h4.5a1.727,1.727,0,0,1,.883.213A1.878,1.878,0,0,1,12,7.8a1.878,1.878,0,0,1,.617-.588A1.727,1.727,0,0,1,13.5,7H18a1.97,1.97,0,0,1,2,2v2.3a1.687,1.687,0,0,1,.744.754A2.094,2.094,0,0,1,21,13v4.5a.5.5,0,1,1-1,0V16H4v1.5a.491.491,0,0,1-.5.5Zm9-7H19V9a.982.982,0,0,0-1-1H13.5a.982.982,0,0,0-1,1ZM5,11h6.5V9a.982.982,0,0,0-1-1H6A.982.982,0,0,0,5,9ZM4,15H20V13a.982.982,0,0,0-1-1H5a.982.982,0,0,0-1,1Z" fill="#1c1b1f"/>
  </g>
</svg>
