<svg id="Grupo_14" data-name="Grupo 14" xmlns="http://www.w3.org/2000/svg" width="17.332" height="17.332" viewBox="0 0 17.332 17.332">
  <path id="Trazado_49" data-name="Trazado 49" d="M12.583,12.667A.667.667,0,1,1,11.917,12,.667.667,0,0,1,12.583,12.667Z" transform="translate(-3.251 -3.334)" fill="#676767"/>
  <path id="Trazado_50" data-name="Trazado 50" d="M7.417,15.583a.667.667,0,1,0-.667-.667A.667.667,0,0,0,7.417,15.583Z" transform="translate(-2.75 -3.584)" fill="#676767"/>
  <path id="Trazado_51" data-name="Trazado 51" d="M8.083,17.167a.667.667,0,1,1-.667-.667A.667.667,0,0,1,8.083,17.167Z" transform="translate(-2.75 -3.834)" fill="#676767"/>
  <path id="Trazado_52" data-name="Trazado 52" d="M9.667,15.583A.667.667,0,1,0,9,14.917.667.667,0,0,0,9.667,15.583Z" transform="translate(-3 -3.584)" fill="#676767"/>
  <path id="Trazado_53" data-name="Trazado 53" d="M10.333,17.167a.667.667,0,1,1-.667-.667A.667.667,0,0,1,10.333,17.167Z" transform="translate(-3 -3.834)" fill="#676767"/>
  <path id="Trazado_54" data-name="Trazado 54" d="M11.917,15.583a.667.667,0,1,0-.667-.667A.667.667,0,0,0,11.917,15.583Z" transform="translate(-3.251 -3.584)" fill="#676767"/>
  <path id="Trazado_55" data-name="Trazado 55" d="M12.583,17.167a.667.667,0,1,1-.667-.667A.667.667,0,0,1,12.583,17.167Z" transform="translate(-3.251 -3.834)" fill="#676767"/>
  <path id="Trazado_56" data-name="Trazado 56" d="M14.167,15.583a.667.667,0,1,0-.667-.667A.667.667,0,0,0,14.167,15.583Z" transform="translate(-3.501 -3.584)" fill="#676767"/>
  <path id="Trazado_57" data-name="Trazado 57" d="M14.833,17.167a.667.667,0,1,1-.667-.667A.667.667,0,0,1,14.833,17.167Z" transform="translate(-3.501 -3.834)" fill="#676767"/>
  <path id="Trazado_58" data-name="Trazado 58" d="M16.417,15.583a.667.667,0,1,0-.667-.667A.667.667,0,0,0,16.417,15.583Z" transform="translate(-3.751 -3.584)" fill="#676767"/>
  <path id="Trazado_59" data-name="Trazado 59" d="M14.833,12.667A.667.667,0,1,1,14.167,12,.667.667,0,0,1,14.833,12.667Z" transform="translate(-3.501 -3.334)" fill="#676767"/>
  <path id="Trazado_60" data-name="Trazado 60" d="M16.417,13.333a.667.667,0,1,0-.667-.667A.667.667,0,0,0,16.417,13.333Z" transform="translate(-3.751 -3.334)" fill="#676767"/>
  <path id="Trazado_61" data-name="Trazado 61" d="M6.25,2.25a.667.667,0,0,1,.667.667V4.25h8V2.917a.667.667,0,0,1,1.333,0V4.25h.667a2.666,2.666,0,0,1,2.666,2.666v10a2.666,2.666,0,0,1-2.666,2.666h-12A2.666,2.666,0,0,1,2.25,16.915v-10A2.666,2.666,0,0,1,4.916,4.25h.667V2.917A.667.667,0,0,1,6.25,2.25Zm12,8a1.333,1.333,0,0,0-1.333-1.333h-12a1.333,1.333,0,0,0-1.333,1.333v6.666a1.333,1.333,0,0,0,1.333,1.333h12a1.333,1.333,0,0,0,1.333-1.333Z" transform="translate(-2.25 -2.25)" fill="#676767" fill-rule="evenodd"/>
</svg>
