<svg id="united-states" xmlns="http://www.w3.org/2000/svg" width="22" height="22" viewBox="0 0 22 22">
  <circle id="Elipse_7" data-name="Elipse 7" cx="11" cy="11" r="11" fill="#f0f0f0"/>
  <g id="Grupo_457" data-name="Grupo 457" transform="translate(0.379 2.391)">
    <path id="Trazado_538" data-name="Trazado 538" d="M244.87,192.087h11.478a11.013,11.013,0,0,0-.379-2.87h-11.1Z" transform="translate(-234.727 -183.478)" fill="#d80027"/>
    <path id="Trazado_539" data-name="Trazado 539" d="M244.87,58.522h9.864a11.058,11.058,0,0,0-2.538-2.87H244.87Z" transform="translate(-234.727 -55.652)" fill="#d80027"/>
    <path id="Trazado_540" data-name="Trazado 540" d="M103.491,458.739a10.953,10.953,0,0,0,6.847-2.391H96.644A10.953,10.953,0,0,0,103.491,458.739Z" transform="translate(-92.87 -439.131)" fill="#d80027"/>
    <path id="Trazado_541" data-name="Trazado 541" d="M10.055,325.652H28.826a10.935,10.935,0,0,0,1.236-2.87H8.819a10.935,10.935,0,0,0,1.236,2.87Z" transform="translate(-8.819 -311.304)" fill="#d80027"/>
  </g>
  <path id="Trazado_542" data-name="Trazado 542" d="M5.1,1.718h1L5.165,2.4l.356,1.1-.932-.677-.932.677.308-.947A11.06,11.06,0,0,0,1.831,4.922h.321l-.594.431q-.139.231-.266.47l.283.872-.529-.384q-.2.418-.36.854L1,8.127H2.152L1.22,8.8l.356,1.1L.644,9.223l-.559.406A11.106,11.106,0,0,0,0,11H11V0A10.948,10.948,0,0,0,5.1,1.718ZM5.522,9.9l-.932-.677L3.657,9.9l.356-1.1-.932-.677H4.233l.356-1.1.356,1.1H6.1L5.165,8.8ZM5.165,5.6l.356,1.1-.932-.677L3.657,6.7l.356-1.1-.932-.677H4.233l.356-1.1.356,1.1H6.1Zm4.3,4.3-.932-.677L7.6,9.9l.356-1.1-.932-.677H8.179l.356-1.1.356,1.1h1.153L9.111,8.8ZM9.111,5.6l.356,1.1-.932-.677L7.6,6.7l.356-1.1-.932-.677H8.179l.356-1.1.356,1.1h1.153Zm0-3.2.356,1.1-.932-.677L7.6,3.491l.356-1.1-.932-.677H8.179l.356-1.1.356,1.1h1.153Z" transform="translate(0)" fill="#0052b4"/>
</svg>
