<svg id="Grupo_44" data-name="Grupo 44" xmlns="http://www.w3.org/2000/svg" xmlns:xlink="http://www.w3.org/1999/xlink" width="159" height="72.942" viewBox="0 0 159 72.942">
  <defs>
    <clipPath id="clip-path">
      <rect id="Rectángulo_3" data-name="Rectángulo 3" width="159" height="72.942" fill="none"/>
    </clipPath>
  </defs>
  <g id="Grupo_1" data-name="Grupo 1" clip-path="url(#clip-path)">
    <path id="Trazado_1" data-name="Trazado 1" d="M117.264,18.332S112.926,6.38,118.422,6.413s14.98-3.7,17.607,0,4.147,11.392-1.171,16.627-11.8,0-11.8,0Z" transform="translate(-53.123 -2.194)" fill="none"/>
    <path id="Trazado_2" data-name="Trazado 2" d="M122.657.144c2.767-.317,8.126-.388,8,2.812-.143,3.5-5.466,1.1-7.779,1.3-3.1.261-3.214,3.628-5.622,4.1-1.97.392-3.777-.718-3.89-1.945-.173-1.9,4.5-5.207,6.268-5.834a14.1,14.1,0,0,1,3.027-.434" transform="translate(-52.075 0)" fill="#fff" fill-rule="evenodd"/>
    <path id="Trazado_3" data-name="Trazado 3" d="M152.469,17.913c-2.044.038-1.618-1.738-2.161-3.025a14.331,14.331,0,0,0-1.945-3.243c-.859-.967-3.194-1.852-3.458-3.025-.389-1.734,1.493-4.684,2.81-4.755,1.971-.108,4.66,6.047,5.186,8.212.548,2.25,1.179,5.761-.432,5.835" transform="translate(-66.543 -1.775)" fill="#fff" fill-rule="evenodd"/>
    <path id="Trazado_4" data-name="Trazado 4" d="M135.627,25.083c1.726.642-1.672,6.895-3.716,7.868a8.946,8.946,0,0,1-4.372.657c-3.542-.205-8.2-3.21-11.366-6.339-2.675-2.639-6.976-8.913-3.936-10.494,5.542-3.051,5.492,6.414,8.964,8.965,2.286,1.678,6,1.9,8.744,1.093,1.851-.546,2.926-2.841,5.682-1.75" transform="translate(-51.08 -7.431)" fill="#fff" fill-rule="evenodd"/>
    <path id="Trazado_5" data-name="Trazado 5" d="M135.83,15.5c.046,2.406-3.044,3.761-5.188,3.243a4.22,4.22,0,0,1-2.377-2.593c-.441-4.028,7.565-1.767,7.565-.65" transform="translate(-58.915 -6.362)" fill="#fff" fill-rule="evenodd"/>
    <path id="Trazado_6" data-name="Trazado 6" d="M184.149,30.858s-9.508,3.449-9.481-.922-2.943-11.915,0-14,9.062-3.3,13.225.932,0,9.386,0,9.386Z" transform="translate(-79.642 -6.444)" fill="none"/>
    <path id="Trazado_7" data-name="Trazado 7" d="M169.683,30.278c-.254-2.2-.31-6.465,2.235-6.361,2.787.114.875,4.346,1.032,6.187.208,2.461,2.885,2.557,3.265,4.47.311,1.568-.573,3.006-1.548,3.094-1.513.138-4.143-3.573-4.64-4.985a11.036,11.036,0,0,1-.345-2.406" transform="translate(-77.897 -10.986)" fill="#fff" fill-rule="evenodd"/>
    <path id="Trazado_8" data-name="Trazado 8" d="M185.771,10.323c.034,1.909-1.625,1.513-2.827,2.02a13.363,13.363,0,0,0-3.029,1.816c-.906.8-1.732,2.986-2.827,3.232-1.62.365-4.377-1.4-4.444-2.625-.1-1.84,5.651-4.353,7.674-4.846,2.1-.513,5.455-.7,5.454.4" transform="translate(-79.309 -4.37)" fill="#fff" fill-rule="evenodd"/>
    <path id="Trazado_9" data-name="Trazado 9" d="M190,15.708c1.975-.733,5.345,1.295,6.1,2.88a6.931,6.931,0,0,1,.509,3.389c-.161,2.745-2.742,6.123-4.914,8.808-1.672,2.066-6.9,5.561-8.129,3.049-1.772-4.578,4.969-4.255,6.944-6.946a8.317,8.317,0,0,0,.848-6.777c-.424-1.435-3.37-3.656-1.357-4.4" transform="translate(-84.191 -7.145)" fill="#fff" fill-rule="evenodd"/>
    <path id="Trazado_10" data-name="Trazado 10" d="M185.839,26.915c1.553.774.4,3.769-1.079,4.67a3.087,3.087,0,0,1-2.753-.119c-1.732-1.769,2.864-4.834,3.832-4.551" transform="translate(-83.434 -12.356)" fill="#fff" fill-rule="evenodd"/>
    <path id="Trazado_11" data-name="Trazado 11" d="M82.37,34.057s-6.238-2.913-4.119-5.006,4.316-7.15,6.738-6.74,5.949,2.774,5.916,6.814-4.516,4.517-4.516,4.517Z" transform="translate(-35.746 -10.239)" fill="none"/>
    <path id="Trazado_12" data-name="Trazado 12" d="M78.143,26.15c.937-1.182,2.963-3.263,4.136-1.987,1.287,1.4-1.669,2.515-2.48,3.475-1.085,1.287.16,2.618-.581,3.723-.6.9-1.72,1.173-2.232.746-.8-.663-.274-3.715.165-4.635a7.663,7.663,0,0,1,.991-1.321" transform="translate(-35.177 -10.916)" fill="#fff" fill-rule="evenodd"/>
    <path id="Trazado_13" data-name="Trazado 13" d="M95.378,25.4c-.768.8-1.284-.047-1.985-.331a7.733,7.733,0,0,0-1.986-.5c-.7-.042-1.931.514-2.481.165-.813-.514-1.222-2.365-.746-2.895.714-.8,4.1.53,5.129,1.156,1.072.654,2.76,1.625,2.068,2.4" transform="translate(-40.416 -9.923)" fill="#fff" fill-rule="evenodd"/>
    <path id="Trazado_14" data-name="Trazado 14" d="M91.37,30.756c1.254-.369,1.978,3.241,1.571,4.383a4.769,4.769,0,0,1-1.406,1.9c-1.42,1.266-4.316,1.888-6.7,1.9-2.012.014-6.362-.789-5.461-2.482,1.372-3.1,4.506.35,6.785,0a5.746,5.746,0,0,0,3.723-2.9c.494-.906.032-2.181,1.488-2.812" transform="translate(-36.408 -14.117)" fill="#fff" fill-rule="evenodd"/>
    <path id="Trazado_15" data-name="Trazado 15" d="M89.7,32.586c.447.661-1.647,2.036-2.81,1.757A2.139,2.139,0,0,1,85.6,32.938c.019-1.709,3.831-.744,4.1-.352" transform="translate(-39.325 -14.681)" fill="#fff" fill-rule="evenodd"/>
    <path id="Trazado_16" data-name="Trazado 16" d="M162.415,41.132a1.054,1.054,0,0,1,.443,1.837c-1.456,1.159-2.021.253-2.1-.935-.039-.57.959-1.106,1.659-.9" transform="translate(-73.849 -18.875)" fill="#fff" fill-rule="evenodd"/>
    <path id="Trazado_17" data-name="Trazado 17" d="M103.452,13.679c.428.919.156.646,0,1.675s-3.439.569-3.682-.334c-.662-2.481,3.254-2.258,3.682-1.341" transform="translate(-45.798 -5.99)" fill="#fff" fill-rule="evenodd"/>
    <path id="Trazado_18" data-name="Trazado 18" d="M141.144,23.979c.3.915,0,1.022-.542,1.641s-1.337,1.026-2.027-.708,2.265-1.872,2.57-.933" transform="translate(-63.612 -10.75)" fill="#fff" fill-rule="evenodd"/>
    <path id="Trazado_19" data-name="Trazado 19" d="M108.847,39.976c1.713-.989,3.413-1.833,3.59.174.27,3.746-6.864,4.565-6.46,2.248.12-1.077,1.55-1.659,2.871-2.422" transform="translate(-48.676 -17.882)" fill="#fff" fill-rule="evenodd"/>
    <path id="Trazado_20" data-name="Trazado 20" d="M3.009,75.564c0,1.751,0,2.694.287,2.94.232.207.588.3,1.653.3.725,0,1.259-.013,1.6-.383a1.7,1.7,0,0,0,.356-.818c.014-.124.04-.207.15-.207s.109.069.109.231a10.781,10.781,0,0,1-.2,1.574c-.082.3-.151.369-.862.369-.984,0-1.694-.028-2.31-.041-.615-.029-1.108-.041-1.669-.041-.15,0-.45,0-.78.012s-.67.029-.943.029c-.178,0-.272-.041-.272-.139,0-.068.055-.107.217-.107a2.218,2.218,0,0,0,.494-.057c.272-.054.341-.355.4-.752.068-.574.068-1.653.068-2.912V73.158c0-2.078,0-2.461-.027-2.9-.028-.465-.137-.685-.588-.78a2.023,2.023,0,0,0-.452-.042c-.151,0-.232-.027-.232-.122s.1-.124.3-.124c.642,0,1.5.042,1.872.042.328,0,1.327-.042,1.86-.042.191,0,.286.03.286.124s-.082.122-.245.122a3.584,3.584,0,0,0-.534.042c-.369.067-.479.3-.506.78-.028.437-.028.82-.028,2.9Z" transform="translate(0 -31.786)" fill="#fff"/>
    <path id="Trazado_21" data-name="Trazado 21" d="M16.11,75.706c-.069,0-.1.028-.123.109l-.738,1.955a2.629,2.629,0,0,0-.206.834c0,.247.124.425.548.425h.2c.165,0,.206.024.206.106,0,.109-.082.138-.232.138-.437,0-1.026-.041-1.449-.041-.151,0-.9.041-1.614.041-.178,0-.259-.029-.259-.138,0-.082.056-.106.163-.106a3.778,3.778,0,0,0,.426-.03c.628-.081.887-.545,1.161-1.229l3.432-8.588c.165-.4.245-.547.382-.547s.207.124.343.438c.327.753,2.515,6.331,3.389,8.409.521,1.231.917,1.422,1.2,1.49a2.924,2.924,0,0,0,.575.057c.109,0,.177.014.177.106,0,.109-.122.138-.628.138s-1.49,0-2.584-.029c-.246-.012-.41-.012-.41-.109,0-.082.055-.106.191-.121a.224.224,0,0,0,.123-.315L19.3,75.8a.131.131,0,0,0-.136-.095Zm2.788-.685c.068,0,.083-.039.068-.081l-1.23-3.377c-.013-.055-.028-.124-.068-.124s-.07.069-.084.124l-1.257,3.362c-.012.057,0,.1.056.1Z" transform="translate(-5.718 -31.53)" fill="#fff"/>
    <path id="Trazado_22" data-name="Trazado 22" d="M42.283,68.992c.041-.231.123-.356.232-.356s.191.069.369.425l3.732,7.711,3.719-7.806c.109-.221.178-.33.3-.33s.2.138.246.425l1.244,8.451c.124.861.261,1.255.67,1.379a2.721,2.721,0,0,0,.847.139c.123,0,.219.014.219.095,0,.109-.165.15-.356.15-.342,0-2.228-.041-2.775-.082-.315-.028-.4-.068-.4-.149s.055-.11.15-.152.124-.205.069-.588l-.821-6.016H49.68L46.7,78.494c-.314.642-.383.767-.5.767s-.261-.275-.479-.684c-.328-.629-1.408-2.722-1.574-3.1-.122-.289-.942-2.012-1.42-3.037h-.055l-.711,5.441a5.348,5.348,0,0,0-.041.643c0,.259.178.383.41.44a2.745,2.745,0,0,0,.575.068c.109,0,.2.024.2.095,0,.121-.123.15-.328.15-.575,0-1.19-.041-1.435-.041s-.916.041-1.355.041c-.136,0-.245-.029-.245-.15,0-.07.083-.095.218-.095a1.664,1.664,0,0,0,.41-.043c.382-.081.492-.614.56-1.079Z" transform="translate(-18.256 -31.53)" fill="#fff"/>
    <path id="Trazado_23" data-name="Trazado 23" d="M68.868,73.159c0-2.078,0-2.461-.028-2.9-.026-.465-.164-.7-.465-.767a1.968,1.968,0,0,0-.491-.055c-.136,0-.22-.026-.22-.136,0-.081.11-.11.33-.11.52,0,1.38.042,1.776.042.342,0,1.147-.042,1.668-.042.178,0,.287.029.287.11,0,.11-.081.136-.218.136a2.376,2.376,0,0,0-.411.042c-.369.068-.477.3-.5.78-.028.437-.028.82-.028,2.9v2.406c0,1.327,0,2.407.055,2.993.041.371.137.617.547.67a5.713,5.713,0,0,0,.7.057c.151,0,.221.038.221.107,0,.1-.11.138-.26.138-.9,0-1.765-.041-2.134-.041-.315,0-1.174.041-1.723.041-.178,0-.272-.041-.272-.138,0-.069.056-.107.218-.107a2.191,2.191,0,0,0,.493-.057c.273-.054.355-.287.4-.681.069-.575.069-1.656.069-2.983Z" transform="translate(-31.084 -31.786)" fill="#fff"/>
    <path id="Trazado_24" data-name="Trazado 24" d="M79.714,79.2c-.221-.1-.262-.164-.262-.465,0-.751.056-1.572.07-1.791s.055-.355.162-.355c.124,0,.138.121.138.231a2.923,2.923,0,0,0,.123.7A1.884,1.884,0,0,0,81.9,78.9a1.661,1.661,0,0,0,1.833-1.557c0-.669-.2-1.3-1.34-2.188l-.628-.493c-1.505-1.175-2.025-2.133-2.025-3.241,0-1.5,1.259-2.584,3.159-2.584a6.628,6.628,0,0,1,1.817.234c.124.026.193.068.193.164,0,.177-.055.575-.055,1.64,0,.3-.041.411-.149.411s-.137-.083-.137-.245a1.674,1.674,0,0,0-.356-.9,1.737,1.737,0,0,0-1.491-.669,1.44,1.44,0,0,0-1.628,1.408c0,.63.315,1.109,1.45,1.969l.383.287c1.654,1.245,2.242,2.189,2.242,3.486A2.758,2.758,0,0,1,83.883,79a3.954,3.954,0,0,1-2.173.561,4.75,4.75,0,0,1-2-.356" transform="translate(-36.499 -31.624)" fill="#fff"/>
    <path id="Trazado_25" data-name="Trazado 25" d="M95.024,73.159c0-2.078,0-2.461-.028-2.9-.026-.465-.163-.7-.464-.767a1.98,1.98,0,0,0-.492-.055c-.138,0-.219-.026-.219-.136,0-.081.109-.11.329-.11.518,0,1.38.042,1.777.042.342,0,1.149-.042,1.668-.042.177,0,.287.029.287.11,0,.11-.081.136-.218.136a2.349,2.349,0,0,0-.41.042c-.369.068-.478.3-.507.78-.026.437-.026.82-.026,2.9v2.406c0,1.327,0,2.407.055,2.993.041.371.137.617.547.67a5.713,5.713,0,0,0,.7.057c.151,0,.221.038.221.107,0,.1-.11.138-.26.138-.9,0-1.765-.041-2.134-.041-.315,0-1.176.041-1.722.041-.177,0-.274-.041-.274-.138,0-.069.054-.107.219-.107a2.195,2.195,0,0,0,.491-.057c.275-.054.356-.287.4-.681.068-.575.068-1.656.068-2.983Z" transform="translate(-43.1 -31.786)" fill="#fff"/>
    <path id="Trazado_26" data-name="Trazado 26" d="M104.47,71.678a5.265,5.265,0,0,1,5.646-5.36c3.406,0,5.525,1.984,5.525,5.115a5.4,5.4,0,0,1-5.66,5.605,5.209,5.209,0,0,1-5.51-5.36m9.256.259c0-3.062-1.763-4.962-4-4.962-1.573,0-3.365.875-3.365,4.281,0,2.842,1.573,5.1,4.2,5.1.959,0,3.171-.465,3.171-4.417m-1.407-7.6c.082.164,0,.2-.069.2a2.333,2.333,0,0,0-.465,0,8.25,8.25,0,0,0-2.337.808,1.24,1.24,0,0,1-.235.108.086.086,0,0,1-.08-.082c0-.052.054-.108.123-.177a25.68,25.68,0,0,1,2.2-1.722.562.562,0,0,1,.272-.122c.1,0,.123.04.191.163.11.191.232.451.4.821" transform="translate(-47.992 -29.103)" fill="#fff"/>
    <path id="Trazado_27" data-name="Trazado 27" d="M129.83,77.474c.029,1.065.206,1.423.48,1.517a2.167,2.167,0,0,0,.71.1c.151,0,.232.024.232.106,0,.109-.122.138-.314.138-.889,0-1.436-.041-1.7-.041-.123,0-.766.041-1.477.041-.178,0-.3-.014-.3-.138,0-.082.082-.106.218-.106a2.507,2.507,0,0,0,.616-.068c.356-.11.41-.507.424-1.7l.123-8.094c0-.274.041-.464.177-.464.151,0,.275.178.507.424.163.177,2.241,2.4,4.237,4.388.932.93,2.777,2.9,3.008,3.118h.07l-.137-6.139c-.013-.835-.137-1.094-.465-1.229a2.173,2.173,0,0,0-.725-.084c-.162,0-.218-.04-.218-.122,0-.109.151-.124.355-.124.711,0,1.368.042,1.655.042.15,0,.67-.042,1.34-.042.178,0,.314.015.314.124,0,.082-.081.122-.246.122a1.439,1.439,0,0,0-.409.042c-.384.109-.492.4-.506,1.161l-.15,8.629c0,.3-.055.423-.178.423-.151,0-.315-.149-.465-.3-.862-.819-2.612-2.611-4.033-4.019-1.491-1.476-3.009-3.185-3.254-3.444h-.042Z" transform="translate(-58.556 -31.59)" fill="#fff"/>
    <path id="Trazado_28" data-name="Trazado 28" d="M160.743,68.992c.04-.231.123-.356.232-.356s.191.069.369.425l3.732,7.711,3.719-7.806c.11-.221.18-.33.3-.33s.2.138.245.425l1.245,8.451c.123.861.259,1.255.67,1.379a2.707,2.707,0,0,0,.848.139c.122,0,.219.014.219.095,0,.109-.164.15-.356.15-.343,0-2.229-.041-2.775-.082-.316-.028-.4-.068-.4-.149s.056-.11.15-.152.125-.205.07-.588l-.821-6.016h-.056l-2.981,6.207c-.315.642-.382.767-.506.767s-.259-.275-.477-.684c-.329-.629-1.409-2.722-1.573-3.1-.123-.289-.944-2.012-1.422-3.037h-.055l-.711,5.441a5.331,5.331,0,0,0-.039.643c0,.259.177.383.408.44a2.76,2.76,0,0,0,.575.068c.109,0,.2.024.2.095,0,.121-.122.15-.328.15-.573,0-1.19-.041-1.435-.041s-.915.041-1.353.041c-.137,0-.246-.029-.246-.15,0-.07.082-.095.218-.095a1.667,1.667,0,0,0,.41-.043c.384-.081.492-.614.562-1.079Z" transform="translate(-72.675 -31.53)" fill="#fff"/>
    <path id="Trazado_29" data-name="Trazado 29" d="M185.468,74.2a5.266,5.266,0,0,1,5.647-5.36c3.406,0,5.524,1.984,5.524,5.115a5.405,5.405,0,0,1-5.66,5.606,5.208,5.208,0,0,1-5.51-5.36m9.256.259c0-3.062-1.763-4.962-4.006-4.962-1.572,0-3.364.875-3.364,4.281,0,2.842,1.573,5.1,4.2,5.1.958,0,3.172-.465,3.172-4.417" transform="translate(-85.201 -31.624)" fill="#fff"/>
    <path id="Trazado_30" data-name="Trazado 30" d="M210.613,78.068a5.412,5.412,0,0,1-.1-7.778,5.958,5.958,0,0,1,4.321-1.451,13.342,13.342,0,0,1,1.983.139c.518.067.955.189,1.367.23.15.015.205.084.205.165,0,.11-.041.272-.07.751-.027.453-.012,1.2-.041,1.478-.014.2-.041.314-.164.314s-.137-.11-.137-.3a1.958,1.958,0,0,0-.533-1.259,4.076,4.076,0,0,0-2.777-.848,3.566,3.566,0,0,0-2.57.848,5.11,5.11,0,0,0,3.05,8.409,2.967,2.967,0,0,0,2.5-.766,2.273,2.273,0,0,0,.464-.9c.041-.217.069-.273.178-.273s.124.1.124.205a12.964,12.964,0,0,1-.3,1.818.482.482,0,0,1-.355.4,7.921,7.921,0,0,1-2.461.316,6.843,6.843,0,0,1-4.69-1.491" transform="translate(-95.974 -31.624)" fill="#fff"/>
    <path id="Trazado_31" data-name="Trazado 31" d="M229.154,74.2a5.267,5.267,0,0,1,5.646-5.36c3.406,0,5.525,1.984,5.525,5.115a5.405,5.405,0,0,1-5.659,5.606,5.209,5.209,0,0,1-5.512-5.36m9.256.259c0-3.062-1.763-4.962-4.007-4.962-1.572,0-3.364.875-3.364,4.281,0,2.842,1.574,5.1,4.2,5.1.958,0,3.172-.465,3.172-4.417" transform="translate(-105.27 -31.624)" fill="#fff"/>
    <path id="Trazado_32" data-name="Trazado 32" d="M254.514,77.474c.029,1.065.207,1.423.479,1.517a2.175,2.175,0,0,0,.711.1c.151,0,.232.024.232.106,0,.109-.122.138-.314.138-.889,0-1.435-.041-1.7-.041-.123,0-.765.041-1.478.041-.177,0-.3-.014-.3-.138,0-.082.081-.106.217-.106a2.519,2.519,0,0,0,.617-.068c.355-.11.409-.507.424-1.7l.123-8.094c0-.274.039-.464.178-.464s.272.178.506.424c.163.177,2.241,2.4,4.238,4.388.929.93,2.776,2.9,3.007,3.118h.068l-.136-6.139c-.016-.835-.138-1.094-.466-1.229a2.171,2.171,0,0,0-.725-.084c-.163,0-.219-.04-.219-.122,0-.109.151-.124.356-.124.713,0,1.368.042,1.656.042.148,0,.669-.042,1.339-.042.177,0,.314.015.314.124,0,.082-.081.122-.246.122a1.439,1.439,0,0,0-.408.042c-.384.109-.492.4-.506,1.161l-.152,8.629c0,.3-.055.423-.177.423-.151,0-.315-.149-.465-.3-.863-.819-2.613-2.611-4.034-4.019-1.49-1.476-3.008-3.185-3.254-3.444h-.041Z" transform="translate(-115.834 -31.59)" fill="#fff"/>
    <path id="Trazado_33" data-name="Trazado 33" d="M276.96,73.279c-.068,0-.1.027-.123.109l-.738,1.955a2.614,2.614,0,0,0-.206.834c0,.247.123.425.546.425h.206c.164,0,.205.024.205.106,0,.11-.081.139-.232.139-.438,0-1.026-.041-1.449-.041-.149,0-.9.041-1.614.041-.177,0-.26-.029-.26-.139,0-.082.055-.106.165-.106a3.91,3.91,0,0,0,.424-.029c.629-.081.888-.545,1.161-1.229l3.432-8.587c.165-.4.246-.547.383-.547s.205.124.342.438c.328.753,2.515,6.331,3.39,8.408.52,1.232.916,1.423,1.2,1.49a2.955,2.955,0,0,0,.574.056c.109,0,.178.014.178.106,0,.11-.123.139-.628.139s-1.491,0-2.585-.029c-.245-.012-.41-.012-.41-.11,0-.082.055-.106.192-.121a.224.224,0,0,0,.123-.315l-1.093-2.9a.132.132,0,0,0-.137-.095Zm2.788-.685c.069,0,.084-.039.069-.081l-1.23-3.377c-.014-.055-.027-.124-.067-.124s-.069.069-.083.124L277.179,72.5c-.015.057,0,.1.055.1Zm1.478-8.257c.081.164,0,.2-.069.2a2.33,2.33,0,0,0-.465,0,8.252,8.252,0,0,0-2.338.808,1.279,1.279,0,0,1-.232.108.087.087,0,0,1-.082-.082c0-.052.055-.108.123-.177a26.209,26.209,0,0,1,2.2-1.722.572.572,0,0,1,.274-.122c.1,0,.123.04.191.163.11.191.232.451.4.821" transform="translate(-125.548 -29.103)" fill="#fff"/>
  </g>
</svg>
