<svg id="brazil-" xmlns="http://www.w3.org/2000/svg" width="22" height="22" viewBox="0 0 22 22">
  <circle id="Elipse_8" data-name="Elipse 8" cx="11" cy="11" r="11" fill="#6da544"/>
  <path id="Trazado_543" data-name="Trazado 543" d="M53.595,100.174l9.073,6.685-9.073,6.685-9.073-6.685Z" transform="translate(-42.612 -95.876)" fill="#ffda44"/>
  <circle id="Elipse_9" data-name="Elipse 9" cx="3.82" cy="3.82" r="3.82" transform="translate(7.163 7.163)" fill="#f0f0f0"/>
  <g id="Grupo_458" data-name="Grupo 458" transform="translate(7.164 7.163)">
    <path id="Trazado_544" data-name="Trazado 544" d="M168.894,250.435a6.423,6.423,0,0,0-1.909.289,3.819,3.819,0,0,0,6.947,2.141A6.437,6.437,0,0,0,168.894,250.435Z" transform="translate(-166.985 -246.854)" fill="#0052b4"/>
    <path id="Trazado_545" data-name="Trazado 545" d="M181.435,171.509a3.82,3.82,0,0,0-7.26-2.24,7.874,7.874,0,0,1,7.26,2.24Z" transform="translate(-173.867 -166.957)" fill="#0052b4"/>
  </g>
</svg>
