<svg xmlns="http://www.w3.org/2000/svg" width="20" height="14.115" viewBox="0 0 20 14.115">
  <g id="Grupo_312" data-name="Grupo 312" transform="translate(-2.862 -5.281)">
    <path id="Trazado_499" data-name="Trazado 499" d="M5.9,19.4a.49.49,0,0,1-.5-.5v-1H4.862a1.97,1.97,0,0,1-2-2v-5A1.8,1.8,0,0,1,3.5,9.416,2.117,2.117,0,0,1,4.862,8.9V7.281a1.971,1.971,0,0,1,2-2h12a1.97,1.97,0,0,1,2,2V8.9a2.007,2.007,0,0,1,1.4.548,1.878,1.878,0,0,1,.6,1.452v5a1.97,1.97,0,0,1-2,2h-.538v1a.526.526,0,0,1-.124.356.422.422,0,0,1-.337.144.491.491,0,0,1-.5-.5v-1H6.4v1a.491.491,0,0,1-.5.5ZM4.862,16.9h16a.982.982,0,0,0,1-1v-5a1,1,0,1,0-2,0v3.5h-14V10.9a.982.982,0,0,0-1-1,.982.982,0,0,0-1,1v5a.982.982,0,0,0,1,1Zm2-3.5h12V10.9a1.883,1.883,0,0,1,.275-.994,1.952,1.952,0,0,1,.725-.706V7.281a.982.982,0,0,0-1-1h-12a.982.982,0,0,0-1,1V9.2a1.952,1.952,0,0,1,.725.706,1.883,1.883,0,0,1,.275.994Z" fill="#1c1b1f"/>
  </g>
</svg>
