<svg xmlns="http://www.w3.org/2000/svg" width="19.5" height="11.192" viewBox="0 0 19.5 11.192">
  <g id="Grupo_382" data-name="Grupo 382" transform="translate(-32.25 -39)">
    <path id="Trazado_515" data-name="Trazado 515" d="M36.365,50.192A2.183,2.183,0,0,1,34.173,48h-.308a1.62,1.62,0,0,1-1.615-1.615V40a1,1,0,0,1,1-1H45.694a1.565,1.565,0,0,1,.595.115,1.518,1.518,0,0,1,.5.326l4.465,4.2a1.5,1.5,0,0,1,.367.524,1.629,1.629,0,0,1,.131.645v1.579A1.62,1.62,0,0,1,50.135,48a2.192,2.192,0,1,1-4.385,0H38.558a2.191,2.191,0,0,1-2.192,2.192Zm7.885-6.615h5.461l-3.635-3.4a.954.954,0,0,0-.2-.125A.528.528,0,0,0,45.654,40h-1.4Zm-5.5,0h4.5V40h-4.5Zm-5.5,0h4.5V40h-4.5Zm3.115,5.673a1.238,1.238,0,1,0-.887-.362A1.207,1.207,0,0,0,36.365,49.25Zm11.577,0a1.238,1.238,0,1,0-.888-.362A1.207,1.207,0,0,0,47.942,49.25ZM33.865,47h.569a2.18,2.18,0,0,1,.735-.821,2.137,2.137,0,0,1,2.363-.029A2.407,2.407,0,0,1,38.3,47h7.715a2.18,2.18,0,0,1,.735-.821,2.137,2.137,0,0,1,2.363-.029,2.407,2.407,0,0,1,.764.85h.262a.593.593,0,0,0,.615-.615V45.192a3.111,3.111,0,0,0-.019-.4.317.317,0,0,0-.115-.212H33.25v1.808a.593.593,0,0,0,.615.615Z" fill="#1c1b1f"/>
  </g>
</svg>
