<svg xmlns="http://www.w3.org/2000/svg" width="15.542" height="13.692" viewBox="0 0 15.542 13.692">
  <g id="Grupo_368" data-name="Grupo 368" transform="translate(-4.806 -5.165)">
    <path id="Trazado_512" data-name="Trazado 512" d="M12.577,18.858a2.853,2.853,0,0,1-2.017-4.863,2.869,2.869,0,0,1,4.035,0,2.846,2.846,0,0,1-2.017,4.863Zm0-1a1.768,1.768,0,0,0,1.3-.544,1.788,1.788,0,0,0,.54-1.307,1.768,1.768,0,0,0-.544-1.3,1.789,1.789,0,0,0-1.307-.539,1.768,1.768,0,0,0-1.3.543,1.788,1.788,0,0,0-.539,1.307,1.768,1.768,0,0,0,.543,1.3A1.788,1.788,0,0,0,12.581,17.858ZM5.531,9.073l-.725-.7a11.633,11.633,0,0,1,3.46-2.34,10.529,10.529,0,0,1,4.312-.865,10.53,10.53,0,0,1,4.312.865,11.634,11.634,0,0,1,3.46,2.34l-.725.7a10.231,10.231,0,0,0-3.2-2.137,9.97,9.97,0,0,0-7.685,0A10.231,10.231,0,0,0,5.531,9.073Zm11.25,2.79a6.191,6.191,0,0,0-1.929-1.276,5.958,5.958,0,0,0-2.275-.422,5.864,5.864,0,0,0-2.262.422,6.543,6.543,0,0,0-1.941,1.276l-.725-.7a8,8,0,0,1,2.3-1.488,7.058,7.058,0,0,1,5.257,0,8.016,8.016,0,0,1,2.3,1.488Z" fill="#1c1b1f"/>
  </g>
</svg>
