<svg xmlns="http://www.w3.org/2000/svg" xmlns:xlink="http://www.w3.org/1999/xlink" width="50" height="50" viewBox="0 0 50 50">
  <defs>
    <filter id="Elipse_6" x="0" y="0" width="50" height="50" filterUnits="userSpaceOnUse">
      <feOffset dy="3" input="SourceAlpha"/>
      <feGaussianBlur stdDeviation="3" result="blur"/>
      <feFlood flood-opacity="0.161"/>
      <feComposite operator="in" in2="blur"/>
      <feComposite in="SourceGraphic"/>
    </filter>
  </defs>
  <g id="Grupo_433" data-name="Grupo 433" transform="translate(-25.131 -1124)">
    <g transform="matrix(1, 0, 0, 1, 25.13, 1124)" filter="url(#Elipse_6)">
      <g id="Elipse_6-2" data-name="Elipse 6" transform="translate(9 6)" fill="#fff" stroke="#fff" stroke-width="1">
        <circle cx="16" cy="16" r="16" stroke="none"/>
        <circle cx="16" cy="16" r="15.5" fill="none"/>
      </g>
    </g>
    <g id="Grupo_420" data-name="Grupo 420" transform="translate(47.748 1140.669)">
      <path id="Trazado_521" data-name="Trazado 521" d="M7.46,14.413a.446.446,0,0,1,0-.633l4.588-4.588-4.6-4.6a.414.414,0,0,1-.128-.3.441.441,0,0,1,.143-.318.446.446,0,0,1,.633,0l4.884,4.887a.467.467,0,0,1,.109.159.516.516,0,0,1,0,.355.467.467,0,0,1-.109.159l-4.9,4.9a.413.413,0,0,1-.3.128A.439.439,0,0,1,7.46,14.413Z" transform="translate(-7.317 -3.837)" fill="#1c1b1f"/>
    </g>
  </g>
</svg>
