<svg xmlns="http://www.w3.org/2000/svg" width="14" height="17.654" viewBox="0 0 14 17.654">
  <g id="Grupo_331" data-name="Grupo 331" transform="translate(-170 -1115)">
    <g id="Grupo_327" data-name="Grupo 327" transform="translate(165 1111.812)">
      <path id="Trazado_505" data-name="Trazado 505" d="M11.465,14.5h1.069a.416.416,0,0,0,.318-.151.339.339,0,0,0,.086-.333l-.475-2.606a1.5,1.5,0,0,0,.73-.545,1.481,1.481,0,1,0-2.387,0,1.5,1.5,0,0,0,.73.545l-.475,2.606a.339.339,0,0,0,.086.333A.416.416,0,0,0,11.465,14.5ZM12,20.842a1.753,1.753,0,0,1-.287-.025,1.466,1.466,0,0,1-.281-.075A9.488,9.488,0,0,1,6.74,16.926,10.525,10.525,0,0,1,5,11.1V6.817a1.56,1.56,0,0,1,.293-.926,1.672,1.672,0,0,1,.757-.6l5.385-2a1.564,1.564,0,0,1,1.131,0l5.385,2a1.672,1.672,0,0,1,.757.6A1.56,1.56,0,0,1,19,6.817V11.1a10.525,10.525,0,0,1-1.74,5.826,9.487,9.487,0,0,1-4.692,3.816,1.466,1.466,0,0,1-.281.075A1.753,1.753,0,0,1,12,20.842Zm0-.942a8.138,8.138,0,0,0,4.3-3.3A9.5,9.5,0,0,0,18,11.1V6.8a.6.6,0,0,0-.106-.346.638.638,0,0,0-.3-.231l-5.385-2a.6.6,0,0,0-.423,0l-5.385,2a.638.638,0,0,0-.3.231A.6.6,0,0,0,6,6.8v4.3a9.5,9.5,0,0,0,1.7,5.5A8.138,8.138,0,0,0,12,19.9Z" fill="#1c1b1f"/>
    </g>
  </g>
</svg>
