<svg xmlns="http://www.w3.org/2000/svg" width="18" height="12.332" viewBox="0 0 18 12.332">
  <g id="Grupo_367" data-name="Grupo 367" transform="translate(-3 -5.831)">
    <path id="Trazado_511" data-name="Trazado 511" d="M12,13a1.022,1.022,0,1,1,.7-.3A.96.96,0,0,1,12,13ZM5.288,18a9.236,9.236,0,0,1-1.679-2.73A8.728,8.728,0,0,1,3,12a8.721,8.721,0,0,1,.61-3.271A9.246,9.246,0,0,1,5.288,6a.427.427,0,0,1,.341-.171A.508.508,0,0,1,6,6a.486.486,0,0,1,.146.341.57.57,0,0,1-.135.378A8.253,8.253,0,0,0,4.537,9.122,7.686,7.686,0,0,0,4,12a7.8,7.8,0,0,0,.534,2.887A7.914,7.914,0,0,0,6,17.285a.622.622,0,0,1,.147.368.474.474,0,0,1-.159.357.506.506,0,0,1-.354.153A.414.414,0,0,1,5.288,18Zm2.831-2.831A5.165,5.165,0,0,1,7.3,13.706a5.062,5.062,0,0,1,0-3.417,5.061,5.061,0,0,1,.822-1.462.4.4,0,0,1,.33-.174.552.552,0,0,1,.525.51.589.589,0,0,1-.116.384,4.323,4.323,0,0,0-.624,1.136,3.836,3.836,0,0,0,0,2.637,4.324,4.324,0,0,0,.624,1.136.613.613,0,0,1,.123.377.513.513,0,0,1-.165.354.487.487,0,0,1-.366.16A.412.412,0,0,1,8.119,15.167Zm7.06.012a.512.512,0,0,1-.153-.341.588.588,0,0,1,.116-.384,4.321,4.321,0,0,0,.624-1.136,3.835,3.835,0,0,0,0-2.637,4.32,4.32,0,0,0-.624-1.136.613.613,0,0,1-.123-.377.514.514,0,0,1,.165-.354.5.5,0,0,1,.366-.163.4.4,0,0,1,.33.174,5.061,5.061,0,0,1,.822,1.462,5.062,5.062,0,0,1,0,3.417,5.166,5.166,0,0,1-.822,1.462.407.407,0,0,1-.333.174A.5.5,0,0,1,15.179,15.179ZM18.01,18.01a.5.5,0,0,1-.149-.344.561.561,0,0,1,.132-.381,8.253,8.253,0,0,0,1.471-2.407,8.007,8.007,0,0,0,0-5.756A8.2,8.2,0,0,0,18,6.715a.622.622,0,0,1-.147-.368.474.474,0,0,1,.159-.357.507.507,0,0,1,.354-.153A.414.414,0,0,1,18.712,6,9.244,9.244,0,0,1,20.39,8.729,8.721,8.721,0,0,1,21,12a8.728,8.728,0,0,1-.61,3.268A9.235,9.235,0,0,1,18.712,18a.414.414,0,0,1-.348.164A.507.507,0,0,1,18.01,18.01Z" fill="#1c1b1f"/>
  </g>
</svg>
