<svg xmlns="http://www.w3.org/2000/svg" width="12" height="15.846" viewBox="0 0 12 15.846">
  <g id="Grupo_337" data-name="Grupo 337" transform="translate(-6 -4)">
    <path id="Trazado_509" data-name="Trazado 509" d="M8.076,16.923a.755.755,0,1,1,.549-.22A.742.742,0,0,1,8.076,16.923Zm3.923,0a.755.755,0,1,1,.549-.22A.741.741,0,0,1,12,16.923Zm3.923,0a.755.755,0,1,1,.549-.22A.742.742,0,0,1,15.922,16.923ZM6.808,13A.793.793,0,0,1,6,12.192v-.231A5.7,5.7,0,0,1,7.594,7.91,5.883,5.883,0,0,1,11.5,6.023V4.5a.5.5,0,1,1,1,0V6.023A5.883,5.883,0,0,1,16.406,7.91,5.7,5.7,0,0,1,18,11.962v.231a.818.818,0,0,1-.808.808ZM7,12H17a4.993,4.993,0,0,0-5-5,4.993,4.993,0,0,0-5,5Zm1.076,7.846a.755.755,0,1,1,.549-.22A.741.741,0,0,1,8.076,19.846Zm3.923,0a.755.755,0,1,1,.549-.22A.741.741,0,0,1,12,19.846Zm3.923,0a.755.755,0,1,1,.549-.22A.741.741,0,0,1,15.922,19.846Z" fill="#1c1b1f"/>
  </g>
</svg>
