<svg xmlns="http://www.w3.org/2000/svg" width="28" height="28" viewBox="0 0 28 28">
  <g id="Grupo_23" data-name="Grupo 23" transform="translate(-493 -1395)">
    <circle id="Elipse_4" data-name="Elipse 4" cx="14" cy="14" r="14" transform="translate(493 1395)" fill="#fff"/>
    <path id="Trazado_68" data-name="Trazado 68" d="M8.291,13.969l.041.024L8.349,14a.443.443,0,0,0,.421,0l.017-.009.041-.024c.035-.02.086-.05.149-.089.127-.078.305-.193.518-.343a11.415,11.415,0,0,0,1.564-1.33A7.426,7.426,0,0,0,13.37,7.06a4.81,4.81,0,1,0-9.62,0,7.426,7.426,0,0,0,2.311,5.146,11.415,11.415,0,0,0,1.564,1.33c.213.151.392.266.518.343C8.206,13.919,8.256,13.948,8.291,13.969Zm.268-5.16A1.749,1.749,0,1,0,6.811,7.06,1.749,1.749,0,0,0,8.56,8.809Z" transform="translate(498.578 1400.912)" fill="#464646" fill-rule="evenodd"/>
  </g>
</svg>
