<svg id="Grupo_242" data-name="Grupo 242" xmlns="http://www.w3.org/2000/svg" xmlns:xlink="http://www.w3.org/1999/xlink" width="177" height="110.331" viewBox="0 0 177 110.331">
  <defs>
    <clipPath id="clip-path">
      <rect id="Rectángulo_269" data-name="Rectángulo 269" width="177" height="110.331" fill="none"/>
    </clipPath>
  </defs>
  <path id="Trazado_322" data-name="Trazado 322" d="M249.74,151.308h17.026l15.442-25.321,12.746,25.321,43.826-.34-1.57-21.2-18.1-20.155-24.591-6.666-19.65,7.042-20.614,15.531Z" transform="translate(-209.809 -86.483)" fill="#452819"/>
  <g id="Grupo_241" data-name="Grupo 241">
    <g id="Grupo_240" data-name="Grupo 240" clip-path="url(#clip-path)">
      <path id="Trazado_323" data-name="Trazado 323" d="M1.891,494.876c0-2.845,0-3.369-.038-3.968-.037-.636-.187-.936-.8-1.067a3.835,3.835,0,0,0-.73-.056c-.206,0-.318-.037-.318-.169s.131-.168.412-.168c.992,0,2.172.056,2.565.056.636,0,2.059-.056,2.639-.056a5.983,5.983,0,0,1,3.444.8,3.243,3.243,0,0,1,1.273,2.564c0,1.385-.561,2.639-2.452,4.174,1.666,2.1,2.958,3.781,4.062,4.942a3.706,3.706,0,0,0,2.078,1.273,2.952,2.952,0,0,0,.524.056c.15,0,.225.056.225.15,0,.15-.131.187-.356.187H12.579a3.809,3.809,0,0,1-2-.356,9.026,9.026,0,0,1-2.564-2.752c-.749-1.029-1.61-2.3-1.853-2.583a.391.391,0,0,0-.337-.131l-1.572-.037c-.094,0-.15.037-.15.15v.262c0,1.741,0,3.219.094,4.006.056.543.169.955.73,1.03a8.618,8.618,0,0,0,.917.075c.15,0,.224.056.224.15,0,.131-.131.187-.374.187-1.086,0-2.471-.056-2.752-.056-.355,0-1.535.056-2.284.056-.243,0-.374-.056-.374-.187,0-.094.075-.15.3-.15a3.057,3.057,0,0,0,.674-.075c.374-.075.468-.487.543-1.03.094-.786.094-2.265.094-3.987ZM4.1,496.355c0,.206.037.281.169.337a4.933,4.933,0,0,0,1.423.187,1.872,1.872,0,0,0,1.329-.318,3.3,3.3,0,0,0,1.1-2.808c0-2.658-1.76-3.425-2.864-3.425a4.112,4.112,0,0,0-.992.075c-.131.038-.169.112-.169.262Z" transform="translate(0 -411.188)" fill="#452819"/>
      <path id="Trazado_324" data-name="Trazado 324" d="M89.428,506.593c0-2.433,0-2.864-.037-3.388s-.169-.73-.674-.842a5.4,5.4,0,0,0-.637-.056q-.281,0-.281-.168c0-.112.112-.15.374-.15.786,0,1.535.056,2.359.056.505,0,3.931,0,4.23-.019.318-.038.6-.075.749-.094a1.9,1.9,0,0,1,.262-.075c.094,0,.112.075.112.15a6.413,6.413,0,0,0-.15,1.011c-.019.3-.037.618-.075,1.1,0,.094-.037.262-.187.262-.113,0-.15-.094-.169-.3a1.322,1.322,0,0,0-.094-.524c-.112-.3-.262-.468-1.067-.562-.318-.037-2-.075-2.377-.075q-.112,0-.112.168v3.875c0,.112.019.169.112.169.393,0,2.19,0,2.6-.019.468-.037.711-.094.861-.262.112-.15.187-.206.262-.206s.112.037.112.131c0,.112-.075.468-.131,1.235,0,.318-.056.992-.056,1.123s-.019.3-.169.3c-.112,0-.168-.169-.168-.262-.019-.15-.019-.243-.056-.43-.094-.356-.281-.6-.936-.655-.337-.037-1.909-.056-2.321-.056-.094,0-.112.075-.112.168v1.217c0,.543-.019,1.853,0,2.34.037,1.1.281,1.348,2,1.348a4.274,4.274,0,0,0,1.535-.187c.43-.206.618-.524.749-1.2.037-.169.075-.262.206-.262s.131.15.131.318a11.4,11.4,0,0,1-.225,1.872c-.112.412-.262.412-.88.412-1.628,0-3.032-.094-4.7-.094-.674,0-1.348.056-2.134.056q-.337,0-.337-.169c0-.075.056-.168.281-.168a4.355,4.355,0,0,0,.58-.056c.337-.075.431-.431.487-.992.075-.655.075-1.872.075-3.238Z" transform="translate(-73.76 -421.613)" fill="#452819"/>
      <path id="Trazado_325" data-name="Trazado 325" d="M156.25,513.326c-.262-.112-.318-.225-.318-.543,0-.955.056-1.891.075-2.171.019-.262.075-.412.206-.412.15,0,.168.131.187.262a2.9,2.9,0,0,0,.112.749,2.358,2.358,0,0,0,2.433,1.722c1.5,0,2.171-.917,2.171-1.741,0-.749-.225-1.46-1.61-2.471l-.786-.6c-1.853-1.4-2.452-2.471-2.452-3.781,0-1.759,1.516-3.07,3.856-3.07a8.982,8.982,0,0,1,1.666.168c.262.037.487.094.674.112.15.019.187.094.187.206,0,.262-.075.711-.075,1.984,0,.356-.056.487-.187.487-.112,0-.168-.112-.187-.318a2.418,2.418,0,0,0-.374-1.011,2.031,2.031,0,0,0-1.872-.843c-1.236,0-1.947.674-1.947,1.591,0,.692.337,1.31,1.684,2.227l.524.356c2.1,1.423,2.77,2.527,2.77,4.043a3.255,3.255,0,0,1-1.61,2.826,5.11,5.11,0,0,1-2.658.636,6.1,6.1,0,0,1-2.471-.412" transform="translate(-130.999 -421.122)" fill="#452819"/>
      <path id="Trazado_326" data-name="Trazado 326" d="M213.167,506.593c0-2.433,0-2.864-.037-3.388s-.169-.73-.674-.842a5.4,5.4,0,0,0-.637-.056q-.281,0-.281-.168c0-.112.112-.15.374-.15.786,0,1.535.056,2.359.056.505,0,3.931,0,4.23-.019.318-.038.6-.075.749-.094a1.9,1.9,0,0,1,.262-.075c.094,0,.112.075.112.15a6.413,6.413,0,0,0-.15,1.011c-.019.3-.037.618-.075,1.1,0,.094-.037.262-.187.262-.113,0-.15-.094-.169-.3a1.322,1.322,0,0,0-.094-.524c-.112-.3-.262-.468-1.067-.562-.318-.037-2-.075-2.377-.075q-.112,0-.112.168v3.875c0,.112.019.169.112.169.393,0,2.19,0,2.6-.019.468-.037.711-.094.861-.262.112-.15.187-.206.262-.206s.112.037.112.131c0,.112-.075.468-.131,1.235,0,.318-.056.992-.056,1.123s-.019.3-.169.3c-.112,0-.168-.169-.168-.262-.019-.15-.019-.243-.056-.43-.094-.356-.281-.6-.936-.655-.337-.037-1.909-.056-2.321-.056-.094,0-.112.075-.112.168v1.217c0,.543-.019,1.853,0,2.34.037,1.1.281,1.348,2,1.348a4.274,4.274,0,0,0,1.535-.187c.43-.206.618-.524.749-1.2.037-.169.075-.262.206-.262s.131.15.131.318a11.4,11.4,0,0,1-.225,1.872c-.112.412-.262.412-.88.412-1.628,0-3.032-.094-4.7-.094-.674,0-1.348.056-2.134.056q-.337,0-.337-.169c0-.075.056-.168.281-.168a4.356,4.356,0,0,0,.58-.056c.337-.075.431-.431.487-.992.075-.655.075-1.872.075-3.238Z" transform="translate(-177.714 -421.613)" fill="#452819"/>
      <path id="Trazado_327" data-name="Trazado 327" d="M277.339,507.282c0-2.433,0-2.789-.037-3.294-.037-.562-.187-.8-.693-.9-.206-.037-.43-.056-.636-.075q-.281,0-.281-.169c0-.112.112-.168.355-.168.842,0,1.984.056,2.3.056.505,0,1.834-.056,2.4-.056a5.673,5.673,0,0,1,3.07.655,2.742,2.742,0,0,1,1.217,2.227c0,1.2-.562,2.265-2.19,3.482,1.385,1.722,2.546,3.2,3.519,4.193a3.121,3.121,0,0,0,1.816,1.1c.168.019.3.019.43.038.15,0,.225.075.225.15,0,.131-.112.187-.318.187h-1.572a3.948,3.948,0,0,1-2.021-.356,7.615,7.615,0,0,1-2.134-2.265c-.674-.936-1.366-1.928-1.61-2.209a.3.3,0,0,0-.262-.094l-1.329-.037a.118.118,0,0,0-.131.131v.337c0,1.441,0,2.546.075,3.2.037.468.15.824.655.88a5.571,5.571,0,0,0,.786.075c.15,0,.206.075.206.15,0,.112-.112.187-.318.187-.992,0-2.3-.056-2.546-.056-.281,0-1.422.056-2.078.056-.206,0-.318-.056-.318-.168,0-.075.075-.169.262-.169a4.33,4.33,0,0,0,.6-.056c.318-.075.43-.412.468-.9a30.7,30.7,0,0,0,.094-3.332Zm2.115,1.217c0,.15.037.225.15.262a3.759,3.759,0,0,0,1.254.187,1.679,1.679,0,0,0,1.142-.281,2.664,2.664,0,0,0,.917-2.3,2.531,2.531,0,0,0-2.489-2.864,2.952,2.952,0,0,0-.842.075c-.094.037-.131.094-.131.225Z" transform="translate(-231.611 -422.302)" fill="#452819"/>
      <path id="Trazado_328" data-name="Trazado 328" d="M343.171,504.3c-.393-.9-.655-1.067-1.254-1.217a2.436,2.436,0,0,0-.562-.075c-.15,0-.225-.075-.225-.169,0-.131.131-.169.393-.169.861,0,1.816.056,2.415.056.449,0,1.292-.056,2.19-.056.225,0,.356.056.356.169s-.112.169-.262.169a1.8,1.8,0,0,0-.636.131.3.3,0,0,0-.187.318,4.022,4.022,0,0,0,.393,1.235c.861,2.228,1.947,4.9,2.789,7.038.711-1.7,2.77-6.608,3.22-7.749a1.941,1.941,0,0,0,.15-.562.3.3,0,0,0-.243-.318,3.9,3.9,0,0,0-.674-.094c-.15,0-.281-.056-.281-.169s.112-.169.393-.169c.88,0,1.647.056,1.853.056.281,0,1.1-.056,1.591-.056.243,0,.374.056.374.169s-.131.169-.318.169a1.673,1.673,0,0,0-.749.187c-.243.15-.487.431-.936,1.441-.637,1.46-1.123,2.34-2.022,4.324-1.048,2.3-1.815,3.987-2.19,4.792-.431.936-.543,1.161-.767,1.161s-.318-.206-.637-.955Z" transform="translate(-286.586 -422.301)" fill="#452819"/>
      <path id="Trazado_329" data-name="Trazado 329" d="M415.205,508.992c-.075,0-.112.037-.15.131l-.823,2.04a3.425,3.425,0,0,0-.243.973c0,.468.58.487.936.487.225,0,.281.075.281.15,0,.131-.131.169-.3.169-.58,0-1.254-.056-1.834-.056-.187,0-1.123.056-1.984.056-.206,0-.3-.038-.3-.169,0-.094.094-.169.224-.169,1.179-.112,1.441-.337,1.872-1.423l3.968-9.378c.337-.88.524-1.235.73-1.235.15,0,.244.169.43.58.318.917,3.089,7.3,4.137,9.7.6,1.4,1.067,1.647,1.46,1.722a3.426,3.426,0,0,0,.618.037c.206,0,.281.075.281.169,0,.112-.075.169-.318.169-.786,0-2.751.037-3.931-.038-.168-.019-.281-.056-.281-.15,0-.075.075-.112.169-.15.169-.056.3-.112.187-.337l-1.273-3.163a.142.142,0,0,0-.15-.112Zm3.351-.936c.094,0,.094-.037.075-.094l-1.46-3.819c-.056-.15-.112-.187-.187,0l-1.479,3.819c-.019.056,0,.094.075.094Z" transform="translate(-345.106 -420.531)" fill="#452819"/>
      <path id="Trazado_330" data-name="Trazado 330" d="M545.046,499.02c.169,1.179.356,1.722.917,1.89a3.742,3.742,0,0,0,1.161.187c.169,0,.3.019.3.131,0,.15-.225.206-.487.206-.468,0-3.051-.056-3.8-.113-.431-.037-.543-.094-.543-.206,0-.094.075-.15.206-.206.112-.037.169-.281.094-.8l-1.142-8.348-4.137,8.61c-.43.88-.524,1.048-.692,1.048s-.355-.374-.655-.936c-.449-.861-1.928-3.725-2.153-4.249-.169-.393-1.348-2.883-2-4.286l-.992,7.581a7.411,7.411,0,0,0-.056.88c0,.356.243.524.561.6a3.614,3.614,0,0,0,.786.094c.15,0,.281.038.281.131,0,.169-.168.206-.449.206-.786,0-1.629-.056-1.965-.056-.356,0-1.254.056-1.853.056-.187,0-.337-.038-.337-.206,0-.093.112-.131.3-.131a2.407,2.407,0,0,0,.561-.056c.524-.112.674-.842.768-1.479l1.853-12.2c.056-.318.169-.487.318-.487s.262.094.505.58l5.11,10.557,5.091-10.688c.15-.3.243-.449.412-.449s.281.187.337.58Z" transform="translate(-443.649 -409.024)" fill="#452819"/>
      <path id="Trazado_331" data-name="Trazado 331" d="M653.82,507.524c0-2.808,1.872-6.252,6.795-6.252,4.118,0,6.626,2.527,6.626,5.952,0,3.65-2.564,6.514-6.776,6.514-4.7,0-6.645-3.388-6.645-6.214m10.988.3c0-3.388-1.947-5.709-4.68-5.709-1.834,0-3.893.936-3.893,4.867,0,3.257,1.778,5.878,4.885,5.878,1.142,0,3.688-.468,3.688-5.035" transform="translate(-549.278 -421.122)" fill="#452819"/>
      <path id="Trazado_332" data-name="Trazado 332" d="M754.215,512.016a5.844,5.844,0,0,1-2.059-4.7,5.915,5.915,0,0,1,1.947-4.38,7.532,7.532,0,0,1,5.26-1.666,14.688,14.688,0,0,1,2.4.168c.636.094,1.123.206,1.628.262.169.019.243.094.243.187,0,.131-.038.356-.075.917-.019.524-.019,1.441-.056,1.778-.019.243-.056.374-.206.374-.131,0-.206-.131-.206-.356a2.182,2.182,0,0,0-.618-1.479,4.808,4.808,0,0,0-3.313-.992,4.284,4.284,0,0,0-2.995.936,5.82,5.82,0,0,0,3.613,9.677c1.46,0,2.284-.15,2.92-.861a2.479,2.479,0,0,0,.543-1.086c.075-.281.131-.337.262-.337.112,0,.169.112.169.243a15.879,15.879,0,0,1-.375,2.209.557.557,0,0,1-.43.468,9.481,9.481,0,0,1-2.939.356,8.479,8.479,0,0,1-5.709-1.722" transform="translate(-631.891 -421.122)" fill="#452819"/>
      <path id="Trazado_333" data-name="Trazado 333" d="M838.55,507.524c0-2.808,1.872-6.252,6.795-6.252,4.118,0,6.626,2.527,6.626,5.952,0,3.65-2.564,6.514-6.776,6.514-4.7,0-6.645-3.388-6.645-6.214m10.988.3c0-3.388-1.947-5.709-4.68-5.709-1.834,0-3.893.936-3.893,4.867,0,3.257,1.778,5.878,4.885,5.878,1.142,0,3.688-.468,3.688-5.035" transform="translate(-704.471 -421.122)" fill="#452819"/>
      <path id="Trazado_334" data-name="Trazado 334" d="M935.978,501.618c0-.356.056-.58.243-.58.169,0,.318.187.6.468.3.262,2.49,2.527,5.166,5.035,1.217,1.16,3.313,3.294,3.613,3.556l-.15-6.925c-.019-.955-.15-1.273-.6-1.441a4.463,4.463,0,0,0-.842-.094c-.206,0-.281-.094-.281-.187,0-.131.187-.15.412-.15.824,0,1.666.056,2.078.056.206,0,.88-.056,1.666-.056.206,0,.356.037.356.168,0,.094-.075.169-.281.169a4,4,0,0,0-.468.056c-.487.131-.636.449-.655,1.348-.075,2.4-.112,6.57-.168,9.9,0,.431-.094.58-.243.58-.206,0-.449-.206-.8-.524-1.048-.955-3.051-2.883-4.6-4.38-1.647-1.535-3.482-3.482-3.931-3.949l.169,6.5c.037,1.217.225,1.61.562,1.722a3.55,3.55,0,0,0,.88.112c.168,0,.281.056.281.15,0,.131-.15.187-.374.187-.973,0-1.628-.056-2.059-.056-.206,0-1.067.056-1.872.056-.206,0-.356-.019-.356-.168,0-.094.094-.168.262-.168a4.822,4.822,0,0,0,.711-.075c.468-.131.543-.543.562-1.928.037-3.369.131-7.281.131-9.378" transform="translate(-784.921 -420.925)" fill="#452819"/>
      <path id="Trazado_335" data-name="Trazado 335" d="M1025.6,488.93c-.075,0-.112.037-.15.131l-.823,2.04a3.431,3.431,0,0,0-.243.973c0,.468.58.487.936.487.225,0,.281.075.281.15,0,.131-.131.169-.3.169-.58,0-1.254-.056-1.834-.056-.187,0-1.123.056-1.984.056-.206,0-.3-.037-.3-.169,0-.094.094-.168.224-.168,1.179-.112,1.441-.337,1.872-1.423l3.968-9.378c.337-.88.524-1.235.73-1.235.15,0,.243.169.431.58.318.917,3.089,7.3,4.137,9.7.6,1.4,1.067,1.647,1.46,1.722a3.409,3.409,0,0,0,.618.038c.206,0,.281.075.281.168,0,.112-.075.169-.318.169-.786,0-2.751.037-3.931-.037-.168-.019-.281-.056-.281-.15,0-.075.075-.112.168-.15.169-.056.3-.112.187-.337l-1.273-3.163a.142.142,0,0,0-.15-.112Zm3.351-.936c.094,0,.094-.037.075-.094l-1.46-3.818c-.056-.15-.112-.187-.187,0l-1.479,3.818c-.019.056,0,.094.075.094Zm1.984-10.257c.094.206.019.281-.075.281a3.244,3.244,0,0,0-.842.206,24.7,24.7,0,0,0-2.546,1.161.717.717,0,0,1-.318.131c-.037,0-.131-.019-.131-.112,0-.075.075-.15.15-.262a19.841,19.841,0,0,1,2.246-2.171,1.251,1.251,0,0,1,.505-.281.679.679,0,0,1,.375.187,4.1,4.1,0,0,1,.636.861" transform="translate(-857.898 -400.469)" fill="#452819"/>
      <path id="Trazado_336" data-name="Trazado 336" d="M136.852,631.512c0,1.722,0,2.65.283,2.893.229.2.578.3,1.628.3.713,0,1.238-.013,1.574-.377a1.687,1.687,0,0,0,.35-.807c.013-.121.04-.2.148-.2s.108.067.108.229a10.624,10.624,0,0,1-.2,1.547c-.081.3-.148.363-.847.363-1.238,0-2.475-.081-3.915-.081-.538,0-1.09.04-1.7.04-.175,0-.269-.04-.269-.134,0-.067.054-.108.215-.108a2.2,2.2,0,0,0,.484-.054c.269-.054.336-.35.39-.74.067-.565.067-1.628.067-2.865v-2.368c0-2.045,0-2.421-.027-2.852-.027-.457-.134-.673-.579-.767a1.991,1.991,0,0,0-.444-.04c-.148,0-.229-.027-.229-.121s.094-.121.3-.121c.632,0,1.48.04,1.843.04.323,0,1.305-.04,1.83-.04.188,0,.282.027.282.121s-.081.121-.242.121a3.573,3.573,0,0,0-.525.04c-.363.067-.471.3-.5.767-.027.431-.027.807-.027,2.852Z" transform="translate(-112.484 -525.271)" fill="#a5865f"/>
      <path id="Trazado_337" data-name="Trazado 337" d="M182.238,639.688c0,1.655.323,2.341.928,2.8a2.209,2.209,0,0,0,1.413.43,2.252,2.252,0,0,0,1.574-.578c.659-.619.673-1.681.673-2.852V638.06c0-1.722-.027-2-.04-2.367-.027-.39-.094-.579-.484-.646a2.862,2.862,0,0,0-.43-.054q-.2,0-.2-.121c0-.081.067-.121.256-.121.605,0,1.359.04,1.4.04.161,0,.9-.04,1.386-.04.175,0,.256.04.256.121s-.067.121-.215.121a1.7,1.7,0,0,0-.35.054c-.309.054-.39.229-.417.632-.027.363-.04.659-.04,2.381v1.211c0,1.278-.121,2.637-1.144,3.471a3.67,3.67,0,0,1-2.462.807,4.008,4.008,0,0,1-2.664-.794,3.6,3.6,0,0,1-1.063-3.014V638.06c0-1.749,0-2.018-.027-2.394s-.107-.538-.471-.619a4.081,4.081,0,0,0-.484-.054c-.135,0-.215-.054-.215-.135s.094-.108.283-.108c.605,0,1.426.04,1.735.04.256,0,1.13-.04,1.547-.04.188,0,.269.04.269.121s-.081.121-.2.121-.215.027-.35.054c-.323.054-.417.255-.43.646-.027.363-.027.7-.027,2.367Z" transform="translate(-150.726 -533.258)" fill="#a5865f"/>
      <path id="Trazado_338" data-name="Trazado 338" d="M242.847,639.163l-2.045-3.215a1.676,1.676,0,0,0-1-.874,2.518,2.518,0,0,0-.43-.081c-.081,0-.175-.04-.175-.135s.081-.108.242-.108c.269,0,1.13.04,1.816.04.175,0,.9-.04,1.372-.04q.242,0,.242.121c0,.081-.054.108-.188.121-.067.013-.215.027-.309.054a.171.171,0,0,0-.148.175.931.931,0,0,0,.148.363c.5.9,1.022,1.7,1.453,2.408.336-.484,1.372-1.991,1.574-2.341a.773.773,0,0,0,.134-.4.228.228,0,0,0-.2-.2,1.826,1.826,0,0,0-.363-.054c-.067,0-.175-.04-.175-.121s.04-.121.215-.121c.471,0,1.009.04,1.251.04s.767-.04,1.224-.04c.121,0,.2.04.2.108s-.081.135-.188.135a2.286,2.286,0,0,0-.4.067c-.283.067-.525.336-.915.888l-1.937,2.65c.4.619,2.274,3.619,2.61,4.009a1.2,1.2,0,0,0,.686.484,2.222,2.222,0,0,0,.444.067c.094,0,.175.054.175.121s-.094.121-.242.121c-.834,0-1.8,0-2.677-.04-.283-.013-.363-.04-.363-.108s.054-.121.161-.148c.081-.027.121-.121.04-.269-.605-1.049-1.332-2.206-1.83-3.013l-1.722,2.664a.693.693,0,0,0-.161.444.275.275,0,0,0,.229.2c.081.014.188.014.282.027a.161.161,0,0,1,.161.135c0,.081-.081.108-.242.108-.283,0-1.076-.04-1.4-.04-.256,0-.874.04-1.224.04-.121,0-.188-.054-.188-.121s.067-.121.175-.121a2.151,2.151,0,0,0,.431-.054c.336-.094.578-.269.982-.834Z" transform="translate(-200.774 -533.258)" fill="#a5865f"/>
      <path id="Trazado_339" data-name="Trazado 339" d="M298.184,639.688c0,1.655.323,2.341.928,2.8a2.209,2.209,0,0,0,1.412.43,2.251,2.251,0,0,0,1.574-.578c.659-.619.673-1.681.673-2.852V638.06c0-1.722-.027-2-.04-2.367-.027-.39-.094-.579-.484-.646a2.863,2.863,0,0,0-.43-.054q-.2,0-.2-.121c0-.081.067-.121.256-.121.605,0,1.359.04,1.4.04.161,0,.9-.04,1.386-.04.175,0,.255.04.255.121s-.067.121-.215.121a1.7,1.7,0,0,0-.35.054c-.309.054-.39.229-.417.632-.027.363-.04.659-.04,2.381v1.211c0,1.278-.121,2.637-1.144,3.471a3.671,3.671,0,0,1-2.462.807,4.008,4.008,0,0,1-2.664-.794,3.6,3.6,0,0,1-1.063-3.014V638.06c0-1.749,0-2.018-.027-2.394s-.107-.538-.471-.619a4.081,4.081,0,0,0-.484-.054c-.135,0-.215-.054-.215-.135s.094-.108.283-.108c.605,0,1.426.04,1.735.04.256,0,1.13-.04,1.547-.04.188,0,.269.04.269.121s-.081.121-.2.121-.215.027-.35.054c-.323.054-.417.255-.43.646-.027.363-.027.7-.027,2.367Z" transform="translate(-248.133 -533.258)" fill="#a5865f"/>
      <path id="Trazado_340" data-name="Trazado 340" d="M362.259,638.06c0-1.749,0-2-.027-2.367-.027-.4-.134-.579-.5-.646-.148-.027-.31-.04-.457-.054s-.2-.04-.2-.121.081-.121.255-.121c.606,0,1.426.04,1.655.04.363,0,1.318-.04,1.722-.04a4.079,4.079,0,0,1,2.206.471,1.971,1.971,0,0,1,.874,1.6,3.078,3.078,0,0,1-1.574,2.5c1,1.238,1.83,2.3,2.529,3.013a2.243,2.243,0,0,0,1.3.794c.121.014.215.014.31.027s.161.054.161.108c0,.094-.081.134-.229.134h-1.13a2.838,2.838,0,0,1-1.453-.255,5.474,5.474,0,0,1-1.534-1.628c-.484-.673-.982-1.386-1.157-1.587a.219.219,0,0,0-.189-.067l-.955-.027a.085.085,0,0,0-.094.094v.242c0,1.036,0,1.83.054,2.3.027.336.108.592.471.632a4,4,0,0,0,.565.054c.108,0,.148.054.148.108,0,.081-.081.134-.229.134-.713,0-1.655-.04-1.83-.04-.2,0-1.022.04-1.493.04-.148,0-.228-.04-.228-.121,0-.054.054-.121.188-.121a3.1,3.1,0,0,0,.431-.04c.229-.054.309-.3.336-.646a22.024,22.024,0,0,0,.067-2.395Zm1.52.875c0,.108.027.161.108.188a2.7,2.7,0,0,0,.9.134,1.206,1.206,0,0,0,.821-.2,1.915,1.915,0,0,0,.659-1.655,1.819,1.819,0,0,0-1.789-2.058,2.117,2.117,0,0,0-.605.054c-.067.027-.094.067-.094.161Z" transform="translate(-303.341 -533.258)" fill="#a5865f"/>
      <path id="Trazado_341" data-name="Trazado 341" d="M412.367,640.427a2.3,2.3,0,0,0-.283-1.2c-.148-.3-1.655-2.691-2.072-3.3a2.293,2.293,0,0,0-.847-.807,1.333,1.333,0,0,0-.431-.134c-.094,0-.2-.04-.2-.121s.054-.121.2-.121c.269,0,1.184.04,1.587.04.229,0,.767-.04,1.332-.04.121,0,.188.04.188.108s-.04.108-.215.148c-.148.027-.242.094-.242.188a.852.852,0,0,0,.148.377c.161.35,1.776,3.054,1.964,3.377.242-.471,1.574-2.718,1.749-3.094a1.506,1.506,0,0,0,.175-.606c0-.107-.054-.2-.283-.255-.108-.027-.215-.067-.215-.135s.054-.108.215-.108c.417,0,.794.04,1.157.04.242,0,1.05-.04,1.278-.04.134,0,.229.04.229.108s-.094.135-.242.135a1.936,1.936,0,0,0-.511.121,1.633,1.633,0,0,0-.632.538,35.364,35.364,0,0,0-2.26,3.659,2.8,2.8,0,0,0-.175,1.13v.915c0,.188,0,.646.027,1.117.027.323.108.592.484.632a4.391,4.391,0,0,0,.592.054c.135,0,.2.067.2.121,0,.081-.067.121-.215.121-.767,0-1.587-.04-1.924-.04-.3,0-1.09.04-1.534.04-.175,0-.269-.027-.269-.121,0-.054.067-.108.188-.121a1.7,1.7,0,0,0,.39-.054c.269-.04.39-.282.4-.619.04-.484.04-.942.04-1.13Z" transform="translate(-343.211 -533.258)" fill="#a5865f"/>
      <path id="Trazado_342" data-name="Trazado 342" d="M501.969,633.523c0,.363-.013.39-.175.484a7.613,7.613,0,0,1-3.242.605c-3.3,0-6.215-1.56-6.215-5.274a5.03,5.03,0,0,1,2.341-4.4,6.519,6.519,0,0,1,3.619-.874,16.177,16.177,0,0,1,2.381.215,8.821,8.821,0,0,0,1.063.148c.161.014.188.067.188.161a18.156,18.156,0,0,0-.094,2.206c0,.215-.04.282-.148.282s-.121-.067-.134-.175a1.889,1.889,0,0,0-.458-1.117,4.3,4.3,0,0,0-3-1.049,3.878,3.878,0,0,0-2.664.834,4,4,0,0,0-1.238,3.3c0,2.892,1.843,5.058,4.682,5.058a2.979,2.979,0,0,0,1.144-.148.478.478,0,0,0,.255-.5v-1.265c0-.672,0-1.184-.013-1.587-.014-.457-.134-.673-.578-.767a2.77,2.77,0,0,0-.525-.04c-.121,0-.2-.027-.2-.108,0-.108.094-.135.283-.135.7,0,1.547.04,1.951.04s1.13-.04,1.574-.04c.175,0,.269.027.269.135,0,.081-.081.108-.175.108a2.12,2.12,0,0,0-.363.04c-.363.067-.5.3-.511.767-.014.4-.014.942-.014,1.614Z" transform="translate(-413.615 -524.282)" fill="#a5865f"/>
      <path id="Trazado_343" data-name="Trazado 343" d="M568.51,640.078c0,1.412,0,2.206.242,2.408.188.188.484.269,1.426.269a2,2,0,0,0,1.386-.3,1.366,1.366,0,0,0,.35-.74c.027-.108.04-.215.135-.215s.108.094.108.229a9.525,9.525,0,0,1-.2,1.386c-.081.269-.134.309-.726.309-1.2,0-2.287-.067-3.552-.067-.484,0-.982.04-1.534.04-.161,0-.255-.04-.255-.121,0-.054.067-.107.2-.121a2.458,2.458,0,0,0,.377-.04c.283-.067.363-.283.4-.726.054-.471.054-1.332.054-2.314V638.06c0-1.749,0-2.018-.027-2.381s-.121-.552-.484-.632a2.69,2.69,0,0,0-.4-.054c-.135,0-.215-.04-.215-.121s.094-.121.282-.121c.565,0,1.292.04,1.641.04.256,0,1.224-.04,1.682-.04.188,0,.255.04.255.121s-.067.121-.229.121a2.663,2.663,0,0,0-.444.054c-.323.054-.417.242-.444.646-.027.363-.027.619-.027,2.395Z" transform="translate(-475.326 -533.258)" fill="#a5865f"/>
      <path id="Trazado_344" data-name="Trazado 344" d="M612.384,639.29c-.054,0-.081.027-.108.094l-.592,1.466a2.461,2.461,0,0,0-.175.7c0,.336.417.35.673.35.161,0,.2.054.2.108,0,.094-.094.121-.215.121-.417,0-.9-.04-1.318-.04-.135,0-.807.04-1.426.04-.148,0-.215-.027-.215-.121,0-.067.067-.121.161-.121.848-.081,1.036-.242,1.345-1.022l2.852-6.74c.242-.632.377-.888.525-.888.108,0,.175.121.309.417.229.659,2.22,5.247,2.973,6.969.431,1.009.767,1.184,1.049,1.238a2.447,2.447,0,0,0,.444.027c.148,0,.2.054.2.121s-.054.121-.229.121c-.565,0-1.978.027-2.825-.027-.121-.013-.2-.04-.2-.108s.054-.081.121-.108c.121-.04.215-.081.135-.242l-.915-2.274a.1.1,0,0,0-.107-.081Zm2.408-.673c.067,0,.067-.027.054-.067l-1.049-2.744c-.04-.108-.081-.135-.134,0L612.6,638.55c-.013.04,0,.067.054.067Z" transform="translate(-511.8 -531.986)" fill="#a5865f"/>
      <path id="Trazado_345" data-name="Trazado 345" d="M681.77,640.649c.108.713.229,1.023.578,1.13a3.2,3.2,0,0,0,.727.108c.121,0,.2.04.2.108,0,.094-.135.134-.309.134-.43,0-1.937-.027-2.569-.081-.256-.014-.336-.054-.336-.121a.184.184,0,0,1,.134-.148c.094-.04.121-.134.067-.5l-.659-4.9-2.583,5.085c-.269.551-.336.646-.431.646-.121,0-.229-.215-.444-.592-.309-.538-1.211-2.193-1.413-2.583-.121-.255-.821-1.668-1.2-2.448l-.578,4.332a5.33,5.33,0,0,0-.027.605.386.386,0,0,0,.35.4,4.529,4.529,0,0,0,.5.054c.108,0,.175.054.175.108,0,.108-.094.134-.269.134-.511,0-1.049-.04-1.305-.04s-.821.04-1.211.04c-.108,0-.2-.027-.2-.134,0-.054.067-.108.188-.108.094-.013.188-.013.35-.027.35-.067.444-.484.511-.942l1.144-7.345c.054-.229.121-.336.215-.336s.175.067.35.377l3.256,6.255,3.229-6.336c.121-.188.175-.3.282-.3s.188.121.229.377Z" transform="translate(-563.684 -531.986)" fill="#a5865f"/>
      <path id="Trazado_346" data-name="Trazado 346" d="M752.845,638.06c0-1.641,0-2.018-.027-2.395s-.135-.552-.484-.619a3.543,3.543,0,0,0-.471-.054c-.121,0-.2-.04-.2-.121s.081-.121.269-.121c.605,0,1.426.04,1.736.04.5,0,1.184-.04,1.735-.04a3,3,0,0,1,2.341.713,1.966,1.966,0,0,1,.578,1.493,2.791,2.791,0,0,1-2.986,2.623,1.9,1.9,0,0,1-.269-.013c-.054-.027-.148-.054-.148-.135s.094-.108.323-.108a1.742,1.742,0,0,0,1.561-1.856,2.159,2.159,0,0,0-.632-1.749,1.824,1.824,0,0,0-1.211-.417,1.793,1.793,0,0,0-.43.04c-.067.013-.108.081-.108.229v4.507a22.86,22.86,0,0,0,.067,2.408c.027.336.108.578.457.619a4.385,4.385,0,0,0,.578.054c.148,0,.2.054.2.108,0,.081-.094.134-.215.134-.794,0-1.641-.04-1.91-.04-.229,0-1.076.04-1.547.04-.148,0-.229-.04-.229-.121,0-.054.054-.121.2-.121a3.34,3.34,0,0,0,.417-.04c.229-.054.3-.283.336-.646a22.055,22.055,0,0,0,.067-2.395Z" transform="translate(-631.475 -533.258)" fill="#a5865f"/>
      <path id="Trazado_347" data-name="Trazado 347" d="M801.751,638.06c0-1.749,0-2.018-.027-2.395s-.148-.565-.4-.619a3.515,3.515,0,0,0-.417-.054c-.121,0-.188-.04-.188-.134,0-.067.081-.108.269-.108.471,0,1.278.04,1.574.04.269,0,1.063-.04,1.52-.04.161,0,.228.04.228.108,0,.094-.067.134-.188.134a2.8,2.8,0,0,0-.309.04c-.323.054-.417.256-.444.646-.04.363-.04.632-.04,2.381v2.018c0,1.076.013,1.951.067,2.435.027.309.121.552.471.592a3.282,3.282,0,0,0,.511.054c.148,0,.2.067.2.121,0,.081-.094.121-.229.121-.794,0-1.56-.04-1.843-.04-.229,0-1.036.04-1.507.04q-.242,0-.242-.121c0-.054.054-.121.2-.121a2.266,2.266,0,0,0,.363-.04c.229-.054.336-.256.363-.578a23.041,23.041,0,0,0,.067-2.462Z" transform="translate(-672.686 -533.258)" fill="#a5865f"/>
      <path id="Trazado_348" data-name="Trazado 348" d="M833.886,633.99c0-.256.04-.417.175-.417s.229.134.43.336,1.789,1.816,3.713,3.619c.875.834,2.381,2.368,2.6,2.556l-.108-4.977c-.013-.686-.108-.915-.43-1.036a3.2,3.2,0,0,0-.605-.067c-.148,0-.2-.067-.2-.135,0-.094.135-.108.3-.108.592,0,1.2.04,1.493.04.148,0,.632-.04,1.2-.04.148,0,.255.027.255.121,0,.067-.054.121-.2.121a2.865,2.865,0,0,0-.336.04c-.35.094-.457.323-.471.969-.054,1.722-.081,4.722-.121,7.116,0,.31-.067.417-.175.417-.148,0-.323-.148-.578-.377-.753-.686-2.193-2.072-3.309-3.148-1.184-1.1-2.5-2.5-2.825-2.839l.121,4.668c.027.874.161,1.157.4,1.238a2.543,2.543,0,0,0,.632.081c.121,0,.2.04.2.108,0,.094-.108.134-.269.134-.7,0-1.17-.04-1.48-.04-.148,0-.767.04-1.345.04-.148,0-.255-.013-.255-.121,0-.067.067-.121.188-.121a3.464,3.464,0,0,0,.511-.054c.336-.094.39-.39.4-1.386.027-2.421.094-5.233.094-6.74" transform="translate(-699.547 -532.269)" fill="#a5865f"/>
      <path id="Trazado_349" data-name="Trazado 349" d="M912.333,641.718c0,.377-.027.4-.175.484a7.178,7.178,0,0,1-2.852.5c-2.986,0-5.516-1.345-5.516-4.48a4.244,4.244,0,0,1,2.072-3.74,6.171,6.171,0,0,1,3.229-.74,12.36,12.36,0,0,1,2.072.188c.269.04.686.108.968.121.135.013.148.081.148.161a14.164,14.164,0,0,0-.094,1.924c0,.188-.041.242-.135.242s-.108-.067-.121-.161a1.527,1.527,0,0,0-.363-.874,3.417,3.417,0,0,0-2.664-.982,3.332,3.332,0,0,0-2.314.74,3.3,3.3,0,0,0-1.022,2.718,3.95,3.95,0,0,0,4.009,4.251,2.165,2.165,0,0,0,.928-.135c.175-.067.215-.215.215-.4v-.969c0-.552,0-.955-.013-1.318-.014-.444-.121-.659-.525-.713-.108-.013-.283-.027-.457-.04-.108,0-.188-.054-.188-.121s.081-.108.256-.108c.646,0,1.412.027,1.776.027s1.022-.027,1.466-.027c.148,0,.242.027.242.108s-.067.108-.161.121c-.148.013-.175.013-.323.027-.336.04-.43.256-.444.646-.014.363-.014.807-.014,1.386Z" transform="translate(-759.28 -532.409)" fill="#a5865f"/>
      <path id="Trazado_350" data-name="Trazado 350" d="M57.393,650.756a1.1,1.1,0,1,1-1.1-1.1,1.1,1.1,0,0,1,1.1,1.1" transform="translate(-46.369 -545.78)" fill="#a5865f"/>
      <path id="Trazado_351" data-name="Trazado 351" d="M1030.255,650.756a1.1,1.1,0,1,1-1.1-1.1,1.1,1.1,0,0,1,1.1,1.1" transform="translate(-863.676 -545.78)" fill="#a5865f"/>
      <path id="Trazado_352" data-name="Trazado 352" d="M289.856,147.094a.959.959,0,0,1-.858-.53l-11.9-23.8-14.528,23.866a.96.96,0,0,1-.819.46H244.7a.96.96,0,0,1-.945-1.124L248.285,120a.96.96,0,0,1,.37-.6l20.78-15.578a.957.957,0,0,1,.254-.136l19.586-6.951a.958.958,0,0,1,.577-.02l24.486,6.782a.96.96,0,0,1,.457.282l18.178,20.184a.959.959,0,0,1,.242.552l1.991,21.189a.959.959,0,0,1-.948,1.049l-44.395.346Zm-44.016-1.919h15.373l15.149-24.887a.959.959,0,0,1,1.677.07l12.407,24.812,42.751-.333-1.864-19.832-17.778-19.74L289.632,98.64l-19.163,6.8L250.109,120.7Z" transform="translate(-204.768 -81.217)" fill="#a5865f"/>
      <path id="Trazado_353" data-name="Trazado 353" d="M261.752,288.242a.96.96,0,0,1-.918-.683l-5.806-19.287L245.561,287.7a.959.959,0,1,1-1.725-.84l10.541-21.636a.959.959,0,0,1,1.781.144l6.512,21.636a.96.96,0,0,1-.919,1.236" transform="translate(-204.767 -222.365)" fill="#a5865f"/>
      <path id="Trazado_354" data-name="Trazado 354" d="M313.659,265.464a.96.96,0,0,1-.815-1.464l12.443-20.141-24.294-3.73L279.2,243.814a.959.959,0,0,1-.721-.168l-6.011-4.335a.959.959,0,0,1,1.122-1.556l5.685,4.1,21.546-3.644a.96.96,0,0,1,.306,0l25.879,3.974a.959.959,0,0,1,.671,1.452l-13.2,21.374a.958.958,0,0,1-.817.455" transform="translate(-228.571 -199.587)" fill="#a5865f"/>
      <path id="Trazado_355" data-name="Trazado 355" d="M310.623,161.979a.959.959,0,0,1-.77-1.531l14.762-19.9a.94.94,0,0,1,.062-.077.95.95,0,0,1,.121-.114h0a.954.954,0,0,1,.572-.206h.049l26.426.6a.959.959,0,0,1,.582,1.7l-19.259,15.6a.959.959,0,0,1-1.481-.357L325.183,143l-13.788,18.59a.958.958,0,0,1-.771.388M326.883,142.1l6.053,13.674,16.254-13.165Z" transform="translate(-260.151 -117.738)" fill="#a5865f"/>
      <path id="Trazado_356" data-name="Trazado 356" d="M553.452,146.855a.96.96,0,0,1-.791-.417l-14.5-21.136a.959.959,0,0,1,.583-1.479l18.089-4.03L549.405,105.4l-17.028.745a.953.953,0,0,1-.753-.314l-6.845-7.554A.959.959,0,1,1,526.2,96.99l6.542,7.22,17.19-.752a.957.957,0,0,1,.894.518l8.281,16.04.018.037,11.886,25.328a.959.959,0,0,1-1.737.815l-10.625-22.642L554.4,146.074a.959.959,0,0,1-.943.781m-12.9-21.467,12.389,18.062,4.108-21.737Z" transform="translate(-440.662 -81.217)" fill="#a5865f"/>
      <path id="Trazado_357" data-name="Trazado 357" d="M574.919,165.407a.96.96,0,0,1-.909-.652l-6.62-19.572a.959.959,0,0,1,1.4-1.134l25.868,15.239,9.834,4.114a.959.959,0,0,1-.74,1.77l-9.895-4.139a.954.954,0,0,1-.117-.059l-23.7-13.963,5.794,17.129a.96.96,0,0,1-.909,1.267" transform="translate(-476.626 -120.904)" fill="#a5865f"/>
      <rect id="Rectángulo_266" data-name="Rectángulo 266" width="1.919" height="31.5" transform="translate(140.034 27.761)" fill="#a5865f"/>
      <path id="Trazado_358" data-name="Trazado 358" d="M831.554,183.945h-1.919v-.959c0-3.516.945-6.233,2.81-8.074a8.361,8.361,0,0,1,5.542-2.354l.959.012-.023,1.919-.956-.012a6.508,6.508,0,0,0-4.195,1.821c-1.472,1.468-2.219,3.718-2.219,6.689Z" transform="translate(-696.982 -144.966)" fill="#a5865f"/>
      <path id="Trazado_359" data-name="Trazado 359" d="M885.059,183.944H883.14v-.959c0-2.97-.747-5.22-2.219-6.689a6.509,6.509,0,0,0-4.2-1.822h0l-.955,0-.019-1.909.955-.012a8.347,8.347,0,0,1,5.543,2.354c1.864,1.841,2.81,4.558,2.81,8.074Z" transform="translate(-735.725 -144.965)" fill="#a5865f"/>
      <path id="Trazado_360" data-name="Trazado 360" d="M890.385,175.39l-.56-.779c-4.629-6.439-13.809-4.264-13.9-4.241l-.93.229-.462-1.86.93-.232a19.536,19.536,0,0,1,5.867-.367,13.33,13.33,0,0,1,10.055,5.351l.56.779Z" transform="translate(-734.7 -141.194)" fill="#a5865f"/>
      <path id="Trazado_361" data-name="Trazado 361" d="M875.182,145.029l-1.632-1,.5-.816a15.5,15.5,0,0,1,3.777-3.979,10.078,10.078,0,0,1,10.39-1.245l.88.381-.763,1.761-.88-.381a8.14,8.14,0,0,0-8.453,1,13.775,13.775,0,0,0-3.317,3.466Z" transform="translate(-733.875 -115.161)" fill="#a5865f"/>
      <path id="Trazado_362" data-name="Trazado 362" d="M806.714,145.029l-.5-.817a13.774,13.774,0,0,0-3.317-3.465,8.14,8.14,0,0,0-8.453-1l-.88.381-.762-1.761.88-.381a10.077,10.077,0,0,1,10.39,1.245,15.5,15.5,0,0,1,3.777,3.979l.5.818Z" transform="translate(-666.036 -115.16)" fill="#a5865f"/>
      <path id="Trazado_363" data-name="Trazado 363" d="M781.727,175.39l-1.558-1.12.56-.779a13.33,13.33,0,0,1,10.055-5.351,19.555,19.555,0,0,1,5.867.367l.931.232-.464,1.862-.93-.232c-.109-.027-9.276-2.192-13.9,4.241Z" transform="translate(-655.425 -141.195)" fill="#a5865f"/>
      <rect id="Rectángulo_267" data-name="Rectángulo 267" width="1.919" height="37.713" transform="translate(26.382 26.118)" fill="#a5865f"/>
      <path id="Trazado_364" data-name="Trazado 364" d="M120.755,173.67h-1.919v-.959c0-3.516.945-6.233,2.81-8.074a8.354,8.354,0,0,1,5.543-2.354l.959.012-.023,1.919-.956-.012a6.51,6.51,0,0,0-4.195,1.821c-1.472,1.468-2.219,3.719-2.219,6.689Z" transform="translate(-99.835 -136.334)" fill="#a5865f"/>
      <path id="Trazado_365" data-name="Trazado 365" d="M174.26,173.669h-1.919v-.959c0-2.97-.746-5.22-2.219-6.689a6.51,6.51,0,0,0-4.2-1.821h0l-.955,0-.019-1.909.955-.012a8.343,8.343,0,0,1,5.543,2.354c1.864,1.841,2.81,4.558,2.81,8.074Z" transform="translate(-138.578 -136.333)" fill="#a5865f"/>
      <path id="Trazado_366" data-name="Trazado 366" d="M179.587,165.117l-.56-.779c-4.629-6.439-13.809-4.264-13.9-4.242l-.93.229-.462-1.86.93-.232a19.552,19.552,0,0,1,5.867-.367,13.33,13.33,0,0,1,10.055,5.351l.56.779Z" transform="translate(-137.553 -132.564)" fill="#a5865f"/>
      <path id="Trazado_367" data-name="Trazado 367" d="M164.381,134.758l-1.635-1,.5-.818a15.5,15.5,0,0,1,3.777-3.979,10.078,10.078,0,0,1,10.39-1.245l.88.381-.763,1.761-.88-.381a8.148,8.148,0,0,0-8.5,1.036,13.641,13.641,0,0,0-3.27,3.431Z" transform="translate(-136.724 -106.531)" fill="#a5865f"/>
      <path id="Trazado_368" data-name="Trazado 368" d="M95.914,134.756l-.5-.817a13.778,13.778,0,0,0-3.317-3.465,8.14,8.14,0,0,0-8.453-1l-.88.381L82,128.092l.88-.381a10.077,10.077,0,0,1,10.39,1.245,15.5,15.5,0,0,1,3.777,3.979l.5.818Z" transform="translate(-68.888 -106.53)" fill="#a5865f"/>
      <path id="Trazado_369" data-name="Trazado 369" d="M70.927,165.116,69.369,164l.56-.779a13.329,13.329,0,0,1,10.055-5.351,19.537,19.537,0,0,1,5.867.367l.931.232-.464,1.862-.93-.232c-.11-.027-9.276-2.191-13.9,4.242Z" transform="translate(-58.277 -132.563)" fill="#a5865f"/>
      <rect id="Rectángulo_268" data-name="Rectángulo 268" width="1.919" height="21.974" transform="translate(116.628 7.535)" fill="#a5865f"/>
      <path id="Trazado_370" data-name="Trazado 370" d="M685.164,57.447h-1.919v-.959c0-3.516.945-6.233,2.81-8.074a8.362,8.362,0,0,1,5.543-2.354l.959.012-.023,1.919-.956-.012a6.51,6.51,0,0,0-4.195,1.821c-1.472,1.468-2.219,3.719-2.219,6.689Z" transform="translate(-573.998 -38.694)" fill="#a5865f"/>
      <path id="Trazado_371" data-name="Trazado 371" d="M738.669,57.446H736.75v-.959c0-2.97-.746-5.22-2.219-6.689a6.51,6.51,0,0,0-4.2-1.821h0l-.955,0-.019-1.909.955-.012a8.348,8.348,0,0,1,5.543,2.354c1.864,1.841,2.81,4.558,2.81,8.074Z" transform="translate(-612.742 -38.693)" fill="#a5865f"/>
      <path id="Trazado_372" data-name="Trazado 372" d="M744,48.892l-.56-.779c-4.629-6.439-13.809-4.264-13.9-4.242l-.93.229-.462-1.86.93-.232a19.537,19.537,0,0,1,5.867-.367,13.329,13.329,0,0,1,10.055,5.351l.56.779Z" transform="translate(-611.717 -34.923)" fill="#a5865f"/>
      <path id="Trazado_373" data-name="Trazado 373" d="M728.792,18.532l-1.632-1,.5-.816a15.5,15.5,0,0,1,3.777-3.979,10.078,10.078,0,0,1,10.39-1.245l.88.381-.763,1.761-.88-.381a8.14,8.14,0,0,0-8.454,1,13.78,13.78,0,0,0-3.317,3.466Z" transform="translate(-610.892 -8.89)" fill="#a5865f"/>
      <path id="Trazado_374" data-name="Trazado 374" d="M660.324,18.533l-.5-.817a13.774,13.774,0,0,0-3.317-3.465,8.139,8.139,0,0,0-8.453-1l-.88.381-.763-1.761.88-.381a10.077,10.077,0,0,1,10.39,1.245,15.5,15.5,0,0,1,3.777,3.979l.5.818Z" transform="translate(-543.053 -8.889)" fill="#a5865f"/>
      <path id="Trazado_375" data-name="Trazado 375" d="M635.337,48.893l-1.558-1.12.56-.779a13.33,13.33,0,0,1,10.055-5.351,19.564,19.564,0,0,1,5.867.367l.931.232-.464,1.862-.93-.232c-.11-.027-9.276-2.192-13.9,4.241Z" transform="translate(-532.442 -34.924)" fill="#a5865f"/>
      <path id="Trazado_376" data-name="Trazado 376" d="M290.474,63.828l-1.234-1.461.73-.618c1.58-1.338,5.488-3.142,8.968-.386l.752.6-1.191,1.5-.752-.6c-3.107-2.461-6.4.232-6.539.348Z" transform="translate(-242.992 -50.34)" fill="#a5865f"/>
      <path id="Trazado_377" data-name="Trazado 377" d="M340.4,61.648l-1.325-1.388.694-.662c3.211-3.064,7.268-1.628,8.965-.44l.786.55-1.1,1.572-.784-.549c-.161-.111-3.68-2.476-6.542.255Z" transform="translate(-284.859 -48.526)" fill="#a5865f"/>
      <path id="Trazado_378" data-name="Trazado 378" d="M212.023,44.671l-1.306-1.39.693-.655a4.66,4.66,0,0,1,5.854-.558l.783.554-1.108,1.566-.783-.554a2.77,2.77,0,0,0-3.432.39Z" transform="translate(-177.025 -34.659)" fill="#a5865f"/>
      <path id="Trazado_379" data-name="Trazado 379" d="M241.952,41.823l-1.4-1.314.657-.7a4.659,4.659,0,0,1,5.848-.62l.815.507-1.013,1.629-.811-.5a2.768,2.768,0,0,0-3.44.3Z" transform="translate(-202.091 -32.289)" fill="#a5865f"/>
      <path id="Trazado_380" data-name="Trazado 380" d="M262.495,6.246l-1.318-1.395.7-.659a4.659,4.659,0,0,1,5.854-.558l.783.554L267.4,5.754,266.62,5.2a2.782,2.782,0,0,0-3.429.386Z" transform="translate(-219.416 -2.371)" fill="#a5865f"/>
      <path id="Trazado_381" data-name="Trazado 381" d="M292.436,3.389l-1.4-1.314.657-.7a4.659,4.659,0,0,1,5.848-.62l.815.507-1.013,1.629-.811-.5a2.769,2.769,0,0,0-3.44.3Z" transform="translate(-244.503 0)" fill="#a5865f"/>
    </g>
  </g>
</svg>
