<svg id="Grupo_111" data-name="Grupo 111" xmlns="http://www.w3.org/2000/svg" xmlns:xlink="http://www.w3.org/1999/xlink" width="116" height="72.308" viewBox="0 0 116 72.308">
  <defs>
    <clipPath id="clip-path">
      <rect id="Rectángulo_92" data-name="Rectángulo 92" width="116" height="72.308" fill="none"/>
    </clipPath>
  </defs>
  <g id="Grupo_110" data-name="Grupo 110">
    <g id="Grupo_109" data-name="Grupo 109" clip-path="url(#clip-path)">
      <path id="Trazado_184" data-name="Trazado 184" d="M1.239,493.005c0-1.865,0-2.208-.025-2.6-.024-.417-.123-.613-.527-.7a2.515,2.515,0,0,0-.478-.037c-.135,0-.209-.025-.209-.11s.086-.11.27-.11c.65,0,1.423.037,1.681.037.417,0,1.349-.037,1.73-.037a3.921,3.921,0,0,1,2.257.528,2.125,2.125,0,0,1,.834,1.681,3.4,3.4,0,0,1-1.607,2.736c1.092,1.374,1.938,2.478,2.662,3.239a2.429,2.429,0,0,0,1.362.834,1.936,1.936,0,0,0,.343.037c.1,0,.147.037.147.1,0,.1-.086.123-.233.123h-1.2a2.5,2.5,0,0,1-1.313-.233,5.915,5.915,0,0,1-1.681-1.8c-.491-.675-1.055-1.509-1.214-1.693a.256.256,0,0,0-.221-.086l-1.03-.024c-.061,0-.1.024-.1.1v.172c0,1.141,0,2.11.061,2.625.037.356.11.626.478.675a5.655,5.655,0,0,0,.6.049c.1,0,.147.037.147.1,0,.086-.086.123-.245.123-.712,0-1.619-.037-1.8-.037-.233,0-1.006.037-1.5.037-.159,0-.245-.037-.245-.123,0-.061.049-.1.2-.1a2,2,0,0,0,.442-.049c.245-.049.307-.319.356-.675.061-.515.061-1.484.061-2.613Zm1.447.969c0,.135.025.184.11.221a3.232,3.232,0,0,0,.932.123,1.227,1.227,0,0,0,.871-.208,2.162,2.162,0,0,0,.724-1.84,1.962,1.962,0,0,0-1.877-2.245,2.693,2.693,0,0,0-.65.049c-.086.025-.11.074-.11.172Z" transform="translate(0 -438.159)" fill="#fff"/>
      <path id="Trazado_185" data-name="Trazado 185" d="M88.866,504.961c0-1.595,0-1.877-.025-2.22s-.11-.478-.442-.552a3.535,3.535,0,0,0-.417-.037q-.184,0-.184-.11c0-.074.074-.1.245-.1.515,0,1.006.037,1.546.037.331,0,2.576,0,2.772-.012s.393-.049.491-.061a1.25,1.25,0,0,1,.172-.049c.061,0,.074.049.074.1a4.2,4.2,0,0,0-.1.662c-.012.2-.025.4-.049.724,0,.061-.024.172-.122.172-.074,0-.1-.061-.11-.2a.866.866,0,0,0-.061-.343c-.074-.2-.172-.307-.7-.368-.209-.024-1.313-.049-1.558-.049-.049,0-.074.037-.074.11v2.539c0,.074.012.11.074.11.258,0,1.435,0,1.705-.012.307-.024.466-.061.564-.172.074-.1.123-.135.172-.135s.074.025.074.086-.049.307-.086.81c0,.209-.037.65-.037.736s-.012.2-.11.2c-.074,0-.11-.11-.11-.172-.012-.1-.012-.159-.037-.282-.061-.233-.184-.393-.613-.429-.221-.024-1.251-.037-1.521-.037-.061,0-.074.049-.074.11v.8c0,.356-.012,1.214,0,1.533.025.724.184.883,1.313.883a2.8,2.8,0,0,0,1.006-.123c.282-.135.4-.344.491-.785.025-.11.049-.172.135-.172s.086.1.086.209a7.47,7.47,0,0,1-.147,1.227c-.074.27-.172.27-.577.27-1.067,0-1.987-.061-3.079-.061-.442,0-.883.037-1.4.037q-.221,0-.221-.11c0-.049.037-.11.184-.11a2.849,2.849,0,0,0,.38-.037c.221-.049.282-.282.319-.65.049-.429.049-1.227.049-2.122Z" transform="translate(-78.599 -449.268)" fill="#fff"/>
      <path id="Trazado_186" data-name="Trazado 186" d="M156.14,509.172c-.172-.074-.209-.147-.209-.356,0-.626.037-1.239.049-1.423s.049-.27.135-.27.11.086.123.172a1.907,1.907,0,0,0,.074.491,1.545,1.545,0,0,0,1.595,1.129c.981,0,1.423-.6,1.423-1.141,0-.491-.147-.957-1.055-1.619l-.515-.393c-1.214-.92-1.607-1.619-1.607-2.478,0-1.153.994-2.012,2.527-2.012a5.885,5.885,0,0,1,1.092.11c.172.024.319.061.442.074.1.012.123.061.123.135,0,.172-.049.466-.049,1.3,0,.233-.037.319-.123.319s-.11-.074-.123-.208a1.586,1.586,0,0,0-.245-.662,1.331,1.331,0,0,0-1.227-.552c-.81,0-1.276.442-1.276,1.043,0,.454.221.859,1.1,1.46l.343.233c1.374.932,1.816,1.656,1.816,2.65a2.133,2.133,0,0,1-1.055,1.852,3.35,3.35,0,0,1-1.742.417,4,4,0,0,1-1.619-.27" transform="translate(-139.591 -448.744)" fill="#fff"/>
      <path id="Trazado_187" data-name="Trazado 187" d="M212.605,504.961c0-1.595,0-1.877-.025-2.22s-.11-.478-.442-.552a3.535,3.535,0,0,0-.417-.037q-.184,0-.184-.11c0-.074.074-.1.245-.1.515,0,1.006.037,1.546.037.331,0,2.576,0,2.772-.012s.393-.049.491-.061a1.248,1.248,0,0,1,.172-.049c.061,0,.074.049.074.1a4.2,4.2,0,0,0-.1.662c-.012.2-.025.4-.049.724,0,.061-.024.172-.122.172-.074,0-.1-.061-.11-.2a.866.866,0,0,0-.061-.343c-.074-.2-.172-.307-.7-.368-.209-.024-1.313-.049-1.558-.049-.049,0-.074.037-.074.11v2.539c0,.074.012.11.074.11.258,0,1.435,0,1.705-.012.307-.024.466-.061.564-.172.074-.1.123-.135.172-.135s.074.025.074.086-.049.307-.086.81c0,.209-.037.65-.037.736s-.012.2-.11.2c-.074,0-.11-.11-.11-.172-.012-.1-.012-.159-.037-.282-.061-.233-.184-.393-.613-.429-.221-.024-1.251-.037-1.521-.037-.061,0-.074.049-.074.11v.8c0,.356-.012,1.214,0,1.533.025.724.184.883,1.313.883a2.8,2.8,0,0,0,1.006-.123c.282-.135.4-.344.491-.785.025-.11.049-.172.135-.172s.086.1.086.209a7.469,7.469,0,0,1-.147,1.227c-.074.27-.172.27-.577.27-1.067,0-1.987-.061-3.079-.061-.442,0-.883.037-1.4.037q-.221,0-.221-.11c0-.049.037-.11.184-.11a2.849,2.849,0,0,0,.38-.037c.221-.049.282-.282.319-.65.049-.429.049-1.227.049-2.122Z" transform="translate(-189.371 -449.268)" fill="#fff"/>
      <path id="Trazado_188" data-name="Trazado 188" d="M276.771,505.695c0-1.595,0-1.828-.025-2.159-.025-.368-.123-.527-.454-.589-.135-.024-.282-.037-.417-.049s-.184-.037-.184-.11.074-.11.233-.11c.552,0,1.3.037,1.509.037.331,0,1.2-.037,1.57-.037a3.718,3.718,0,0,1,2.012.429,1.8,1.8,0,0,1,.8,1.46,2.807,2.807,0,0,1-1.435,2.282c.908,1.129,1.668,2.1,2.306,2.748a2.046,2.046,0,0,0,1.19.724c.11.012.2.012.282.025s.147.049.147.1c0,.086-.074.123-.209.123h-1.03a2.587,2.587,0,0,1-1.325-.233,4.989,4.989,0,0,1-1.4-1.484c-.442-.613-.9-1.264-1.055-1.448a.2.2,0,0,0-.172-.061l-.871-.024a.077.077,0,0,0-.086.086v.221c0,.944,0,1.668.049,2.1.025.307.1.54.429.577a3.67,3.67,0,0,0,.515.049c.1,0,.135.049.135.1,0,.073-.074.123-.209.123-.65,0-1.509-.037-1.668-.037-.184,0-.932.037-1.362.037-.135,0-.209-.037-.209-.11,0-.049.049-.11.172-.11a2.858,2.858,0,0,0,.393-.037c.209-.049.282-.27.307-.589a20.114,20.114,0,0,0,.061-2.184Zm1.386.8c0,.1.025.147.1.172a2.463,2.463,0,0,0,.822.123,1.1,1.1,0,0,0,.748-.184,1.746,1.746,0,0,0,.6-1.509,1.659,1.659,0,0,0-1.631-1.877,1.933,1.933,0,0,0-.552.049c-.061.025-.086.061-.086.147Z" transform="translate(-246.802 -450.002)" fill="#fff"/>
      <path id="Trazado_189" data-name="Trazado 189" d="M342.468,503.743c-.258-.589-.429-.7-.822-.8a1.6,1.6,0,0,0-.368-.049c-.1,0-.147-.049-.147-.11,0-.086.086-.11.258-.11.564,0,1.19.037,1.583.037.294,0,.846-.037,1.435-.037.147,0,.233.037.233.11s-.074.11-.172.11a1.181,1.181,0,0,0-.417.086.2.2,0,0,0-.123.209,2.636,2.636,0,0,0,.258.81c.564,1.46,1.276,3.214,1.828,4.613.466-1.116,1.816-4.33,2.11-5.079a1.272,1.272,0,0,0,.1-.368.2.2,0,0,0-.16-.209,2.559,2.559,0,0,0-.442-.061c-.1,0-.184-.037-.184-.11s.074-.11.258-.11c.577,0,1.08.037,1.214.037.184,0,.724-.037,1.043-.037.159,0,.245.037.245.11s-.086.11-.209.11a1.1,1.1,0,0,0-.491.123c-.159.1-.319.282-.613.945-.417.957-.736,1.533-1.325,2.834-.687,1.509-1.19,2.613-1.435,3.14-.282.613-.356.76-.5.76s-.209-.135-.417-.626Z" transform="translate(-305.384 -450.001)" fill="#fff"/>
      <path id="Trazado_190" data-name="Trazado 190" d="M413.683,506.089c-.049,0-.074.025-.1.086l-.54,1.337a2.244,2.244,0,0,0-.159.638c0,.307.38.319.613.319.147,0,.184.049.184.1,0,.086-.086.11-.2.11-.38,0-.822-.037-1.2-.037-.123,0-.736.037-1.3.037-.135,0-.2-.025-.2-.11,0-.061.061-.11.147-.11.773-.074.945-.221,1.227-.932l2.6-6.146c.221-.577.343-.81.478-.81.1,0,.16.11.282.38.209.6,2.024,4.784,2.711,6.354.393.92.7,1.08.957,1.129a2.246,2.246,0,0,0,.4.025c.135,0,.184.049.184.11s-.049.11-.209.11c-.515,0-1.8.024-2.576-.025-.11-.012-.184-.037-.184-.1s.049-.074.11-.1c.11-.037.2-.074.123-.221l-.834-2.073a.093.093,0,0,0-.1-.074Zm2.2-.613c.061,0,.061-.025.049-.061l-.957-2.5c-.037-.1-.074-.123-.123,0l-.969,2.5c-.012.037,0,.061.049.061Z" transform="translate(-367.742 -448.115)" fill="#fff"/>
      <path id="Trazado_191" data-name="Trazado 191" d="M539.2,494.833c.11.773.233,1.129.6,1.239a2.452,2.452,0,0,0,.761.123c.11,0,.2.012.2.086,0,.1-.147.135-.319.135-.307,0-2-.037-2.49-.074-.282-.024-.356-.061-.356-.135s.049-.1.135-.135.11-.184.061-.527l-.748-5.471-2.711,5.643c-.282.577-.343.687-.454.687s-.233-.245-.429-.613c-.295-.564-1.264-2.441-1.411-2.785-.11-.258-.883-1.889-1.313-2.809l-.65,4.968a4.866,4.866,0,0,0-.037.577c0,.233.159.344.368.392a2.366,2.366,0,0,0,.515.061c.1,0,.184.025.184.086,0,.11-.11.135-.294.135-.515,0-1.067-.037-1.288-.037s-.822.037-1.215.037c-.123,0-.221-.025-.221-.135,0-.061.074-.086.2-.086a1.575,1.575,0,0,0,.368-.037c.344-.074.442-.552.5-.969l1.214-8c.037-.209.11-.319.208-.319s.172.061.331.38l3.349,6.919,3.337-7c.1-.2.16-.294.27-.294s.184.123.221.38Z" transform="translate(-472.749 -435.853)" fill="#fff"/>
      <path id="Trazado_192" data-name="Trazado 192" d="M653.819,505.369a4.067,4.067,0,0,1,4.453-4.1c2.7,0,4.343,1.656,4.343,3.9a4.155,4.155,0,0,1-4.441,4.269,4.041,4.041,0,0,1-4.355-4.073m7.2.2c0-2.22-1.276-3.742-3.067-3.742-1.2,0-2.552.613-2.552,3.189,0,2.135,1.165,3.852,3.2,3.852.748,0,2.417-.307,2.417-3.3" transform="translate(-585.306 -448.744)" fill="#fff"/>
      <path id="Trazado_193" data-name="Trazado 193" d="M753.505,508.313a3.83,3.83,0,0,1-1.349-3.079,3.877,3.877,0,0,1,1.276-2.87,4.936,4.936,0,0,1,3.447-1.092,9.628,9.628,0,0,1,1.57.11c.417.061.736.135,1.067.172.11.012.159.061.159.123,0,.086-.025.233-.049.6-.012.344-.012.945-.037,1.165-.012.16-.037.245-.135.245s-.135-.086-.135-.233a1.431,1.431,0,0,0-.4-.969,3.151,3.151,0,0,0-2.171-.65,2.808,2.808,0,0,0-1.963.613,3.814,3.814,0,0,0,2.368,6.342c.957,0,1.5-.1,1.914-.564a1.625,1.625,0,0,0,.356-.712c.049-.184.086-.221.172-.221s.11.074.11.159a10.415,10.415,0,0,1-.245,1.448.365.365,0,0,1-.282.307,6.216,6.216,0,0,1-1.926.233,5.557,5.557,0,0,1-3.741-1.129" transform="translate(-673.338 -448.744)" fill="#fff"/>
      <path id="Trazado_194" data-name="Trazado 194" d="M838.55,505.369a4.067,4.067,0,0,1,4.453-4.1c2.7,0,4.343,1.656,4.343,3.9a4.155,4.155,0,0,1-4.441,4.269,4.041,4.041,0,0,1-4.355-4.073m7.2.2c0-2.22-1.276-3.742-3.067-3.742-1.2,0-2.552.613-2.552,3.189,0,2.135,1.165,3.852,3.2,3.852.748,0,2.417-.307,2.417-3.3" transform="translate(-750.679 -448.744)" fill="#fff"/>
      <path id="Trazado_195" data-name="Trazado 195" d="M935.4,501.418c0-.233.037-.38.159-.38s.209.123.393.307,1.632,1.656,3.386,3.3c.8.761,2.171,2.159,2.368,2.331l-.1-4.539c-.012-.626-.1-.834-.393-.945a2.924,2.924,0,0,0-.552-.061c-.135,0-.184-.061-.184-.123,0-.086.123-.1.27-.1.54,0,1.092.037,1.362.037.135,0,.577-.037,1.092-.037.135,0,.233.025.233.11,0,.061-.049.11-.184.11a2.612,2.612,0,0,0-.307.037c-.319.086-.417.294-.43.883-.049,1.57-.073,4.306-.11,6.489,0,.282-.061.38-.159.38-.135,0-.294-.135-.528-.343-.687-.626-2-1.889-3.018-2.871-1.08-1.006-2.282-2.282-2.576-2.588l.11,4.257c.024.8.147,1.055.368,1.129a2.322,2.322,0,0,0,.576.074c.11,0,.184.037.184.1,0,.086-.1.123-.245.123-.638,0-1.067-.037-1.349-.037-.135,0-.7.037-1.227.037-.135,0-.233-.012-.233-.11,0-.061.061-.11.172-.11a3.157,3.157,0,0,0,.466-.049c.307-.086.356-.356.368-1.264.024-2.208.086-4.772.086-6.146" transform="translate(-836.404 -448.535)" fill="#fff"/>
      <path id="Trazado_196" data-name="Trazado 196" d="M1024.072,484.711c-.049,0-.073.025-.1.086l-.54,1.337a2.248,2.248,0,0,0-.16.638c0,.307.38.319.613.319.147,0,.184.049.184.1,0,.086-.086.11-.2.11-.38,0-.822-.037-1.2-.037-.123,0-.736.037-1.3.037-.135,0-.2-.025-.2-.11,0-.061.061-.11.147-.11.773-.074.945-.221,1.227-.932l2.6-6.146c.221-.577.344-.81.479-.81.1,0,.159.11.282.38.209.6,2.024,4.784,2.711,6.355.392.92.7,1.079.957,1.128a2.235,2.235,0,0,0,.4.025c.135,0,.184.049.184.11s-.049.11-.208.11c-.515,0-1.8.024-2.576-.025-.11-.012-.184-.037-.184-.1s.049-.074.11-.1c.11-.037.2-.074.123-.221l-.834-2.073a.093.093,0,0,0-.1-.074Zm2.2-.613c.061,0,.061-.025.049-.061l-.957-2.5c-.037-.1-.074-.123-.123,0l-.969,2.5c-.012.037,0,.061.049.061Zm1.3-6.722c.061.135.012.184-.049.184a2.127,2.127,0,0,0-.552.135,16.19,16.19,0,0,0-1.668.761.47.47,0,0,1-.209.086c-.025,0-.086-.012-.086-.074s.049-.1.1-.172a12.991,12.991,0,0,1,1.472-1.423.818.818,0,0,1,.331-.184.446.446,0,0,1,.245.123,2.678,2.678,0,0,1,.417.564" transform="translate(-914.169 -426.736)" fill="#fff"/>
      <path id="Trazado_197" data-name="Trazado 197" d="M135.832,629.352c0,1.129,0,1.737.185,1.9.15.132.379.194,1.067.194.467,0,.811-.009,1.032-.247a1.106,1.106,0,0,0,.229-.529c.009-.079.026-.132.1-.132s.071.044.071.15a6.96,6.96,0,0,1-.132,1.014c-.053.194-.1.238-.555.238-.811,0-1.622-.053-2.566-.053-.353,0-.714.026-1.111.026-.115,0-.176-.026-.176-.088,0-.044.035-.07.141-.07a1.442,1.442,0,0,0,.317-.035c.176-.035.22-.229.256-.485.044-.37.044-1.067.044-1.878V627.8c0-1.34,0-1.587-.018-1.869-.018-.3-.088-.441-.379-.5a1.3,1.3,0,0,0-.291-.026c-.1,0-.15-.018-.15-.079s.062-.079.194-.079c.414,0,.97.027,1.208.027.212,0,.855-.027,1.2-.027.123,0,.185.018.185.079s-.053.079-.159.079a2.339,2.339,0,0,0-.344.026c-.238.044-.309.194-.326.5-.018.282-.018.529-.018,1.869Z" transform="translate(-119.862 -559.724)" fill="#f2f2f2"/>
      <path id="Trazado_198" data-name="Trazado 198" d="M181.265,637.987c0,1.085.212,1.534.608,1.834a1.447,1.447,0,0,0,.926.282,1.476,1.476,0,0,0,1.031-.379,2.514,2.514,0,0,0,.441-1.869v-.935c0-1.128-.018-1.314-.027-1.552-.018-.256-.062-.379-.317-.423a1.877,1.877,0,0,0-.282-.035q-.132,0-.132-.079c0-.053.044-.079.167-.079.4,0,.891.026.917.026.106,0,.591-.026.908-.026.115,0,.167.026.167.079s-.044.079-.141.079a1.125,1.125,0,0,0-.229.035c-.2.035-.256.15-.273.414-.018.238-.026.432-.026,1.56v.794a2.764,2.764,0,0,1-.749,2.275,2.406,2.406,0,0,1-1.613.529,2.627,2.627,0,0,1-1.746-.52,2.36,2.36,0,0,1-.7-1.975v-1.1c0-1.146,0-1.322-.018-1.569s-.07-.353-.309-.406a2.676,2.676,0,0,0-.317-.035c-.088,0-.141-.035-.141-.088s.062-.07.185-.07c.4,0,.935.026,1.137.026.168,0,.741-.026,1.014-.026.123,0,.176.026.176.079s-.053.079-.132.079-.141.018-.229.035c-.212.035-.273.167-.282.423-.018.238-.018.458-.018,1.552Z" transform="translate(-160.612 -568.236)" fill="#f2f2f2"/>
      <path id="Trazado_199" data-name="Trazado 199" d="M241.516,637.642l-1.34-2.107a1.1,1.1,0,0,0-.652-.573,1.66,1.66,0,0,0-.282-.053c-.053,0-.115-.026-.115-.088s.053-.07.159-.07c.176,0,.741.026,1.19.026.115,0,.591-.026.9-.026q.159,0,.159.079c0,.053-.035.071-.123.079-.044.009-.141.018-.2.035a.112.112,0,0,0-.1.115.61.61,0,0,0,.1.238c.326.591.67,1.111.952,1.578.22-.317.9-1.3,1.032-1.534a.506.506,0,0,0,.088-.264.149.149,0,0,0-.132-.132,1.208,1.208,0,0,0-.238-.035c-.044,0-.115-.026-.115-.079s.026-.079.141-.079c.309,0,.661.026.82.026s.5-.026.8-.026c.079,0,.132.026.132.07s-.053.088-.123.088a1.506,1.506,0,0,0-.264.044c-.185.044-.344.22-.6.582l-1.27,1.737c.264.406,1.49,2.372,1.71,2.627a.788.788,0,0,0,.45.317,1.451,1.451,0,0,0,.291.044c.062,0,.115.035.115.079s-.062.079-.159.079c-.547,0-1.182,0-1.754-.026-.185-.009-.238-.026-.238-.071s.035-.079.106-.1c.053-.018.079-.079.026-.176-.4-.688-.873-1.446-1.2-1.975l-1.128,1.746a.454.454,0,0,0-.106.291.18.18,0,0,0,.15.132c.053.009.123.009.185.018a.106.106,0,0,1,.106.088c0,.053-.053.07-.159.07-.185,0-.705-.026-.917-.026-.167,0-.573.026-.8.026-.079,0-.123-.035-.123-.079s.044-.079.115-.079a1.405,1.405,0,0,0,.282-.035c.22-.062.379-.176.644-.547Z" transform="translate(-213.943 -568.235)" fill="#f2f2f2"/>
      <path id="Trazado_200" data-name="Trazado 200" d="M297.211,637.987c0,1.085.212,1.534.608,1.834a1.447,1.447,0,0,0,.926.282,1.476,1.476,0,0,0,1.031-.379,2.514,2.514,0,0,0,.441-1.869v-.935c0-1.128-.018-1.314-.026-1.552-.018-.256-.062-.379-.317-.423a1.877,1.877,0,0,0-.282-.035q-.132,0-.132-.079c0-.053.044-.079.168-.079.4,0,.891.026.917.026.106,0,.591-.026.908-.026.115,0,.168.026.168.079s-.044.079-.141.079a1.125,1.125,0,0,0-.229.035c-.2.035-.256.15-.273.414-.018.238-.026.432-.026,1.56v.794a2.763,2.763,0,0,1-.749,2.275,2.4,2.4,0,0,1-1.613.529,2.627,2.627,0,0,1-1.746-.52,2.36,2.36,0,0,1-.7-1.975v-1.1c0-1.146,0-1.322-.018-1.569s-.07-.353-.309-.406a2.678,2.678,0,0,0-.317-.035c-.088,0-.141-.035-.141-.088s.062-.07.185-.07c.4,0,.935.026,1.137.026.168,0,.741-.026,1.014-.026.123,0,.176.026.176.079s-.053.079-.132.079-.141.018-.229.035c-.211.035-.273.167-.282.423-.018.238-.018.458-.018,1.552Z" transform="translate(-264.409 -568.236)" fill="#f2f2f2"/>
      <path id="Trazado_201" data-name="Trazado 201" d="M361.851,636.92c0-1.146,0-1.314-.018-1.552-.018-.265-.088-.379-.326-.423-.1-.018-.2-.026-.3-.035s-.132-.026-.132-.079.053-.079.167-.079c.4,0,.935.026,1.084.026.238,0,.864-.026,1.129-.026a2.674,2.674,0,0,1,1.446.308,1.292,1.292,0,0,1,.573,1.049,2.017,2.017,0,0,1-1.032,1.64c.652.811,1.2,1.508,1.658,1.975a1.471,1.471,0,0,0,.855.52c.079.009.141.009.2.018s.106.035.106.071c0,.062-.053.088-.15.088h-.741a1.86,1.86,0,0,1-.952-.167,3.587,3.587,0,0,1-1.005-1.067c-.318-.441-.644-.908-.758-1.04a.143.143,0,0,0-.124-.044l-.626-.018a.056.056,0,0,0-.062.062v.159c0,.679,0,1.2.035,1.508.018.22.071.388.309.414a2.613,2.613,0,0,0,.37.035c.071,0,.1.035.1.071,0,.053-.053.088-.15.088-.467,0-1.084-.026-1.2-.026-.132,0-.67.026-.979.026-.1,0-.15-.026-.15-.079,0-.035.035-.079.123-.079a2.036,2.036,0,0,0,.282-.026c.15-.035.2-.194.22-.423a14.448,14.448,0,0,0,.044-1.569Zm1,.573c0,.07.018.106.071.123a1.771,1.771,0,0,0,.591.088.79.79,0,0,0,.538-.132,1.255,1.255,0,0,0,.432-1.084,1.192,1.192,0,0,0-1.173-1.349,1.391,1.391,0,0,0-.4.035c-.044.018-.062.044-.062.106Z" transform="translate(-323.238 -568.236)" fill="#f2f2f2"/>
      <path id="Trazado_202" data-name="Trazado 202" d="M411.046,638.471a1.51,1.51,0,0,0-.185-.785c-.1-.194-1.084-1.763-1.358-2.16a1.5,1.5,0,0,0-.555-.529.876.876,0,0,0-.282-.088c-.062,0-.132-.026-.132-.079s.035-.079.132-.079c.176,0,.776.026,1.04.026.15,0,.5-.026.873-.026.079,0,.123.026.123.07s-.027.071-.141.1c-.1.018-.159.062-.159.123a.558.558,0,0,0,.1.247c.106.229,1.164,2,1.287,2.213.159-.309,1.032-1.781,1.146-2.028a.987.987,0,0,0,.115-.4c0-.07-.035-.132-.185-.168-.071-.018-.141-.044-.141-.088s.035-.07.141-.07c.273,0,.52.026.758.026.159,0,.688-.026.838-.026.088,0,.15.026.15.07s-.062.088-.159.088a1.274,1.274,0,0,0-.335.079,1.07,1.07,0,0,0-.414.353,23.171,23.171,0,0,0-1.481,2.4,1.833,1.833,0,0,0-.115.741v.6c0,.123,0,.423.018.732.018.212.071.388.317.414a2.865,2.865,0,0,0,.388.035c.088,0,.132.044.132.079,0,.053-.044.079-.141.079-.5,0-1.04-.026-1.261-.026-.194,0-.714.026-1.005.026-.115,0-.176-.018-.176-.079,0-.035.044-.071.123-.079a1.113,1.113,0,0,0,.256-.035c.176-.026.256-.185.264-.406.027-.317.027-.617.027-.741Z" transform="translate(-365.723 -568.235)" fill="#f2f2f2"/>
      <path id="Trazado_203" data-name="Trazado 203" d="M498.65,630.264c0,.238-.009.256-.115.317a4.989,4.989,0,0,1-2.125.4c-2.16,0-4.073-1.023-4.073-3.456a3.3,3.3,0,0,1,1.534-2.883,4.272,4.272,0,0,1,2.372-.573,10.607,10.607,0,0,1,1.56.141,5.756,5.756,0,0,0,.7.1c.106.009.123.044.123.106a11.9,11.9,0,0,0-.062,1.446c0,.141-.027.185-.1.185s-.079-.044-.088-.115a1.238,1.238,0,0,0-.3-.732,2.82,2.82,0,0,0-1.966-.688,2.541,2.541,0,0,0-1.746.547,2.624,2.624,0,0,0-.811,2.16,3.06,3.06,0,0,0,3.068,3.315,1.953,1.953,0,0,0,.749-.1.313.313,0,0,0,.167-.326v-.829c0-.441,0-.776-.009-1.04-.009-.3-.088-.441-.379-.5a1.819,1.819,0,0,0-.344-.026c-.079,0-.132-.018-.132-.071,0-.071.062-.088.185-.088.458,0,1.014.026,1.278.026s.741-.026,1.032-.026c.115,0,.176.018.176.088,0,.053-.053.071-.115.071a1.391,1.391,0,0,0-.238.026c-.238.044-.326.194-.335.5-.009.265-.009.617-.009,1.058Z" transform="translate(-440.745 -558.671)" fill="#f2f2f2"/>
      <path id="Trazado_204" data-name="Trazado 204" d="M567.574,638.242c0,.926,0,1.446.159,1.578.123.123.317.176.935.176a1.309,1.309,0,0,0,.908-.194.9.9,0,0,0,.229-.485c.018-.07.026-.141.088-.141s.07.062.07.15a6.249,6.249,0,0,1-.132.908c-.053.176-.088.2-.476.2-.785,0-1.5-.044-2.328-.044-.317,0-.644.026-1.005.026-.106,0-.167-.026-.167-.079,0-.035.044-.07.132-.079a1.612,1.612,0,0,0,.247-.026c.185-.044.238-.185.265-.476.035-.309.035-.873.035-1.517V636.92c0-1.146,0-1.322-.018-1.561s-.079-.361-.317-.414a1.755,1.755,0,0,0-.264-.035c-.088,0-.141-.027-.141-.079s.062-.079.185-.079c.37,0,.846.026,1.076.026.168,0,.8-.026,1.1-.026.123,0,.167.026.167.079s-.044.079-.15.079a1.735,1.735,0,0,0-.291.035c-.212.035-.273.159-.291.423-.018.238-.018.406-.018,1.569Z" transform="translate(-506.504 -568.236)" fill="#f2f2f2"/>
      <path id="Trazado_205" data-name="Trazado 205" d="M611.29,637.2c-.035,0-.053.018-.07.062l-.388.961a1.615,1.615,0,0,0-.115.458c0,.22.273.229.441.229.106,0,.132.035.132.07,0,.062-.062.079-.141.079-.273,0-.591-.026-.864-.026-.088,0-.529.026-.935.026-.1,0-.141-.018-.141-.079,0-.044.044-.079.106-.079.555-.053.679-.159.882-.67l1.869-4.417c.159-.414.247-.582.344-.582.071,0,.115.079.2.273.15.432,1.455,3.439,1.948,4.567.282.661.5.776.688.811a1.6,1.6,0,0,0,.291.018c.1,0,.132.035.132.079s-.035.079-.15.079c-.37,0-1.3.018-1.852-.018-.079-.009-.132-.026-.132-.07s.035-.053.079-.07c.079-.027.141-.053.088-.159l-.6-1.49a.067.067,0,0,0-.07-.053Zm1.578-.441c.044,0,.044-.018.035-.044l-.688-1.8c-.026-.07-.053-.088-.088,0l-.7,1.8c-.009.026,0,.044.035.044Z" transform="translate(-545.37 -566.88)" fill="#f2f2f2"/>
      <path id="Trazado_206" data-name="Trazado 206" d="M678.047,638.094c.07.467.15.67.379.741a2.1,2.1,0,0,0,.476.071c.079,0,.132.026.132.07,0,.062-.088.088-.2.088-.282,0-1.27-.018-1.684-.053-.168-.009-.22-.035-.22-.079a.12.12,0,0,1,.088-.1c.062-.026.079-.088.044-.326l-.432-3.209-1.693,3.333c-.176.361-.22.423-.282.423-.079,0-.15-.141-.291-.388-.2-.353-.793-1.437-.926-1.693-.079-.167-.538-1.093-.785-1.6l-.379,2.839a3.5,3.5,0,0,0-.018.4.253.253,0,0,0,.229.265,2.989,2.989,0,0,0,.326.035c.07,0,.115.035.115.07,0,.07-.062.088-.176.088-.335,0-.688-.026-.855-.026s-.538.026-.793.026c-.071,0-.132-.018-.132-.088,0-.035.044-.07.123-.07.062-.009.124-.009.229-.018.229-.044.291-.317.335-.617l.749-4.814c.035-.15.079-.22.141-.22s.115.044.229.247l2.134,4.1,2.116-4.153c.079-.124.115-.194.185-.194s.123.079.15.247Z" transform="translate(-600.657 -566.88)" fill="#f2f2f2"/>
      <path id="Trazado_207" data-name="Trazado 207" d="M752.437,636.92c0-1.076,0-1.322-.018-1.569s-.088-.362-.317-.406a2.314,2.314,0,0,0-.309-.035c-.079,0-.132-.027-.132-.079s.053-.079.176-.079c.4,0,.935.026,1.137.026.326,0,.776-.026,1.137-.026a1.963,1.963,0,0,1,1.534.467,1.288,1.288,0,0,1,.379.979,1.829,1.829,0,0,1-1.957,1.719,1.246,1.246,0,0,1-.176-.009c-.035-.018-.1-.035-.1-.088s.062-.07.212-.07a1.142,1.142,0,0,0,1.023-1.217,1.415,1.415,0,0,0-.414-1.146,1.2,1.2,0,0,0-.794-.273,1.173,1.173,0,0,0-.282.027c-.044.009-.071.053-.071.15v2.953a14.979,14.979,0,0,0,.044,1.578c.018.22.07.379.3.406a2.867,2.867,0,0,0,.379.035c.1,0,.132.035.132.071,0,.053-.062.088-.141.088-.52,0-1.076-.026-1.252-.026-.15,0-.705.026-1.014.026-.1,0-.15-.026-.15-.079,0-.035.035-.079.132-.079a2.193,2.193,0,0,0,.273-.026c.15-.035.194-.185.22-.423a14.42,14.42,0,0,0,.044-1.569Z" transform="translate(-672.895 -568.236)" fill="#f2f2f2"/>
      <path id="Trazado_208" data-name="Trazado 208" d="M801.394,636.92c0-1.146,0-1.322-.018-1.569s-.1-.37-.264-.406a2.293,2.293,0,0,0-.273-.035c-.079,0-.123-.027-.123-.088,0-.044.053-.07.176-.07.308,0,.838.026,1.031.026.176,0,.7-.026,1-.026.106,0,.15.026.15.07,0,.062-.044.088-.123.088a1.808,1.808,0,0,0-.2.026c-.212.035-.273.168-.291.423-.026.238-.026.414-.026,1.561v1.323c0,.705.009,1.278.044,1.6.018.2.079.362.309.388a2.146,2.146,0,0,0,.335.035c.1,0,.132.044.132.079,0,.053-.062.079-.15.079-.52,0-1.023-.026-1.208-.026-.15,0-.679.026-.987.026q-.159,0-.159-.079c0-.035.035-.079.132-.079a1.488,1.488,0,0,0,.238-.026c.15-.035.22-.168.238-.379a15.119,15.119,0,0,0,.044-1.613Z" transform="translate(-716.809 -568.236)" fill="#f2f2f2"/>
      <path id="Trazado_209" data-name="Trazado 209" d="M833.475,633.846c0-.168.027-.273.115-.273s.15.088.282.22,1.173,1.19,2.433,2.372c.573.547,1.561,1.552,1.7,1.675l-.071-3.262c-.009-.45-.07-.6-.282-.679a2.091,2.091,0,0,0-.4-.044c-.1,0-.132-.044-.132-.088,0-.062.088-.07.194-.07.388,0,.785.026.979.026.1,0,.414-.026.785-.026.1,0,.167.018.167.079,0,.044-.035.079-.132.079a1.865,1.865,0,0,0-.22.026c-.229.062-.3.212-.308.635-.035,1.128-.053,3.095-.079,4.664,0,.2-.044.273-.115.273-.1,0-.212-.1-.379-.247-.494-.45-1.437-1.358-2.169-2.063-.776-.723-1.64-1.64-1.851-1.86l.079,3.059c.018.573.106.758.264.811a1.66,1.66,0,0,0,.414.053c.079,0,.132.026.132.071,0,.062-.071.088-.176.088-.458,0-.767-.026-.97-.026-.1,0-.5.026-.882.026-.1,0-.167-.009-.167-.079,0-.044.044-.079.123-.079a2.256,2.256,0,0,0,.335-.035c.22-.062.256-.256.264-.908.018-1.587.062-3.43.062-4.417" transform="translate(-745.433 -567.181)" fill="#f2f2f2"/>
      <path id="Trazado_210" data-name="Trazado 210" d="M909.388,638.968c0,.247-.018.264-.115.317a4.706,4.706,0,0,1-1.869.326c-1.957,0-3.615-.882-3.615-2.936a2.781,2.781,0,0,1,1.358-2.451,4.044,4.044,0,0,1,2.116-.485,8.1,8.1,0,0,1,1.358.123c.176.027.45.071.635.079.088.009.1.053.1.106a9.279,9.279,0,0,0-.062,1.261c0,.123-.027.159-.088.159s-.07-.044-.079-.106a1,1,0,0,0-.238-.573,2.24,2.24,0,0,0-1.746-.644,2.184,2.184,0,0,0-1.516.485,2.162,2.162,0,0,0-.67,1.781,2.589,2.589,0,0,0,2.627,2.786,1.419,1.419,0,0,0,.608-.088c.115-.044.141-.141.141-.264v-.635c0-.362,0-.626-.009-.864-.009-.291-.079-.432-.344-.467-.071-.009-.185-.018-.3-.027-.07,0-.123-.035-.123-.079s.053-.071.168-.071c.423,0,.926.018,1.164.018s.67-.018.961-.018c.1,0,.159.018.159.071s-.044.07-.106.079l-.212.018c-.22.026-.282.167-.291.423-.009.238-.009.529-.009.908Z" transform="translate(-809.083 -567.331)" fill="#f2f2f2"/>
      <path id="Trazado_211" data-name="Trazado 211" d="M56.635,650.377a.721.721,0,1,1-.721-.721.721.721,0,0,1,.721.721" transform="translate(-49.41 -581.579)" fill="#f2f2f2"/>
      <path id="Trazado_212" data-name="Trazado 212" d="M1029.5,650.377a.721.721,0,1,1-.721-.721.721.721,0,0,1,.721.721" transform="translate(-920.327 -581.579)" fill="#f2f2f2"/>
      <path id="Trazado_213" data-name="Trazado 213" d="M273.963,129.718a.629.629,0,0,1-.562-.347l-7.8-15.6-9.521,15.641a.629.629,0,0,1-.537.3H244.369a.629.629,0,0,1-.619-.737l2.969-17.021a.629.629,0,0,1,.242-.4l13.619-10.209a.627.627,0,0,1,.167-.089l12.836-4.555a.628.628,0,0,1,.378-.013l16.047,4.444a.629.629,0,0,1,.3.185l11.913,13.228a.629.629,0,0,1,.159.362l1.3,13.886a.629.629,0,0,1-.621.688l-29.095.227Zm-28.846-1.257h10.075l9.928-16.31a.629.629,0,0,1,1.1.046l8.131,16.261,28.018-.218-1.221-13L289.5,102.305l-15.679-4.342-12.559,4.457-13.343,10Z" transform="translate(-218.199 -86.544)" fill="#fff"/>
      <path id="Trazado_214" data-name="Trazado 214" d="M255.544,280.124a.629.629,0,0,1-.6-.448l-3.8-12.64-6.2,12.734a.629.629,0,1,1-1.13-.551l6.908-14.18a.629.629,0,0,1,1.167.094l4.268,14.18a.63.63,0,0,1-.6.81" transform="translate(-218.198 -236.95)" fill="#fff"/>
      <path id="Trazado_215" data-name="Trazado 215" d="M299.327,255.852a.629.629,0,0,1-.534-.959l8.155-13.2-15.921-2.445-14.28,2.415a.629.629,0,0,1-.473-.11l-3.939-2.841a.629.629,0,0,1,.736-1.02l3.726,2.687,14.121-2.388a.63.63,0,0,1,.2,0l16.96,2.6a.629.629,0,0,1,.439.952l-8.654,14.008a.628.628,0,0,1-.535.3" transform="translate(-243.563 -212.679)" fill="#fff"/>
      <path id="Trazado_216" data-name="Trazado 216" d="M310.293,154.455a.629.629,0,0,1-.5-1l9.675-13.044a.607.607,0,0,1,.041-.051.618.618,0,0,1,.079-.075h0a.625.625,0,0,1,.375-.135h.032l17.319.4a.629.629,0,0,1,.381,1.117l-12.622,10.223a.629.629,0,0,1-.971-.234l-4.264-9.631L310.8,154.2a.628.628,0,0,1-.505.254m10.656-13.028,3.967,8.962,10.652-8.628Z" transform="translate(-277.215 -125.461)" fill="#fff"/>
      <path id="Trazado_217" data-name="Trazado 217" d="M543.485,129.561a.629.629,0,0,1-.518-.273l-9.5-13.852a.629.629,0,0,1,.382-.969l11.855-2.641-4.87-9.433-11.159.488a.625.625,0,0,1-.493-.206l-4.486-4.95a.629.629,0,0,1,.932-.844l4.288,4.732,11.266-.493a.627.627,0,0,1,.586.34l5.427,10.512.012.024,7.79,16.6a.629.629,0,0,1-1.138.534l-6.964-14.839-2.79,14.76a.629.629,0,0,1-.618.512m-8.456-14.069,8.119,11.838,2.693-14.246Z" transform="translate(-469.566 -86.544)" fill="#fff"/>
      <path id="Trazado_218" data-name="Trazado 218" d="M572.307,158a.629.629,0,0,1-.6-.427l-4.339-12.827a.629.629,0,0,1,.915-.743l16.953,9.987,6.445,2.7a.629.629,0,0,1-.485,1.16l-6.485-2.713a.622.622,0,0,1-.077-.038l-15.534-9.151,3.8,11.226a.629.629,0,0,1-.6.83" transform="translate(-507.889 -128.835)" fill="#fff"/>
      <rect id="Rectángulo_89" data-name="Rectángulo 89" width="1.257" height="20.644" transform="translate(91.774 18.194)" fill="#fff"/>
      <path id="Trazado_219" data-name="Trazado 219" d="M830.893,180.02h-1.258v-.629a7.146,7.146,0,0,1,1.841-5.292,5.479,5.479,0,0,1,3.632-1.543l.629.008-.015,1.257-.626-.008a4.265,4.265,0,0,0-2.749,1.194,5.974,5.974,0,0,0-1.454,4.384Z" transform="translate(-742.698 -154.475)" fill="#fff"/>
      <path id="Trazado_220" data-name="Trazado 220" d="M881.852,180.019h-1.258v-.629a5.974,5.974,0,0,0-1.454-4.383,4.266,4.266,0,0,0-2.75-1.194h0l-.626,0-.013-1.251.626-.008a5.47,5.47,0,0,1,3.633,1.543,7.147,7.147,0,0,1,1.841,5.292Z" transform="translate(-783.983 -154.473)" fill="#fff"/>
      <path id="Trazado_221" data-name="Trazado 221" d="M884.922,172.866l-.367-.511c-3.033-4.22-9.05-2.795-9.11-2.78l-.61.15-.3-1.219.609-.152a12.8,12.8,0,0,1,3.845-.241,8.736,8.736,0,0,1,6.59,3.507l.367.511Z" transform="translate(-782.891 -150.456)" fill="#fff"/>
      <path id="Trazado_222" data-name="Trazado 222" d="M874.619,142.289l-1.069-.658.328-.535a10.154,10.154,0,0,1,2.475-2.608,6.6,6.6,0,0,1,6.809-.816l.577.25-.5,1.154-.577-.25a5.335,5.335,0,0,0-5.54.657,9.028,9.028,0,0,0-2.174,2.271Z" transform="translate(-782.011 -122.715)" fill="#fff"/>
      <path id="Trazado_223" data-name="Trazado 223" d="M801.918,142.289l-.329-.535a9.027,9.027,0,0,0-2.174-2.271,5.334,5.334,0,0,0-5.54-.657l-.577.25-.5-1.154.577-.25a6.6,6.6,0,0,1,6.81.816,10.159,10.159,0,0,1,2.475,2.608l.329.536Z" transform="translate(-709.722 -122.713)" fill="#fff"/>
      <path id="Trazado_224" data-name="Trazado 224" d="M781.19,172.867l-1.021-.734.367-.511a8.736,8.736,0,0,1,6.59-3.507,12.817,12.817,0,0,1,3.845.241l.61.152-.3,1.22-.61-.152c-.072-.018-6.079-1.436-9.11,2.78Z" transform="translate(-698.416 -150.456)" fill="#fff"/>
      <rect id="Rectángulo_90" data-name="Rectángulo 90" width="1.257" height="24.716" transform="translate(17.29 17.117)" fill="#fff"/>
      <path id="Trazado_225" data-name="Trazado 225" d="M120.093,169.745h-1.257v-.629a7.146,7.146,0,0,1,1.841-5.292,5.475,5.475,0,0,1,3.632-1.543l.629.008-.015,1.257-.626-.008a4.267,4.267,0,0,0-2.749,1.194,5.975,5.975,0,0,0-1.454,4.384Z" transform="translate(-106.383 -145.276)" fill="#fff"/>
      <path id="Trazado_226" data-name="Trazado 226" d="M171.052,169.745h-1.257v-.629a5.974,5.974,0,0,0-1.454-4.384,4.267,4.267,0,0,0-2.75-1.194h0l-.626,0-.012-1.251.626-.008a5.468,5.468,0,0,1,3.632,1.543,7.146,7.146,0,0,1,1.841,5.292Z" transform="translate(-147.668 -145.276)" fill="#fff"/>
      <path id="Trazado_227" data-name="Trazado 227" d="M174.123,162.593l-.367-.511c-3.034-4.22-9.05-2.795-9.11-2.78l-.61.15-.3-1.219.609-.152a12.814,12.814,0,0,1,3.845-.241,8.736,8.736,0,0,1,6.59,3.507l.367.511Z" transform="translate(-146.576 -141.259)" fill="#fff"/>
      <path id="Trazado_228" data-name="Trazado 228" d="M163.818,132.017l-1.072-.658.329-.536a10.16,10.16,0,0,1,2.475-2.608,6.605,6.605,0,0,1,6.81-.816l.577.25-.5,1.154-.577-.25a5.34,5.34,0,0,0-5.57.679,8.94,8.94,0,0,0-2.143,2.249Z" transform="translate(-145.692 -113.519)" fill="#fff"/>
      <path id="Trazado_229" data-name="Trazado 229" d="M91.118,132.016l-.329-.535a9.029,9.029,0,0,0-2.174-2.271,5.335,5.335,0,0,0-5.54-.657l-.577.25-.5-1.154.577-.25a6.6,6.6,0,0,1,6.81.816,10.16,10.16,0,0,1,2.476,2.608l.329.536Z" transform="translate(-73.406 -113.517)" fill="#fff"/>
      <path id="Trazado_230" data-name="Trazado 230" d="M70.39,162.592l-1.021-.734.367-.511a8.736,8.736,0,0,1,6.59-3.507,12.805,12.805,0,0,1,3.845.241l.61.152-.3,1.22-.61-.152c-.072-.018-6.079-1.436-9.11,2.78Z" transform="translate(-62.1 -141.258)" fill="#fff"/>
      <path id="Trazado_243" data-name="Trazado 243" d="M0,0H1.257V14.4L-.017,13.239Z" transform="translate(76.434 4.938)" fill="#fff"/>
      <path id="Trazado_231" data-name="Trazado 231" d="M684.5,53.522h-1.258v-.629a7.146,7.146,0,0,1,1.841-5.292,5.48,5.48,0,0,1,3.632-1.543l.629.008-.015,1.257-.626-.008a4.266,4.266,0,0,0-2.749,1.194,5.974,5.974,0,0,0-1.454,4.384Z" transform="translate(-611.648 -41.232)" fill="#fff"/>
      <path id="Trazado_232" data-name="Trazado 232" d="M735.461,53.521H734.2v-.629a5.974,5.974,0,0,0-1.454-4.384A4.267,4.267,0,0,0,730,47.315h0l-.626,0-.012-1.251.626-.008A5.471,5.471,0,0,1,733.62,47.6a7.146,7.146,0,0,1,1.841,5.292Z" transform="translate(-652.933 -41.231)" fill="#fff"/>
      <path id="Trazado_233" data-name="Trazado 233" d="M738.532,46.368l-.367-.511c-3.033-4.22-9.05-2.795-9.11-2.78l-.61.15-.3-1.219.609-.152a12.8,12.8,0,0,1,3.845-.241,8.736,8.736,0,0,1,6.59,3.507l.367.511Z" transform="translate(-651.841 -37.213)" fill="#fff"/>
      <path id="Trazado_234" data-name="Trazado 234" d="M728.229,15.792l-1.069-.658.328-.535a10.156,10.156,0,0,1,2.476-2.608,6.6,6.6,0,0,1,6.809-.816l.577.25-.5,1.154-.577-.25a5.335,5.335,0,0,0-5.54.657,9.03,9.03,0,0,0-2.174,2.271Z" transform="translate(-650.961 -9.473)" fill="#fff"/>
      <path id="Trazado_235" data-name="Trazado 235" d="M655.529,15.792l-.329-.535a9.028,9.028,0,0,0-2.174-2.271,5.334,5.334,0,0,0-5.54-.657l-.577.25-.5-1.154.577-.25a6.6,6.6,0,0,1,6.81.816,10.159,10.159,0,0,1,2.475,2.608l.329.536Z" transform="translate(-578.673 -9.472)" fill="#fff"/>
      <path id="Trazado_236" data-name="Trazado 236" d="M634.8,46.369l-1.021-.734.367-.511a8.736,8.736,0,0,1,6.59-3.507,12.822,12.822,0,0,1,3.845.241l.61.152-.3,1.22-.61-.152c-.072-.018-6.079-1.436-9.11,2.78Z" transform="translate(-567.366 -37.214)" fill="#fff"/>
      <path id="Trazado_237" data-name="Trazado 237" d="M290.048,62.482l-.808-.958.478-.4a4.663,4.663,0,0,1,5.877-.253l.493.39-.781.986-.493-.39c-2.036-1.613-4.194.152-4.285.228Z" transform="translate(-258.931 -53.642)" fill="#fff"/>
      <path id="Trazado_238" data-name="Trazado 238" d="M339.943,60.309l-.868-.91.455-.434a4.663,4.663,0,0,1,5.875-.289l.515.36-.721,1.03-.514-.36c-.106-.073-2.412-1.623-4.288.167Z" transform="translate(-303.544 -51.709)" fill="#fff"/>
      <path id="Trazado_239" data-name="Trazado 239" d="M211.573,43.494l-.856-.911.454-.429a3.054,3.054,0,0,1,3.837-.366l.513.363-.726,1.027-.513-.363a1.816,1.816,0,0,0-2.25.256Z" transform="translate(-188.636 -36.932)" fill="#fff"/>
      <path id="Trazado_240" data-name="Trazado 240" d="M241.47,40.655l-.916-.861.431-.458a3.053,3.053,0,0,1,3.832-.406l.534.332-.664,1.068L244.155,40a1.814,1.814,0,0,0-2.254.2Z" transform="translate(-215.347 -34.407)" fill="#fff"/>
      <path id="Trazado_241" data-name="Trazado 241" d="M262.04,5.066l-.863-.914.457-.432a3.053,3.053,0,0,1,3.837-.366l.513.363-.726,1.027-.513-.363a1.823,1.823,0,0,0-2.247.253Z" transform="translate(-233.808 -2.526)" fill="#fff"/>
      <path id="Trazado_242" data-name="Trazado 242" d="M291.954,2.221l-.916-.861L291.469.9A3.053,3.053,0,0,1,295.3.5l.534.332L295.171,1.9l-.532-.331a1.815,1.815,0,0,0-2.255.2Z" transform="translate(-260.54 0)" fill="#fff"/>
    </g>
  </g>
</svg>
