<svg xmlns="http://www.w3.org/2000/svg" width="17" height="17" viewBox="0 0 17 17">
  <g id="Grupo_381" data-name="Grupo 381" transform="translate(-49.5 -3.5)">
    <path id="Trazado_514" data-name="Trazado 514" d="M55,20.5A3.487,3.487,0,0,1,51.5,17V8.479a3.382,3.382,0,0,1-1.437-.991A2.241,2.241,0,0,1,49.5,6.007a2.5,2.5,0,1,1,5,0,2.241,2.241,0,0,1-.562,1.481,3.382,3.382,0,0,1-1.437.991V17a2.5,2.5,0,0,0,5,0V7a3.5,3.5,0,1,1,7,0v8.521a3.382,3.382,0,0,1,1.438.991,2.241,2.241,0,0,1,.563,1.481,2.5,2.5,0,1,1-5,0,2.288,2.288,0,0,1,.563-1.493,3.153,3.153,0,0,1,1.438-.979V7a2.5,2.5,0,0,0-5,0V17A3.487,3.487,0,0,1,55,20.5Zm-3-13A1.507,1.507,0,0,0,53.5,6a1.5,1.5,0,1,0-2.559,1.059A1.444,1.444,0,0,0,52,7.5Zm12,12a1.507,1.507,0,1,0-1.059-.441A1.444,1.444,0,0,0,64,19.5Z" fill="#1c1b1f"/>
  </g>
</svg>
