<svg xmlns="http://www.w3.org/2000/svg" width="18.21" height="16" viewBox="0 0 18.21 16">
  <g id="Grupo_340" data-name="Grupo 340" transform="translate(-4 -4)">
    <path id="Trazado_510" data-name="Trazado 510" d="M4,20V6.5A2.5,2.5,0,0,1,6.5,4H10a2.5,2.5,0,0,1,2.5,2.5V20Zm6.731-4.5H11.5v-6h-.769a.592.592,0,0,0-.615.615v4.769a.592.592,0,0,0,.615.615ZM5,19h6.5V16.5h-.769a1.612,1.612,0,0,1-1.615-1.615V10.115A1.612,1.612,0,0,1,10.731,8.5H11.5v-2A1.507,1.507,0,0,0,10,5H6.5A1.507,1.507,0,0,0,5,6.5Zm11.7-5.925a3.91,3.91,0,0,1-.948-.117,7.993,7.993,0,0,1-.936-.3l.317-.939a5.754,5.754,0,0,0,.824.26,3.427,3.427,0,0,0,.768.092,2.588,2.588,0,0,0,.744-.11,2.772,2.772,0,0,0,.75-.367,3.29,3.29,0,0,1,1.065-.508,4.063,4.063,0,0,1,1.015-.14,4.578,4.578,0,0,1,.961.1,6.188,6.188,0,0,1,.949.284l-.337.977q-.537-.181-.861-.273a2.6,2.6,0,0,0-.713-.092,2.859,2.859,0,0,0-.8.122,3.123,3.123,0,0,0-.9.455,2.791,2.791,0,0,1-.928.43A4.069,4.069,0,0,1,16.7,13.075Zm.025-3.515a4.1,4.1,0,0,1-.964-.117,7.369,7.369,0,0,1-.946-.3l.317-.958q.5.179.879.275a2.939,2.939,0,0,0,.714.1,2.555,2.555,0,0,0,.735-.107,2.94,2.94,0,0,0,.76-.37,3.639,3.639,0,0,1,1.068-.508,3.878,3.878,0,0,1,1.012-.14,4.327,4.327,0,0,1,.942.1,7.935,7.935,0,0,1,.967.284l-.337.977q-.5-.167-.869-.266a2.749,2.749,0,0,0-.7-.1,2.843,2.843,0,0,0-.807.119,3.157,3.157,0,0,0-.907.477,2.626,2.626,0,0,1-.868.4A3.876,3.876,0,0,1,16.725,9.56Zm0,7.031a4.065,4.065,0,0,1-.961-.117,7.694,7.694,0,0,1-.949-.3l.317-.958q.435.154.842.262a2.927,2.927,0,0,0,.75.109,2.557,2.557,0,0,0,.735-.107,2.943,2.943,0,0,0,.76-.37,3.285,3.285,0,0,1,1.09-.5,4.243,4.243,0,0,1,1.015-.143,4.34,4.34,0,0,1,.938.108,6.932,6.932,0,0,1,.946.281l-.317.977q-.5-.167-.891-.266a2.926,2.926,0,0,0-.7-.1,2.763,2.763,0,0,0-.847.141,3.045,3.045,0,0,0-.866.455,2.684,2.684,0,0,1-.853.4A3.785,3.785,0,0,1,16.725,16.59Z" fill="#1c1b1f"/>
  </g>
</svg>
