<svg xmlns="http://www.w3.org/2000/svg" width="32" height="32" viewBox="0 0 32 32">
  <g id="Grupo_491" data-name="Grupo 491" transform="translate(-34.131 -1130)">
    <g id="Elipse_6" data-name="Elipse 6" transform="translate(34.131 1130)" fill="#fff" stroke="#d5d5d5" stroke-width="1">
      <circle cx="16" cy="16" r="16" stroke="none"/>
      <circle cx="16" cy="16" r="15.5" fill="none"/>
    </g>
    <g id="Grupo_420" data-name="Grupo 420" transform="translate(47.748 1140.669)">
      <g id="Grupo_436" data-name="Grupo 436" transform="translate(-3)">
        <path id="Trazado_521" data-name="Trazado 521" d="M7.46,14.413a.446.446,0,0,1,0-.633l4.588-4.588-4.6-4.6a.414.414,0,0,1-.128-.3.441.441,0,0,1,.143-.318.446.446,0,0,1,.633,0l4.884,4.887a.467.467,0,0,1,.109.159.516.516,0,0,1,0,.355.467.467,0,0,1-.109.159l-4.9,4.9a.413.413,0,0,1-.3.128A.439.439,0,0,1,7.46,14.413Z" transform="translate(-7.316 -3.837)" fill="#1c1b1f"/>
        <path id="Trazado_522" data-name="Trazado 522" d="M7.46,14.413a.446.446,0,0,1,0-.633l4.588-4.588-4.6-4.6a.414.414,0,0,1-.128-.3.441.441,0,0,1,.143-.318.446.446,0,0,1,.633,0l4.884,4.887a.467.467,0,0,1,.109.159.516.516,0,0,1,0,.355.467.467,0,0,1-.109.159l-4.9,4.9a.413.413,0,0,1-.3.128A.439.439,0,0,1,7.46,14.413Z" transform="translate(17.918 14.556) rotate(180)" fill="#1c1b1f"/>
      </g>
    </g>
  </g>
</svg>
