<svg xmlns="http://www.w3.org/2000/svg" width="18.268" height="18.665" viewBox="0 0 18.268 18.665">
  <g id="Grupo_320" data-name="Grupo 320" transform="translate(-2.866 -2.835)">
    <path id="Trazado_503" data-name="Trazado 503" d="M12,21.5a.49.49,0,0,1-.5-.5V8.5H4.921a.411.411,0,0,1-.23-.763l6.736-4.726a1.017,1.017,0,0,1,1.146,0l6.736,4.726a.411.411,0,0,1-.23.763H12.5V21a.491.491,0,0,1-.5.5Zm-8,0a.49.49,0,0,1-.5-.5V16.327l-.625-3.483a.477.477,0,0,1,.4-.572.461.461,0,0,1,.365.08.482.482,0,0,1,.2.315l.633,3.448H7.692a.793.793,0,0,1,.808.808V21a.5.5,0,1,1-1,0V17.115h-3V21a.491.491,0,0,1-.5.5Zm12,0a.49.49,0,0,1-.5-.5V16.923a.793.793,0,0,1,.808-.808h3.215l.633-3.448a.485.485,0,0,1,.19-.315.446.446,0,0,1,.363-.08.5.5,0,0,1,.336.2.476.476,0,0,1,.08.374L20.5,16.327V21a.5.5,0,1,1-1,0V17.115h-3V21a.491.491,0,0,1-.5.5ZM6.773,7.5H17.227L12,3.835Z" fill="#1c1b1f"/>
  </g>
</svg>
