<svg xmlns="http://www.w3.org/2000/svg" width="16" height="19.5" viewBox="0 0 16 19.5">
  <g id="Grupo_380" data-name="Grupo 380" transform="translate(-4.323 -1.508)">
    <path id="Trazado_513" data-name="Trazado 513" d="M10.208,2.508a.491.491,0,0,1-.5-.5.49.49,0,0,1,.5-.5h4.231a.491.491,0,0,1,.5.5.49.49,0,0,1-.5.5Zm2.116,11.115a.49.49,0,0,0,.5-.5V8.893a.5.5,0,1,0-1,0v4.231a.491.491,0,0,0,.5.5Zm0,7.385a7.8,7.8,0,0,1-3.108-.626,8.015,8.015,0,0,1-4.266-4.266,8.029,8.029,0,0,1,0-6.216A8.016,8.016,0,0,1,9.215,5.634a7.954,7.954,0,0,1,5.92-.107A8.7,8.7,0,0,1,17.627,7l.739-.738a.5.5,0,0,1,.344-.15.467.467,0,0,1,.363.15.472.472,0,0,1,0,.708l-.738.738A8.7,8.7,0,0,1,19.8,10.2a7.953,7.953,0,0,1-.107,5.92,8.015,8.015,0,0,1-4.266,4.266A7.8,7.8,0,0,1,12.323,21.008Zm0-1a6.745,6.745,0,0,0,4.95-2.05,6.745,6.745,0,0,0,2.05-4.95,6.745,6.745,0,0,0-2.05-4.95,6.745,6.745,0,0,0-4.95-2.05,6.745,6.745,0,0,0-4.95,2.05,6.745,6.745,0,0,0-2.05,4.95,6.745,6.745,0,0,0,2.05,4.95A6.745,6.745,0,0,0,12.323,20.008Z" fill="#1c1b1f"/>
  </g>
</svg>
