<svg xmlns="http://www.w3.org/2000/svg" width="17.615" height="18.846" viewBox="0 0 17.615 18.846">
  <g id="Grupo_329" data-name="Grupo 329" transform="translate(-3.192 -2.577)">
    <path id="Trazado_506" data-name="Trazado 506" d="M18,8.192,17.135,6.25l-1.942-.865,1.942-.865L18,2.577l.865,1.942,1.942.865-1.942.865Zm0,13.231-.865-1.942-1.942-.865,1.942-.865L18,15.808l.865,1.942,1.942.865-1.942.865ZM8.769,17.577,7.038,13.731,3.192,12l3.846-1.731L8.769,6.423,10.5,10.269,14.346,12,10.5,13.731Zm0-2.427,1-2.15,2.15-1-2.15-1-1-2.15-1,2.15-2.15,1,2.15,1Z" fill="#1c1b1f"/>
  </g>
</svg>
