<svg id="Grupo_239" data-name="Grupo 239" xmlns="http://www.w3.org/2000/svg" xmlns:xlink="http://www.w3.org/1999/xlink" width="240.055" height="110.127" viewBox="0 0 240.055 110.127">
  <defs>
    <clipPath id="clip-path">
      <rect id="Rectángulo_265" data-name="Rectángulo 265" width="240.055" height="110.127" fill="none"/>
    </clipPath>
  </defs>
  <g id="Grupo_238" data-name="Grupo 238" clip-path="url(#clip-path)">
    <path id="Trazado_275" data-name="Trazado 275" d="M118.092,25.243S111.544,7.2,119.842,7.248s22.617-5.585,26.582,0,6.26,17.2-1.769,25.1-17.821,0-17.821,0Z" transform="translate(-21.254 -0.878)" fill="#f69131"/>
    <path id="Trazado_276" data-name="Trazado 276" d="M127.4.218c4.177-.479,12.268-.586,12.073,4.246-.215,5.287-8.252,1.658-11.745,1.957-4.674.393-4.853,5.477-8.488,6.2-2.974.592-5.7-1.084-5.873-2.937-.261-2.872,6.787-7.861,9.463-8.809A21.29,21.29,0,0,1,127.4.218" transform="translate(-20.834 0)" fill="#452819" fill-rule="evenodd"/>
    <path id="Trazado_277" data-name="Trazado 277" d="M156.352,25.075c-3.086.058-2.443-2.623-3.263-4.567a21.637,21.637,0,0,0-2.937-4.9c-1.3-1.46-4.822-2.8-5.22-4.567-.588-2.618,2.254-7.072,4.243-7.179,2.975-.162,7.035,9.13,7.83,12.4.828,3.4,1.779,8.7-.652,8.809" transform="translate(-26.623 -0.71)" fill="#452819" fill-rule="evenodd"/>
    <path id="Trazado_278" data-name="Trazado 278" d="M148.084,29.624c2.606.969-2.524,10.41-5.61,11.879a13.506,13.506,0,0,1-6.6.992c-5.348-.31-12.374-4.846-17.161-9.571-4.039-3.985-10.532-13.456-5.943-15.843,8.367-4.607,8.292,9.683,13.534,13.535,3.452,2.533,9.052,2.867,13.2,1.65,2.795-.824,4.418-4.29,8.578-2.642" transform="translate(-20.436 -2.973)" fill="#452819" fill-rule="evenodd"/>
    <path id="Trazado_279" data-name="Trazado 279" d="M139.7,16.338c.069,3.633-4.6,5.678-7.833,4.9a6.371,6.371,0,0,1-3.589-3.915c-.665-6.081,11.422-2.667,11.422-.981" transform="translate(-23.571 -2.545)" fill="#452819" fill-rule="evenodd"/>
    <path id="Trazado_280" data-name="Trazado 280" d="M189.646,39.437s-14.355,5.207-14.315-1.392-4.443-17.989,0-21.142,13.682-4.978,19.967,1.407,0,14.171,0,14.171Z" transform="translate(-31.863 -2.578)" fill="#f69131"/>
    <path id="Trazado_281" data-name="Trazado 281" d="M169.742,33.522c-.384-3.325-.468-9.761,3.375-9.6,4.208.171,1.321,6.561,1.558,9.341.314,3.716,4.356,3.861,4.93,6.749.469,2.367-.864,4.539-2.337,4.672-2.284.209-6.255-5.4-7.006-7.526a16.661,16.661,0,0,1-.521-3.632" transform="translate(-31.165 -4.396)" fill="#452819" fill-rule="evenodd"/>
    <path id="Trazado_282" data-name="Trazado 282" d="M192.464,10.736c.051,2.882-2.454,2.284-4.269,3.05a20.175,20.175,0,0,0-4.573,2.742c-1.367,1.214-2.614,4.508-4.269,4.879-2.446.552-6.609-2.107-6.709-3.964-.149-2.778,8.532-6.572,11.586-7.316,3.174-.775,8.236-1.058,8.234.609" transform="translate(-31.73 -1.748)" fill="#452819" fill-rule="evenodd"/>
    <path id="Trazado_283" data-name="Trazado 283" d="M193.428,15.787c2.982-1.106,8.069,1.955,9.208,4.349a10.465,10.465,0,0,1,.769,5.116c-.242,4.144-4.14,9.244-7.418,13.3-2.525,3.12-10.415,8.4-12.273,4.6-2.676-6.912,7.5-6.424,10.484-10.487,1.965-2.676,2.223-7.015,1.28-10.231-.64-2.166-5.087-5.52-2.049-6.649" transform="translate(-33.684 -2.859)" fill="#452819" fill-rule="evenodd"/>
    <path id="Trazado_284" data-name="Trazado 284" d="M187.989,26.925c2.344,1.168.6,5.69-1.628,7.051-.97.594-3.473.519-4.157-.18-2.614-2.671,4.323-7.3,5.785-6.871" transform="translate(-33.381 -4.943)" fill="#452819" fill-rule="evenodd"/>
    <path id="Trazado_285" data-name="Trazado 285" d="M84.693,40.057s-9.417-4.4-6.219-7.557,6.517-10.8,10.173-10.176,8.982,4.188,8.933,10.287-6.819,6.82-6.819,6.82Z" transform="translate(-14.301 -4.096)" fill="#f69131"/>
    <path id="Trazado_286" data-name="Trazado 286" d="M78.943,27.366c1.414-1.785,4.473-4.926,6.244-3,1.943,2.109-2.52,3.8-3.745,5.246-1.638,1.943.242,3.953-.877,5.621C79.654,36.6,77.97,37,77.2,36.359c-1.2-1-.413-5.608.25-7a11.567,11.567,0,0,1,1.5-1.994" transform="translate(-14.074 -4.367)" fill="#452819" fill-rule="evenodd"/>
    <path id="Trazado_287" data-name="Trazado 287" d="M99.151,27.344c-1.16,1.2-1.938-.071-3-.5a11.674,11.674,0,0,0-3-.749c-1.059-.063-2.915.776-3.746.25-1.228-.776-1.845-3.57-1.126-4.371,1.078-1.2,6.188.8,7.744,1.745,1.619.987,4.168,2.453,3.123,3.626" transform="translate(-16.17 -3.97)" fill="#452819" fill-rule="evenodd"/>
    <path id="Trazado_288" data-name="Trazado 288" d="M97.547,30.769c1.893-.557,2.986,4.893,2.372,6.618A7.2,7.2,0,0,1,97.8,40.26c-2.144,1.911-6.516,2.85-10.117,2.874-3.037.02-9.605-1.191-8.245-3.747,2.071-4.682,6.8.528,10.243,0A8.675,8.675,0,0,0,95.3,35.014c.745-1.367.049-3.293,2.247-4.245" transform="translate(-14.566 -5.648)" fill="#452819" fill-rule="evenodd"/>
    <path id="Trazado_289" data-name="Trazado 289" d="M91.788,32.906c.674,1-2.487,3.075-4.243,2.653A3.229,3.229,0,0,1,85.6,33.437c.029-2.58,5.784-1.123,6.184-.531" transform="translate(-15.733 -5.874)" fill="#452819" fill-rule="evenodd"/>
    <path id="Trazado_290" data-name="Trazado 290" d="M163.262,41.155a1.592,1.592,0,0,1,.668,2.773c-2.2,1.749-3.051.382-3.173-1.412-.059-.861,1.447-1.67,2.5-1.361" transform="translate(-29.546 -7.552)" fill="#452819" fill-rule="evenodd"/>
    <path id="Trazado_291" data-name="Trazado 291" d="M105.367,14c.646,1.387.236.975,0,2.529s-5.193.859-5.558-.5c-1-3.746,4.914-3.408,5.558-2.025" transform="translate(-18.323 -2.397)" fill="#452819" fill-rule="evenodd"/>
    <path id="Trazado_292" data-name="Trazado 292" d="M142.507,24.273c.45,1.382-.006,1.543-.819,2.478s-2.019,1.549-3.061-1.069,3.419-2.827,3.879-1.409" transform="translate(-25.45 -4.301)" fill="#452819" fill-rule="evenodd"/>
    <path id="Trazado_293" data-name="Trazado 293" d="M110.318,40.511c2.586-1.493,5.153-2.768,5.42.263.407,5.656-10.363,6.893-9.754,3.394.181-1.627,2.34-2.5,4.334-3.657" transform="translate(-19.475 -7.154)" fill="#452819" fill-rule="evenodd"/>
    <path id="Trazado_294" data-name="Trazado 294" d="M4.542,78.812c0,2.644,0,4.068.433,4.439.35.312.887.455,2.5.455,1.095,0,1.9-.02,2.417-.579a2.57,2.57,0,0,0,.537-1.236c.02-.188.06-.312.227-.312.144,0,.165.1.165.349a16.278,16.278,0,0,1-.309,2.377c-.124.451-.228.557-1.3.557-1.485,0-2.558-.042-3.488-.062-.929-.044-1.672-.062-2.52-.062-.227,0-.68,0-1.177.018-.475,0-1.012.044-1.423.044-.269,0-.411-.062-.411-.21,0-.1.082-.161.327-.161a3.349,3.349,0,0,0,.746-.086c.411-.081.514-.535.6-1.135.1-.866.1-2.5.1-4.4V75.18c0-3.138,0-3.715-.041-4.375-.042-.7-.207-1.034-.887-1.177a3.054,3.054,0,0,0-.682-.064c-.228,0-.35-.04-.35-.184s.144-.188.456-.188c.969,0,2.268.064,2.827.064.5,0,2-.064,2.809-.064.289,0,.432.045.432.188s-.124.184-.37.184a5.411,5.411,0,0,0-.806.064c-.557.1-.723.454-.764,1.177-.042.659-.042,1.237-.042,4.375Z" transform="translate(0 -12.717)" fill="#452819"/>
    <path id="Trazado_295" data-name="Trazado 295" d="M17.978,79.31c-.1,0-.144.042-.185.165l-1.115,2.952a3.97,3.97,0,0,0-.311,1.259c0,.373.187.642.827.642H17.5c.25,0,.311.037.311.161,0,.165-.123.209-.351.209-.66,0-1.548-.062-2.187-.062-.229,0-1.363.062-2.437.062-.269,0-.391-.044-.391-.209,0-.124.084-.161.246-.161a5.708,5.708,0,0,0,.643-.045c.948-.122,1.339-.823,1.752-1.855l5.182-12.965c.25-.6.37-.826.576-.826.188,0,.312.188.518.661.494,1.137,3.8,9.559,5.117,12.7.787,1.859,1.384,2.147,1.818,2.249a4.415,4.415,0,0,0,.868.086c.165,0,.268.02.268.161,0,.165-.184.209-.948.209-.744,0-2.25,0-3.9-.044-.371-.018-.619-.018-.619-.165,0-.124.082-.161.289-.183a.339.339,0,0,0,.185-.475l-1.652-4.377a.2.2,0,0,0-.206-.143Zm4.21-1.034c.1,0,.125-.059.1-.122l-1.857-5.1c-.02-.082-.042-.187-.1-.187s-.105.1-.127.187l-1.9,5.076c-.019.086,0,.144.084.144Z" transform="translate(-2.287 -12.615)" fill="#452819"/>
    <path id="Trazado_296" data-name="Trazado 296" d="M43.579,69.173c.062-.349.186-.537.351-.537s.289.1.557.642L50.123,80.92l5.615-11.785c.165-.333.269-.5.455-.5s.309.208.371.642l1.878,12.759c.187,1.3.393,1.9,1.012,2.081a4.109,4.109,0,0,0,1.279.21c.185,0,.331.02.331.143,0,.165-.249.227-.538.227-.517,0-3.364-.062-4.19-.124-.475-.042-.6-.1-.6-.225,0-.106.082-.167.227-.23.124-.042.188-.31.1-.888l-1.239-9.083h-.082l-4.5,9.372c-.473.969-.578,1.158-.762,1.158s-.394-.415-.723-1.033c-.5-.95-2.125-4.11-2.377-4.683-.184-.436-1.422-3.038-2.144-4.585h-.083l-1.073,8.215a8.074,8.074,0,0,0-.062.971c0,.392.269.578.619.664a4.145,4.145,0,0,0,.868.1c.165,0,.309.037.309.143,0,.183-.186.227-.5.227-.868,0-1.8-.062-2.167-.062-.393,0-1.383.062-2.046.062-.2,0-.37-.044-.37-.227,0-.106.125-.143.33-.143a2.512,2.512,0,0,0,.619-.065c.577-.122.744-.926.846-1.628Z" transform="translate(-7.304 -12.615)" fill="#452819"/>
    <path id="Trazado_297" data-name="Trazado 297" d="M69.482,75.181c0-3.138,0-3.716-.042-4.376-.039-.7-.247-1.055-.7-1.157A2.972,2.972,0,0,0,68,69.564c-.2,0-.332-.039-.332-.2,0-.122.166-.167.5-.167.785,0,2.083.064,2.682.064.516,0,1.732-.064,2.518-.064.269,0,.433.044.433.167,0,.166-.122.2-.33.2a3.586,3.586,0,0,0-.621.064c-.557.1-.72.455-.762,1.177-.042.659-.042,1.238-.042,4.376v3.632c0,2,0,3.635.083,4.519.062.561.207.931.826,1.012A8.629,8.629,0,0,0,74,84.43c.229,0,.333.057.333.161,0,.148-.166.209-.393.209-1.366,0-2.664-.061-3.222-.061-.475,0-1.773.061-2.6.061-.269,0-.411-.061-.411-.209,0-.1.084-.161.329-.161a3.308,3.308,0,0,0,.744-.086c.412-.081.536-.433.6-1.028.1-.868.1-2.5.1-4.5Z" transform="translate(-12.436 -12.717)" fill="#452819"/>
    <path id="Trazado_298" data-name="Trazado 298" d="M79.847,84.487c-.333-.144-.4-.248-.4-.7,0-1.135.084-2.373.106-2.7.02-.31.082-.535.245-.535.187,0,.209.183.209.349a4.412,4.412,0,0,0,.186,1.054,2.844,2.844,0,0,0,2.951,2.082,2.508,2.508,0,0,0,2.767-2.351c0-1.01-.309-1.962-2.023-3.3l-.948-.744c-2.272-1.774-3.057-3.22-3.057-4.893,0-2.268,1.9-3.9,4.769-3.9a10.007,10.007,0,0,1,2.743.353c.188.04.291.1.291.247,0,.268-.083.868-.083,2.476,0,.456-.062.621-.225.621-.146,0-.207-.126-.207-.371a2.527,2.527,0,0,0-.537-1.366,2.623,2.623,0,0,0-2.251-1.01,2.174,2.174,0,0,0-2.458,2.125c0,.952.475,1.674,2.189,2.973l.579.433c2.5,1.88,3.385,3.3,3.385,5.264a4.165,4.165,0,0,1-1.941,3.593,5.969,5.969,0,0,1-3.28.847,7.172,7.172,0,0,1-3.014-.537" transform="translate(-14.603 -12.652)" fill="#452819"/>
    <path id="Trazado_299" data-name="Trazado 299" d="M95.637,75.181c0-3.138,0-3.716-.042-4.376-.039-.7-.246-1.055-.7-1.157a2.989,2.989,0,0,0-.744-.083c-.208,0-.331-.039-.331-.2,0-.122.164-.167.5-.167.783,0,2.084.064,2.683.064.517,0,1.734-.064,2.518-.064.267,0,.433.044.433.167,0,.166-.122.2-.329.2a3.546,3.546,0,0,0-.62.064c-.557.1-.722.455-.766,1.177-.04.659-.04,1.238-.04,4.376v3.632c0,2,0,3.635.083,4.519.062.561.206.931.826,1.012a8.629,8.629,0,0,0,1.05.086c.229,0,.333.057.333.161,0,.148-.167.209-.393.209-1.363,0-2.664-.061-3.222-.061-.475,0-1.776.061-2.6.061-.267,0-.413-.061-.413-.209,0-.1.081-.161.331-.161a3.314,3.314,0,0,0,.742-.086c.415-.081.537-.433.6-1.028.1-.868.1-2.5.1-4.5Z" transform="translate(-17.244 -12.717)" fill="#452819"/>
    <path id="Trazado_300" data-name="Trazado 300" d="M104.47,75.923c0-3.53,2.332-8.093,8.524-8.093,5.143,0,8.341,2.995,8.341,7.723a8.16,8.16,0,0,1-8.546,8.462,7.864,7.864,0,0,1-8.32-8.093m13.974.391c0-4.623-2.662-7.492-6.046-7.492-2.375,0-5.08,1.321-5.08,6.463,0,4.291,2.375,7.7,6.339,7.7,1.447,0,4.787-.7,4.787-6.669M116.32,64.838c.124.248,0,.309-.1.309a3.522,3.522,0,0,0-.7,0,12.455,12.455,0,0,0-3.528,1.219,1.873,1.873,0,0,1-.354.162.13.13,0,0,1-.121-.124c0-.079.082-.163.186-.267a38.773,38.773,0,0,1,3.324-2.6.848.848,0,0,1,.411-.184c.144,0,.186.06.289.246.166.289.351.682.6,1.239" transform="translate(-19.201 -11.644)" fill="#452819"/>
    <path id="Trazado_301" data-name="Trazado 301" d="M131.036,81.914c.043,1.608.311,2.148.724,2.291a3.271,3.271,0,0,0,1.072.146c.229,0,.351.037.351.161,0,.165-.184.209-.473.209-1.343,0-2.169-.062-2.56-.062-.186,0-1.157.062-2.231.062-.269,0-.454-.02-.454-.209,0-.124.123-.161.33-.161a3.785,3.785,0,0,0,.93-.1c.537-.167.62-.766.64-2.564l.186-12.22c0-.413.062-.7.267-.7.229,0,.415.269.766.64.246.267,3.384,3.63,6.4,6.625,1.407,1.4,4.192,4.378,4.541,4.707h.105l-.206-9.269c-.02-1.261-.206-1.652-.7-1.855a3.28,3.28,0,0,0-1.095-.127c-.245,0-.329-.06-.329-.184,0-.165.228-.187.535-.187,1.074,0,2.066.064,2.5.064.227,0,1.012-.064,2.023-.064.269,0,.473.022.473.187,0,.124-.122.184-.371.184a2.173,2.173,0,0,0-.617.064c-.58.165-.744.6-.764,1.752l-.227,13.027c0,.454-.083.638-.269.638-.228,0-.475-.225-.7-.455-1.3-1.237-3.943-3.941-6.089-6.068-2.251-2.229-4.542-4.809-4.913-5.2h-.063Z" transform="translate(-23.427 -12.639)" fill="#452819"/>
    <path id="Trazado_302" data-name="Trazado 302" d="M162.039,69.173c.06-.349.186-.537.351-.537s.289.1.557.642l5.634,11.642L174.2,69.135c.167-.333.272-.5.456-.5s.308.208.37.642l1.88,12.759c.185,1.3.392,1.9,1.012,2.081a4.087,4.087,0,0,0,1.28.21c.184,0,.331.02.331.143,0,.165-.248.227-.537.227-.517,0-3.366-.062-4.19-.124-.477-.042-.6-.1-.6-.225,0-.106.084-.167.227-.23.124-.042.189-.31.106-.888l-1.239-9.083h-.084l-4.5,9.372c-.475.969-.577,1.158-.764,1.158s-.391-.415-.72-1.033c-.5-.95-2.127-4.11-2.375-4.683-.186-.436-1.425-3.038-2.147-4.585h-.082l-1.074,8.215a8.044,8.044,0,0,0-.059.971c0,.392.267.578.616.664a4.168,4.168,0,0,0,.868.1c.165,0,.309.037.309.143,0,.183-.184.227-.5.227-.864,0-1.8-.062-2.167-.062-.393,0-1.382.062-2.043.062-.206,0-.371-.044-.371-.227,0-.106.123-.143.33-.143a2.517,2.517,0,0,0,.619-.065c.58-.122.743-.926.848-1.628Z" transform="translate(-29.076 -12.615)" fill="#452819"/>
    <path id="Trazado_303" data-name="Trazado 303" d="M185.468,76.932c0-3.53,2.333-8.093,8.525-8.093,5.142,0,8.34,2.995,8.34,7.722a8.161,8.161,0,0,1-8.546,8.463,7.863,7.863,0,0,1-8.32-8.093m13.974.391c0-4.623-2.662-7.492-6.048-7.492-2.374,0-5.079,1.321-5.079,6.463,0,4.291,2.375,7.7,6.339,7.7,1.446,0,4.789-.7,4.789-6.669" transform="translate(-34.088 -12.652)" fill="#452819"/>
    <path id="Trazado_304" data-name="Trazado 304" d="M211.477,82.773a8.171,8.171,0,0,1-.144-11.744,9,9,0,0,1,6.523-2.191,20.144,20.144,0,0,1,2.995.21c.783.1,1.442.286,2.063.347.227.023.31.127.31.25,0,.166-.062.411-.105,1.134-.041.684-.019,1.819-.062,2.231-.02.307-.061.473-.247.473-.164,0-.206-.167-.206-.452a2.957,2.957,0,0,0-.8-1.9,6.153,6.153,0,0,0-4.193-1.281,5.383,5.383,0,0,0-3.879,1.281,6.883,6.883,0,0,0-1.9,5.344c0,4.916,3.738,7.352,6.5,7.352,1.836,0,2.951-.207,3.777-1.157a3.432,3.432,0,0,0,.7-1.364c.062-.328.1-.412.269-.412.146,0,.187.144.187.31a19.571,19.571,0,0,1-.455,2.745.728.728,0,0,1-.535.6,11.958,11.958,0,0,1-3.716.477,10.331,10.331,0,0,1-7.081-2.251" transform="translate(-38.397 -12.652)" fill="#452819"/>
    <path id="Trazado_305" data-name="Trazado 305" d="M229.154,76.932c0-3.53,2.335-8.093,8.524-8.093,5.142,0,8.341,2.995,8.341,7.722a8.161,8.161,0,0,1-8.544,8.463,7.864,7.864,0,0,1-8.321-8.093m13.975.391c0-4.623-2.662-7.492-6.05-7.492-2.374,0-5.078,1.321-5.078,6.463,0,4.291,2.376,7.7,6.339,7.7,1.446,0,4.789-.7,4.789-6.669" transform="translate(-42.117 -12.652)" fill="#452819"/>
    <path id="Trazado_306" data-name="Trazado 306" d="M255.718,81.914c.044,1.608.313,2.148.723,2.291a3.283,3.283,0,0,0,1.073.146c.228,0,.351.037.351.161,0,.165-.184.209-.473.209-1.342,0-2.167-.062-2.56-.062-.186,0-1.155.062-2.231.062-.267,0-.451-.02-.451-.209,0-.124.122-.161.327-.161a3.8,3.8,0,0,0,.931-.1c.536-.167.618-.766.64-2.564l.186-12.22c0-.413.059-.7.269-.7.225,0,.411.269.764.64.247.267,3.384,3.63,6.4,6.625,1.4,1.4,4.191,4.378,4.541,4.707h.1l-.2-9.269c-.024-1.261-.209-1.652-.7-1.855a3.278,3.278,0,0,0-1.095-.127c-.246,0-.331-.06-.331-.184,0-.165.229-.187.537-.187,1.076,0,2.065.064,2.5.064.224,0,1.01-.064,2.021-.064.268,0,.473.022.473.187,0,.124-.122.184-.372.184a2.173,2.173,0,0,0-.616.064c-.579.165-.744.6-.764,1.752l-.229,13.027c0,.454-.082.638-.267.638-.229,0-.475-.225-.7-.455-1.3-1.237-3.945-3.941-6.091-6.068-2.249-2.229-4.542-4.809-4.913-5.2h-.062Z" transform="translate(-46.343 -12.639)" fill="#452819"/>
    <path id="Trazado_307" data-name="Trazado 307" d="M278.828,78.339c-.1,0-.144.041-.185.165l-1.114,2.951a3.947,3.947,0,0,0-.311,1.259c0,.373.185.642.824.642h.311c.248,0,.31.037.31.161,0,.166-.122.21-.351.21-.661,0-1.549-.062-2.188-.062-.225,0-1.363.062-2.436.062-.267,0-.393-.044-.393-.21,0-.124.082-.161.249-.161a5.906,5.906,0,0,0,.641-.044c.95-.122,1.341-.823,1.752-1.856l5.182-12.965c.25-.6.371-.826.578-.826.186,0,.31.187.517.661.5,1.137,3.8,9.559,5.118,12.694.785,1.859,1.383,2.148,1.818,2.25a4.462,4.462,0,0,0,.866.085c.165,0,.269.021.269.161,0,.166-.186.21-.948.21-.744,0-2.251,0-3.9-.044-.37-.018-.62-.018-.62-.166,0-.124.083-.161.29-.183a.338.338,0,0,0,.185-.475l-1.65-4.377a.2.2,0,0,0-.206-.143Zm4.21-1.034c.1,0,.127-.06.1-.122l-1.858-5.1c-.02-.083-.041-.188-.1-.188s-.1.1-.126.188l-1.9,5.075c-.022.086,0,.145.082.145Zm2.231-12.467c.122.248,0,.309-.1.309a3.517,3.517,0,0,0-.7,0,12.458,12.458,0,0,0-3.53,1.219,1.932,1.932,0,0,1-.351.162.131.131,0,0,1-.124-.124c0-.079.083-.163.186-.267a39.553,39.553,0,0,1,3.324-2.6.864.864,0,0,1,.413-.184c.144,0,.186.06.289.246.166.289.351.682.6,1.239" transform="translate(-50.23 -11.644)" fill="#452819"/>
    <path id="Trazado_308" data-name="Trazado 308" d="M67.463,117.469a.828.828,0,0,1-.844-1.019,1.221,1.221,0,0,1,1.192-1.016.837.837,0,0,1,.843,1.016,1.248,1.248,0,0,1-1.191,1.019" transform="translate(-12.241 -21.216)" fill="#a5865f"/>
    <path id="Trazado_309" data-name="Trazado 309" d="M91.044,112.54c-.719,1.462-1.29,2.677-2.183,4.266l-.519.842a23.643,23.643,0,0,1,8.134,3.7c2.357,1.838,2.876,4.764,2.257,5.8a1.481,1.481,0,0,1-.619.671c-1.068.568-.522-.323-.322-.744a4.668,4.668,0,0,0-1.215-4.835c-2.406-2.136-5.83-2.853-8.979-3.473a12.192,12.192,0,0,1-4.389,4.041c-5.184,2.506-8.706-3.1-2.034-5.11a15.49,15.49,0,0,1,6.224-.272A44.052,44.052,0,0,0,90,112.639c-7.146.224-9.377-7.493-.891-9.425,1.038-.246,1.14.271.049.422-5.109.619-6.773,9.324,1.19,8.385.3-.673,2.107-5.311,2.107-5.311,3.67-9.45,8.754-7.588,8.93-5.555.421,5.011-5.06,10.491-10.343,11.385m-9.574,6.175c-6,1.539-3.2,5.579,1.339,3.4a10.343,10.343,0,0,0,3.819-3.5,11.7,11.7,0,0,0-5.158.1m12.105-11.162s-1.169,2.209-2.185,4.318c4.465-.993,9-5.582,8.979-10.171-.024-1.659-2.95-1.659-6.794,5.853" transform="translate(-14.246 -18.289)" fill="#a5865f"/>
    <path id="Trazado_310" data-name="Trazado 310" d="M105.708,123.166a2.025,2.025,0,0,1-1.588-.644,3.556,3.556,0,0,1-2.156.843c-1.884-.051-2.158-2.307-1.216-4.515.966-2.282,3.026-4.214,4.714-4.168,1.884.028,2.156,2.308,1.215,4.515a9.569,9.569,0,0,1-2.085,2.926,1.216,1.216,0,0,0,1.165.621c1.589,0,2.876-3.075,3.473-4.265.125-.249.547-.15.375.22-.424.943-1.812,4.466-3.895,4.466m-3.251-4.415c-.966,2.032-1.189,3.771-.295,4.042a2.059,2.059,0,0,0,1.685-.618,2.217,2.217,0,0,1-.4-1.217c.024-.568.248-1.065.868-1.065a.745.745,0,0,1,.744.744,1.006,1.006,0,0,1-.051.274,9.8,9.8,0,0,0,.771-1.341c.966-2.036,1.091-3.8.2-4.068-1.067-.3-2.6,1.289-3.523,3.249" transform="translate(-18.42 -21.078)" fill="#a5865f"/>
    <path id="Trazado_311" data-name="Trazado 311" d="M116.785,118.523c-.248.57-1.018,2.653.148,2.653,1.241,0,2.679-3.078,3.2-4.117.2-.446.593-.348.372.148-.6,1.388-2.036,4.614-4.02,4.614a1.347,1.347,0,0,1-1.113-.669,2.781,2.781,0,0,1-.224-2.183c-.745,1.212-1.911,3.2-3.623,2.752-2.329-.646-.965-4.638.846-6.821,1.387-1.612,3.544-2.481,5.331-1.438,1.191-2.255,2.28-4.539,2.876-5.877.471-1.117.893-1.366,1.685-1.291a4.662,4.662,0,0,0,1.068.1c-.744.7-5.11,8.707-6.547,12.131m-4.564-.7c-1.637,3.075-.148,4.616,1.959,1.634a58.067,58.067,0,0,0,3.325-5.6c-1.242-1.214-3.968,1.539-5.284,3.968" transform="translate(-20.271 -19.534)" fill="#a5865f"/>
    <path id="Trazado_312" data-name="Trazado 312" d="M127.717,123.634c-1.092,3.127-4.363,7.543-7.96,7.543-1.563,0-2.334-.624-2.334-1.914,0-1.212.968-2.155,2.16-2.851,2.431-1.437,4.687-1.911,6.6-2.679a12.084,12.084,0,0,0,.573-2.756,7.9,7.9,0,0,0,.023-2.032c-.793,1.539-2.778,4.887-4.761,4.291-2.481-1.066-.992-4.638.841-6.821,1.464-1.762,3.9-2.6,5.756-1.141.868.72,0,1.463-.272.72-.645-1.761-2.481-.767-3.995.919-1.811,2.032-3.2,5.034-1.91,5.6,1.463.621,3.869-3.174,4.341-4.736.349-1.142,1.142-.7,1.538-.991a14.574,14.574,0,0,1-.323,6.027,7.469,7.469,0,0,0,1.736-1.612,14.167,14.167,0,0,0,1.44-2.629c.223-.446.62-.3.371.2-1.265,2.6-1.983,3.992-3.82,4.861m-2.653,1.115a24.4,24.4,0,0,0-5.456,2.383c-1.613,1.065-2.507,3.546-.447,3.546a6.5,6.5,0,0,0,3.124-1.288,14.189,14.189,0,0,0,2.233-2.434,12.853,12.853,0,0,0,1.414-2.5Z" transform="translate(-21.581 -21.049)" fill="#a5865f"/>
    <path id="Trazado_313" data-name="Trazado 313" d="M135.879,123.432a2.292,2.292,0,0,1-2.383-2.384,7.793,7.793,0,0,1,1.912-4.638c1.264-1.487,3.148-2.429,4.24-1.612.944.722.224,2.406-1.363,3.622a6.992,6.992,0,0,1-3.053,1.093c-.371.891-.793,3.4.844,3.4,2.183,0,3.523-2.926,4.093-4.243.2-.444.694-.495.446.028-.917,1.984-1.984,4.738-4.736,4.738m1.016-6.675a14.845,14.845,0,0,0-1.487,2.335A5.176,5.176,0,0,0,138.037,118c2.032-1.71,1.911-4.936-1.142-1.241" transform="translate(-24.536 -21.044)" fill="#a5865f"/>
    <path id="Trazado_314" data-name="Trazado 314" d="M155.191,118.523c-.248.57-1.018,2.653.15,2.653,1.239,0,2.676-3.078,3.2-4.117.2-.446.6-.348.371.148-.593,1.388-2.032,4.614-4.017,4.614a1.348,1.348,0,0,1-1.116-.669,2.793,2.793,0,0,1-.224-2.183c-.744,1.212-1.909,3.2-3.62,2.752-2.331-.646-.968-4.638.841-6.821,1.392-1.612,3.547-2.481,5.332-1.438,1.191-2.255,2.284-4.539,2.878-5.877.473-1.117.893-1.366,1.688-1.291a4.633,4.633,0,0,0,1.065.1c-.742.7-5.11,8.707-6.547,12.131m-4.564-.7c-1.637,3.075-.15,4.616,1.959,1.634a57.466,57.466,0,0,0,3.322-5.6c-1.237-1.214-3.965,1.539-5.281,3.968" transform="translate(-27.33 -19.534)" fill="#a5865f"/>
    <path id="Trazado_315" data-name="Trazado 315" d="M162.378,123.432A2.289,2.289,0,0,1,160,121.048a7.764,7.764,0,0,1,1.909-4.638c1.266-1.487,3.151-2.429,4.243-1.612.941.722.221,2.406-1.367,3.622a6.984,6.984,0,0,1-3.049,1.093c-.372.891-.793,3.4.844,3.4,2.182,0,3.523-2.926,4.092-4.243.2-.444.7-.495.446.028-.917,1.984-1.983,4.738-4.735,4.738m1.015-6.675a14.846,14.846,0,0,0-1.487,2.335A5.179,5.179,0,0,0,164.534,118c2.032-1.71,1.908-4.936-1.142-1.241" transform="translate(-29.406 -21.044)" fill="#a5865f"/>
    <path id="Trazado_316" data-name="Trazado 316" d="M177.287,122.958a2.69,2.69,0,0,1-1.015.247c-3,0-2.431-3.448-1.242-3.5.67-1.265,1.49-2.875,2.134-4.288.446-.968,1.19-2.011,2.058-2.134a1.556,1.556,0,0,1,.919.122c.446.224.347.645-.1.422a.979.979,0,0,0-.795-.024c-1.139.546-.893,2.257-.521,3.148a6.7,6.7,0,0,1,.892,2.927,3.922,3.922,0,0,1-1.76,2.752l.173.027a2.553,2.553,0,0,0,2.232-1.142,22.827,22.827,0,0,0,1.862-3.25c.122-.246.494-.1.371.149-.917,2.059-2.405,5.381-5.208,4.542m-1.686-2.136c-.792.795-.472,1.96.494,1.96a1.118,1.118,0,0,0,.5-.1,2.2,2.2,0,0,1-.993-1.861m2.182-5.655c-.67,1.338-1.738,3.5-2.331,4.59,0,0,.546-.025.52.792a1.976,1.976,0,0,0,1.042,1.912,3.421,3.421,0,0,0,1.094-2.582c.072-1.562-.522-3.6-.325-4.712" transform="translate(-31.993 -20.817)" fill="#a5865f"/>
    <path id="Trazado_317" data-name="Trazado 317" d="M185.5,123.432a2.291,2.291,0,0,1-2.383-2.384,7.776,7.776,0,0,1,1.91-4.638c1.266-1.487,3.15-2.429,4.24-1.612.942.722.224,2.406-1.362,3.622a7,7,0,0,1-3.053,1.093c-.371.891-.792,3.4.842,3.4,2.185,0,3.526-2.926,4.095-4.243.2-.444.7-.495.446.028-.917,1.984-1.983,4.738-4.735,4.738m1.015-6.675a14.9,14.9,0,0,0-1.487,2.335A5.182,5.182,0,0,0,187.656,118c2.032-1.71,1.908-4.936-1.142-1.241" transform="translate(-33.655 -21.044)" fill="#a5865f"/>
    <path id="Trazado_318" data-name="Trazado 318" d="M192.613,117.032c-.126.422-.374,1.018-.521,1.637-.747,2.975,1.239,3.4,2.551,1.562a25.47,25.47,0,0,0,1.837-3.15c.224-.421.6-.371.371.124-.62,1.316-1.909,4.661-4.413,4.661-2.777,0-1.589-3.4-1.164-4.885a39.608,39.608,0,0,1,3.768-8.752c1.76-2.952,4.44-2.607,2.653,1.363a21.71,21.71,0,0,1-5.083,7.439m4.117-8.928a52.559,52.559,0,0,0-3.919,8.134,24.6,24.6,0,0,0,4.514-7.019c.5-1.141.745-3.025-.594-1.115" transform="translate(-35.041 -19.533)" fill="#a5865f"/>
    <path id="Trazado_319" data-name="Trazado 319" d="M204.18,115.073c-.568,1.785-2.652,9.026-6.077,8.333-1.487-.3-.866-2.532-.171-4.44-.274.421-.6.269-.448-.076l.448-.842c.493-.967.744-2.9.073-3.074,0,0,1.018-.177,1.217-.2.717-.075.943-.2.891,1.018a10.949,10.949,0,0,1-.721,3c-.618,1.637-1.24,3.471-.593,3.771,1.189.521,2.529-1.564,3.521-4.018a3.777,3.777,0,0,1-.2-2.481c.695-2.209,2.58-2.209,2.108-1.114a.184.184,0,0,0-.049.124" transform="translate(-36.242 -20.995)" fill="#a5865f"/>
    <path id="Trazado_320" data-name="Trazado 320" d="M210.881,123.377c-.819.053-1.986-.593-1.242-3.2a12.518,12.518,0,0,1-1.785,2.33c-2.849,2.729-4.738-1.61-.993-6.1,1.489-1.763,4.341-2.676,5.756-1.142.345.375.148.795-.273.72-.274-.917-1.191-1.115-2.108-.619a10.668,10.668,0,0,0-3.3,3.546,8.787,8.787,0,0,0-1.019,2.5c-.249,1.736,1.117,1.537,2.284.149a20.12,20.12,0,0,0,2.205-3.471c.545-1.041.892-1.637,1.685-1.588a3.6,3.6,0,0,0,1.043.1,14.376,14.376,0,0,0-2.307,4.638c-.2,1.018-.074,1.487.247,1.487,1.041.051,2.679-3.1,3.2-4.164.221-.446.592-.3.345.2-.744,1.512-2.254,4.488-3.744,4.612" transform="translate(-37.636 -21.042)" fill="#a5865f"/>
    <path id="Trazado_321" data-name="Trazado 321" d="M226.524,117.469a.829.829,0,0,1-.842-1.019,1.222,1.222,0,0,1,1.19-1.016.835.835,0,0,1,.844,1.016,1.244,1.244,0,0,1-1.192,1.019" transform="translate(-41.476 -21.216)" fill="#a5865f"/>
  </g>
</svg>
