<svg xmlns="http://www.w3.org/2000/svg" width="17" height="19" viewBox="0 0 17 19">
  <g id="Grupo_313" data-name="Grupo 313" transform="translate(-3.5 -2.5)">
    <path id="Trazado_500" data-name="Trazado 500" d="M8.5,21.5a1.022,1.022,0,0,1-1-1v-5H5.4a1.907,1.907,0,0,1-1.9-1.9,1.937,1.937,0,0,1,.32-1.068,1.873,1.873,0,0,1,.822-.72L11.5,8.758V7.415a2.411,2.411,0,0,1-1.437-.832A2.376,2.376,0,0,1,9.5,5,2.485,2.485,0,0,1,12,2.5a2.443,2.443,0,0,1,1.611.561,2.269,2.269,0,0,1,.824,1.361.444.444,0,0,1-.111.421.548.548,0,0,1-.4.158.522.522,0,0,1-.331-.1.619.619,0,0,1-.2-.284,1.491,1.491,0,0,0-.5-.8A1.35,1.35,0,0,0,12,3.5,1.507,1.507,0,0,0,10.5,5,1.507,1.507,0,0,0,12,6.5a.49.49,0,0,1,.5.5V8.758l6.858,3.054a1.873,1.873,0,0,1,.822.72A1.937,1.937,0,0,1,20.5,13.6a1.907,1.907,0,0,1-1.9,1.9H16.5v5a1.022,1.022,0,0,1-1,1Zm-3.1-7H7.563v-.231a1,1,0,0,1,.334-.548.9.9,0,0,1,.6-.221h7a.9.9,0,0,1,.6.221,1,1,0,0,1,.334.548V14.5H18.6a.82.82,0,0,0,.678-.275A1.011,1.011,0,0,0,19.37,13.1a.869.869,0,0,0-.389-.359L12,9.662,5.058,12.738a.886.886,0,0,0-.428.339.961.961,0,0,0-.13.511.993.993,0,0,0,.225.623A.8.8,0,0,0,5.4,14.5Zm3.1,6h7v-6h-7Z" fill="#1c1b1f"/>
  </g>
</svg>
