<svg xmlns="http://www.w3.org/2000/svg" width="19.573" height="13" viewBox="0 0 19.573 13">
  <g id="Grupo_319" data-name="Grupo 319" transform="translate(-2.213 -5)">
    <path id="Trazado_502" data-name="Trazado 502" d="M12,15.154A3.635,3.635,0,0,0,15.654,11.5,3.635,3.635,0,0,0,12,7.846,3.635,3.635,0,0,0,8.346,11.5,3.635,3.635,0,0,0,12,15.154Zm0-.954a2.689,2.689,0,0,1-2.7-2.7A2.689,2.689,0,0,1,12,8.8a2.689,2.689,0,0,1,2.7,2.7A2.689,2.689,0,0,1,12,14.2ZM12,18a10.552,10.552,0,0,1-5.687-1.616,10.809,10.809,0,0,1-3.994-4.376.844.844,0,0,1-.081-.237,1.48,1.48,0,0,1,0-.542.844.844,0,0,1,.081-.237A10.808,10.808,0,0,1,6.313,6.616,10.552,10.552,0,0,1,12,5a10.552,10.552,0,0,1,5.687,1.616,10.808,10.808,0,0,1,3.994,4.376.841.841,0,0,1,.081.237,1.48,1.48,0,0,1,0,.542.841.841,0,0,1-.081.237,10.809,10.809,0,0,1-3.994,4.376A10.552,10.552,0,0,1,12,18Zm0-1a9.544,9.544,0,0,0,5.188-1.488A9.773,9.773,0,0,0,20.8,11.5a9.773,9.773,0,0,0-3.612-4.012A9.545,9.545,0,0,0,12,6,9.545,9.545,0,0,0,6.813,7.488,9.773,9.773,0,0,0,3.2,11.5a9.773,9.773,0,0,0,3.612,4.012A9.544,9.544,0,0,0,12,17Z" fill="#1c1b1f"/>
  </g>
</svg>
