<svg xmlns="http://www.w3.org/2000/svg" width="28" height="28" viewBox="0 0 28 28">
  <g id="Grupo_21" data-name="Grupo 21" transform="translate(-493 -1310)">
    <circle id="Elipse_2" data-name="Elipse 2" cx="14" cy="14" r="14" transform="translate(493 1310)" fill="#fff"/>
    <path id="Trazado_65" data-name="Trazado 65" d="M1.5,2.979A1.479,1.479,0,0,1,2.979,1.5h.676a.925.925,0,0,1,.9.7L5.1,4.382a.925.925,0,0,1-.342.964l-.638.478A.154.154,0,0,0,4.056,6a5.565,5.565,0,0,0,3.3,3.3.154.154,0,0,0,.173-.062L8.01,8.6a.925.925,0,0,1,.964-.342l2.181.545a.925.925,0,0,1,.7.9v.676a1.479,1.479,0,0,1-1.479,1.479H9.267A7.767,7.767,0,0,1,1.5,4.089Z" transform="translate(500.322 1317.322)" fill="#464646" fill-rule="evenodd"/>
  </g>
</svg>
